<?xml version="1.0" encoding="UTF-8" standalone="no"?>
<svg
   xmlns:dc="http://purl.org/dc/elements/1.1/"
   xmlns:cc="http://creativecommons.org/ns#"
   xmlns:rdf="http://www.w3.org/1999/02/22-rdf-syntax-ns#"
   xmlns="http://www.w3.org/2000/svg"
   xmlns:sodipodi="http://sodipodi.sourceforge.net/DTD/sodipodi-0.dtd"
   xmlns:inkscape="http://www.inkscape.org/namespaces/inkscape"
   viewBox="0 0 50 50"
   height="50"
   width="50"
   xml:space="preserve"
   version="1.1"
   id="svg2"
   inkscape:version="0.91 r13725"
   sodipodi:docname="logo.svg"
   inkscape:export-filename="/home/simen/ntnu/vevkom/logoTjukkKant.png"
   inkscape:export-xdpi="74"
   inkscape:export-ydpi="74"><sodipodi:namedview
     pagecolor="#ffffff"
     bordercolor="#666666"
     borderopacity="1"
     objecttolerance="10"
     gridtolerance="10"
     guidetolerance="10"
     inkscape:pageopacity="0"
     inkscape:pageshadow="2"
     inkscape:window-width="1920"
     inkscape:window-height="1027"
     id="namedview4224"
     showgrid="false"
     inkscape:zoom="14.774373"
     inkscape:cx="26.372988"
     inkscape:cy="25.346435"
     inkscape:window-x="1912"
     inkscape:window-y="456"
     inkscape:window-maximized="1"
     inkscape:current-layer="svg2" /><metadata
     id="metadata8"><rdf:RDF><cc:Work
         rdf:about=""><dc:format>image/svg+xml</dc:format><dc:type
           rdf:resource="http://purl.org/dc/dcmitype/StillImage" /><dc:title></dc:title></cc:Work></rdf:RDF></metadata><defs
     id="defs6"><clipPath
       id="clipPath16"
       clipPathUnits="userSpaceOnUse"><path
         id="path18"
         d="M 0,408 432,408 432,0 0,0 0,408 Z"
         inkscape:connector-curvature="0" /></clipPath></defs><path
     style="color:#000000;font-style:normal;font-variant:normal;font-weight:normal;font-stretch:normal;font-size:medium;line-height:normal;font-family:sans-serif;text-indent:0;text-align:start;text-decoration:none;text-decoration-line:none;text-decoration-style:solid;text-decoration-color:#000000;letter-spacing:normal;word-spacing:normal;text-transform:none;direction:ltr;block-progression:tb;writing-mode:lr-tb;baseline-shift:baseline;text-anchor:start;white-space:normal;clip-rule:nonzero;display:inline;overflow:visible;visibility:visible;opacity:1;isolation:auto;mix-blend-mode:normal;color-interpolation:sRGB;color-interpolation-filters:linearRGB;solid-color:#000000;solid-opacity:1;fill:#4d4d4d;fill-opacity:1;fill-rule:evenodd;stroke:none;stroke-width:12;stroke-linecap:round;stroke-linejoin:round;stroke-miterlimit:4;stroke-dasharray:none;stroke-dashoffset:0;stroke-opacity:1;color-rendering:auto;image-rendering:auto;shape-rendering:auto;text-rendering:auto;enable-background:accumulate"
     d="M 22.435627,0.48317312 C 22.025376,0.48252739 21.563203,0.54480062 21.107791,0.69979902 20.368682,0.95242332 19.853422,1.6233304 19.802019,2.4027187 17.179704,1.3562826 14.083194,1.0487345 10.655595,1.6545573 8.6969373,2.0013973 8.4732455,4.722566 10.348706,5.3853355 c 0.0046,0.00157 0.803439,0.4964717 1.29775,1.0470248 0.2679,0.2983843 0.417077,0.6273625 0.507465,0.8123469 -0.07881,0.093306 -0.186241,0.2305826 -0.425228,0.4472922 -0.272596,0.2471613 -0.619536,0.5295585 -0.978827,1.022955 -0.359293,0.4933966 -0.746594,1.4228896 -0.519501,2.3608196 0.142195,0.584984 0.548392,1.070751 1.099176,1.313797 -4.0558447,1.644668 -7.9877402,3.53635 -11.25852596,6.300201 l 0,30.82706 22.07577296,0 c -6.79e-4,-0.08656 0.01086,-0.169478 0.0021,-0.258748 -0.01952,-0.195931 -0.05159,-0.369523 -0.09226,-0.531536 -0.238735,-1.413477 -0.782191,-2.545815 -1.117229,-3.488077 -0.360038,-1.012571 -0.482298,-1.69847 -0.276799,-2.459104 0.04956,-0.07489 0.178729,-0.320928 0.369066,-0.563628 0.306739,-0.391157 0.738683,-0.890658 1.193449,-1.396034 0.491549,-0.54624 0.849251,-0.928019 1.293737,-1.404057 1.111567,1.222263 2.501629,2.780636 4.089815,4.258304 1.756967,1.634708 3.669745,3.169439 5.929129,3.813015 0.28374,0.08085 0.562174,0.13579 0.836418,0.16648 l 0.0021,0 c 1.918841,0.21395 3.588621,-0.717996 4.763763,-1.644752 0.671745,-0.529761 1.218025,-1.094295 1.642744,-1.628704 0.212358,-0.267198 0.393203,-0.523634 0.551595,-0.802319 0.158397,-0.278692 0.344521,-0.486538 0.397148,-1.189435 l 0,-0.0061 c 0.226706,0.19557 0.702192,0.546521 0.786271,0.669934 0.226137,0.331965 0.370231,0.474546 -0.07623,1.815245 -0.575156,1.726489 1.33467,3.219773 2.872301,2.246491 0.170376,-0.107809 0.338763,-0.223446 0.505459,-0.347003 2.490404,-1.846074 4.759647,-5.446087 4.151995,-9.792291 -0.38994,-2.782413 -2.123302,-4.681816 -3.476044,-6.225987 -1.352501,-1.543868 -2.276829,-2.729704 -2.3889,-3.847112 0.0067,0.0637 0.226604,-0.632875 0.144418,-1.849344 -0.186582,-2.754045 -1.956053,-4.809481 -3.135058,-6.149766 -1.341484,-1.524511 -3.386135,-3.196106 -5.574105,-4.683531 0.02053,-0.175836 0.0154,-0.352691 -0.01203,-0.527525 C 34.597225,7.9997537 31.002559,3.654014 26.605674,1.1450854 26.223665,0.92716137 25.780435,0.84576147 25.346035,0.91441909 24.827635,0.99650496 24.214072,0.48578915 22.435627,0.48317312 Z m -0.04213,1.63071128 c 0.99689,0.00157 1.952343,0.6069335 3.215289,0.4071761 3.962665,2.2611501 7.143346,6.1112113 7.973034,11.1782945 -1.924743,-0.433562 -3.572738,-2.41711 -6.574989,-2.206374 -1.049004,-2.9651742 -2.700423,-5.2978799 -5.034543,-6.9119692 0.367228,-0.8234496 -0.237046,-1.512258 -0.278806,-2.354803 0.238841,-0.081199 0.469972,-0.1127549 0.700019,-0.1123244 z m -7.864722,0.85848 c 7.839029,0.2098226 12.163123,6.3487833 12.927347,14.5520406 0.283331,0.48625 0.841835,0.682605 1.538444,0.73412 0.06048,-0.848032 -0.848087,-0.676394 -0.978825,-1.323823 -0.311437,-1.485332 -0.651096,-2.941565 -0.838425,-4.559173 3.26723,-0.14624 9.805871,4.501376 12.445957,7.501673 1.075547,1.222667 2.534354,3.179516 2.657678,5.000446 0.03902,0.577576 -0.200102,1.313258 -0.140404,1.911522 0.380505,3.803055 5.288416,5.961872 5.874971,10.149322 0.489527,3.501337 -1.446843,6.530249 -3.387785,7.969023 -0.129381,0.09588 -0.260402,0.185317 -0.389127,0.26677 1.11497,-3.348405 -0.656437,-4.113053 -2.657673,-5.734566 -1.494681,-1.211376 -2.458863,-2.587148 -4.474928,-2.647649 -0.323919,-0.492488 -0.405853,-1.239877 -0.559617,-1.911524 -1.402583,-1.174672 -5.249793,-1.163939 -6.851794,-0.148426 1.198864,2.073442 2.235317,4.317804 4.894139,4.854021 0.2759,2.308759 2.716329,2.340701 5.174951,2.352798 -0.05231,0.698565 -3.001986,4.16234 -5.734568,3.383776 -3.389377,-0.965108 -7.153098,-5.374663 -9.509474,-7.942947 -2.100505,-2.29068 -7.054595,-5.285876 -10.939603,-3.016715 -0.125306,0.07321 -0.248094,0.152276 -0.371072,0.236682 0.321572,-2.852781 2.938904,-4.697674 4.878092,-6.338311 -0.88101,-0.527715 -2.193114,-0.420537 -3.367729,-0.216625 -0.391535,0.06808 -0.76729,0.147165 -1.107199,0.216625 1.21643,-2.201812 3.113761,-3.687056 6.013373,-4.117897 -0.02827,-0.01945 -0.05994,-0.03701 -0.09226,-0.05215 -0.484633,-0.226296 -1.39259,-0.0069 -1.72699,-0.39113 0.208795,-1.152837 1.475758,-1.191682 2.376867,-1.616671 -1.352243,-0.817598 -3.107666,0.443898 -3.074883,2.059951 -2.053928,0.92882 -3.644299,2.343045 -4.196122,4.852018 1.310871,0.460886 2.255301,-1.082459 3.776912,-0.441275 -2.073827,1.642215 -4.176608,3.256952 -4.196123,7.060399 0.06372,-0.0019 0.125514,-0.0052 0.186538,-0.01606 0.915001,-0.144085 1.54294,-1.110221 2.47114,-1.307777 3.089664,-0.657584 6.323691,1.055974 7.969022,2.352796 -0.846474,0.971738 -4.034419,4.185719 -4.334522,5.148876 -0.647573,2.081456 0.367452,3.864501 0.990858,5.670385 l -0.11433,0 -17.5366636,0 0,-28.157347 0,-0.1023 c 3.6788597,-2.84958 8.2204576,-4.760211 12.9554276,-6.556944 -0.174068,2.954631 -1.924793,4.055314 -3.706708,5.319369 3.826473,1.041982 7.444436,-8.6858038 0.700023,-7.648096 C 11.809853,9.2279716 14.080759,8.5012109 14.169742,7.0822379 14.251295,5.7682637 12.165423,3.6849177 10.954453,3.2571873 12.217667,3.0339121 13.408918,2.9423897 14.528774,2.9723644 Z M 34.02912,21.642302 c -0.319619,0.353966 -0.02421,0.888149 0.140405,1.175396 0.423815,0.352387 -0.265511,0.584624 -0.665923,0.776241 -0.0363,0.421105 -0.193551,1.309647 -0.732116,0.988856 -0.203336,-0.215779 -0.915128,-0.215779 -1.119233,0 1.426387,0.848034 3.558592,1.689331 5.034545,1.618679 -0.793009,-1.616833 -1.447488,-3.380981 -2.657678,-4.559172 z m 6.783597,10.456207 c -0.842934,0.08553 -1.548824,1.599281 -0.07021,1.604637 0.38089,-0.398853 -0.361151,-0.366623 -0.278808,-0.88255 0.304385,-0.434749 0.98298,0.379137 1.117229,-0.294851 -0.179489,-0.269805 -0.38994,-0.396197 -0.599733,-0.425229 -0.05683,-0.0086 -0.112323,-0.0083 -0.168487,-0.0021 z m -7.603968,4.123915 c 0.684743,0.0086 1.243621,0.153828 1.644752,0.280811 0.09169,0.46968 0.250701,1.011218 0.673947,1.65478 0.0086,0.01086 0.01765,0.02473 0.02607,0.03611 -0.170358,-0.09374 -0.355107,-0.161701 -0.545576,-0.200579 -0.864207,-0.174305 -1.336567,-0.533592 -1.889457,-1.195454 -0.120674,-0.144494 -0.24156,-0.352954 -0.361044,-0.525517 0.157574,-0.01086 0.294022,-0.05209 0.451302,-0.05015 z m 3.010699,2.573434 c 0.266341,0.145156 0.563335,0.225311 0.866503,0.234677 0.577778,0.0173 0.849436,0.150831 1.339871,0.513484 0.215182,0.159163 0.5923,0.499012 0.866503,0.746157 -0.994424,-0.02013 -1.884482,-0.0726 -2.318699,-0.208603 -0.51304,-0.160717 -0.366912,0.06671 -0.425228,-0.421217 -0.03772,-0.310578 -0.151473,-0.60687 -0.32895,-0.864498 z"
     id="path22"
     inkscape:connector-curvature="0"
     sodipodi:nodetypes="cccccsccscccccccsccscscccssscccccccscccccccccccccccsccccccccccccccccccccccccccccccccsccccccccccccsccccccccccccccccccccccccccccc" /></svg>