<?xml version="1.0" encoding="UTF-8" standalone="no"?>
<svg
   xmlns:dc="http://purl.org/dc/elements/1.1/"
   xmlns:cc="http://creativecommons.org/ns#"
   xmlns:rdf="http://www.w3.org/1999/02/22-rdf-syntax-ns#"
   xmlns="http://www.w3.org/2000/svg"
   xmlns:sodipodi="http://sodipodi.sourceforge.net/DTD/sodipodi-0.dtd"
   xmlns:inkscape="http://www.inkscape.org/namespaces/inkscape"
   viewBox="0 0 250 50"
   height="50"
   width="250"
   xml:space="preserve"
   version="1.1"
   id="svg2"
   inkscape:version="0.91 r13725"
   sodipodi:docname="logo_med_tekst.svg"
   inkscape:export-filename="/home/simen/ntnu/vevkom/logoTjukkKant.png"
   inkscape:export-xdpi="74"
   inkscape:export-ydpi="74"><sodipodi:namedview
     pagecolor="#ffffff"
     bordercolor="#666666"
     borderopacity="1"
     objecttolerance="10"
     gridtolerance="10"
     guidetolerance="10"
     inkscape:pageopacity="0"
     inkscape:pageshadow="2"
     inkscape:window-width="1920"
     inkscape:window-height="1027"
     id="namedview4224"
     showgrid="false"
     inkscape:zoom="5.2235296"
     inkscape:cx="127.20233"
     inkscape:cy="16.343786"
     inkscape:window-x="1912"
     inkscape:window-y="456"
     inkscape:window-maximized="1"
     inkscape:current-layer="svg2" /><metadata
     id="metadata8"><rdf:RDF><cc:Work
         rdf:about=""><dc:format>image/svg+xml</dc:format><dc:type
           rdf:resource="http://purl.org/dc/dcmitype/StillImage" /><dc:title></dc:title></cc:Work></rdf:RDF></metadata><defs
     id="defs6"><clipPath
       id="clipPath16"
       clipPathUnits="userSpaceOnUse"><path
         id="path18"
         d="M 0,408 432,408 432,0 0,0 0,408 Z"
         inkscape:connector-curvature="0" /></clipPath><clipPath
       clipPathUnits="userSpaceOnUse"
       id="clipPath4363"><rect
         style="fill:#666666;stroke:none"
         id="rect4365"
         width="115.4864"
         height="115.4864"
         x="-430.19028"
         y="-332.95587"
         transform="scale(-1,-1)" /></clipPath></defs><g
     transform="matrix(-0.43295142,0,0,-0.43295142,186.25149,144.15372)"
     clip-path="url(#clipPath4363)"
     id="g3499"
     style="fill:#666666;stroke:none;stroke-width:4;stroke-linecap:round;stroke-miterlimit:4;stroke-dasharray:none;stroke-opacity:1"><g
       transform="translate(410.6406,250.7451)"
       id="g3501"
       style="fill:#666666;stroke:none;stroke-width:4;stroke-linecap:round;stroke-miterlimit:4;stroke-dasharray:none;stroke-opacity:1"><path
         inkscape:connector-curvature="0"
         id="path3503"
         style="fill:#666666;fill-opacity:1;fill-rule:evenodd;stroke:none;stroke-width:4;stroke-linecap:round;stroke-miterlimit:4;stroke-dasharray:none;stroke-opacity:1"
         d="M 0,0 C -0.211,-1.322 1.694,-1.238 0.718,-2.26 -4.256,-2.242 0.413,4.442 2.866,0.755 2.522,-0.972 0.78,1.114 0,0 m -22.577,21.107 c 0.523,0.553 2.347,0.553 2.868,0 1.38,-0.822 1.785,1.459 1.878,2.538 1.026,0.491 2.792,1.082 1.706,1.985 -0.422,0.736 -1.178,2.109 -0.359,3.016 3.101,-3.019 4.777,-7.541 6.809,-11.684 -3.782,-0.181 -9.247,1.972 -12.902,4.145 m 41.93,-31.658 C 17.85,0.179 5.275,5.709 4.3,15.454 c -0.153,1.533 0.459,3.42 0.359,4.9 -0.316,4.666 -4.053,9.68 -6.809,12.813 -6.765,7.688 -23.522,19.597 -31.894,19.222 0.48,-4.145 1.352,-7.877 2.15,-11.683 0.335,-1.659 2.664,-1.22 2.509,-3.393 -1.785,0.132 -3.216,0.638 -3.942,1.884 -2.238,24.023 -16.391,41.136 -42.286,36.559 3.103,-1.096 8.451,-6.433 8.242,-9.8 -0.228,-3.636 -6.052,-5.499 -5.376,-8.291 17.282,2.659 8.013,-22.269 -1.792,-19.599 4.566,3.239 9.052,6.061 9.498,13.632 -17.907,-6.795 -34.809,-14.146 -44.976,-29.084 4.014,0.273 11.183,0.282 11.828,-2.638 0.941,-4.28 -9.32,-5.411 -13.619,-8.667 -2.228,-1.69 -4.155,-4.573 -5.015,-6.408 5.078,-1.692 13.898,0.546 15.407,-4.901 -6.686,-8.922 -18.504,-12.447 -22.576,-24.12 5.847,-1.92 9.881,-12.063 5.017,-18.466 -3.129,-0.776 -8.057,-2.699 -11.826,-1.885 -1.8,0.388 -2.705,3.25 -4.301,1.885 -0.5,-6.124 5.366,-12.631 3.943,-18.467 -6.913,11.277 -12.507,44.751 2.15,71.985 26.428,45.599 13.921,152.51 -23.651,142.839 1.373,-6.634 14.497,-39.239 6.091,-48.619 -3.262,13.568 -22.097,59.796 -53.017,47.125 14.834,-9.75 37.795,-58.954 30.67,-70.579 -10,39.668 -47,64.5 -68.318,44.937 27.318,-8.437 50.446,-57.405 49.815,-60.46 -5.099,4.31 -47.747,44.773 -61.247,24.273 16.116,-15.338 39.704,-27.298 42.252,-56.903 -2.091,2.882 -2.604,3.607 -4.252,6.341 -3.289,5.454 -14.416,17.02 -20.117,18.909 -6.401,2.122 -17.16,0.06 -18.634,-4.899 32.754,-18.213 46.67,-57.545 44.795,-58.417 -5.11,6.507 -14.812,13.37 -25.802,9.045 8.922,-9.245 29.005,-17.579 28.31,-49.748 -2.362,7.3 -3.08,14.291 -5.556,20.334 -6.482,15.818 -22.5,24.138 -25.084,29.583 3.177,3.538 13.012,2.503 17.023,2.093 -3.904,4.961 -9.243,10.298 -15.052,14.321 -13.96,9.669 -29.506,17.18 -52.321,15.829 -28.092,-5.002 -46.059,-21.788 -54.112,-46.734 -4.117,-12.754 -21.201,-38.754 -41.568,-26.758 -45.132,49.921 55.868,67.255 44.436,119.849 -14.903,-48.59 -89.094,-48.892 -71.647,-111.693 2.192,-7.892 23.583,-62.333 75.589,-7.402 2.807,2.965 8.637,8.359 12.542,7.536 -3.881,-3.135 -16.883,-10.217 -16.126,-25.25 4.076,1.533 12.493,9.533 18.276,4.9 -7.507,-5.928 -10.374,-18.733 -10.392,-31.28 3.841,1.361 5.934,4.56 10.392,5.275 2.883,-9.696 -9.867,-32.946 -36.552,-42.214 5.641,-7.273 13.731,-10.859 19.351,-18.089 5.586,-7.182 9.935,-14.988 12.901,-25.252 -1.785,-0.895 -3.59,0.341 -5.376,-0.755 -0.171,-4.023 3.146,-6.985 4.66,-10.926 3.547,-9.235 5.158,-24.746 0.716,-33.168 -1.403,-1.538 -5.737,-3.112 -7.904,-5.629 0.87,-2.075 1.108,-3.585 2.614,-4.056 4.649,0.409 15.01,14.792 17.832,14.209 0.887,-6.053 -12.9,-16.516 -16.353,-17.533 1.367,-1.703 2.651,-2.405 4.528,-3.571 10.212,2.679 17.015,18.662 18.993,18.465 -0.114,-6.997 -6.593,-10.789 -8.242,-15.45 4.592,-0.367 6.656,3.88 10.392,6.782 3.473,6.294 4.96,13.068 5.734,21.483 1.651,17.936 -7.16,33.374 -10.392,46.357 -0.836,3.356 -1.305,6.041 -2.509,9.044 -1.157,2.88 -2.764,5.788 -2.509,9.046 0.451,0.156 2.879,1.37 3.584,1.886 11.933,9.265 28.711,22.073 41.928,32.032 5.001,3.771 10.571,6.521 13.975,10.931 19.341,25.057 13.508,39.782 5.735,53.14 2.19,-0.499 21.856,-21.833 -3.943,-53.894 27.947,-4.029 40.882,-23.841 58.771,-38.442 3.835,-7.021 9.134,-12.505 14.693,-17.713 1.777,0.14 3.356,0.49 4.658,1.13 -1.219,3.992 -7.092,3.094 -8.241,7.16 6.879,3.392 26.629,16.096 32.251,25.252 -2.591,-14.361 -17.903,-18.605 -27.95,-26.38 1.659,-2.108 6.975,-3.068 6.448,-6.409 -0.686,-4.366 -13.602,-3.314 -17.918,-5.653 2.667,-6.114 11.028,-6.24 17.203,-8.67 -0.685,-3.422 -4.28,-3.791 -5.733,-6.408 9.115,-5.532 20.637,-9.313 26.877,-17.334 7.249,-9.325 11.097,-23.347 12.899,-38.444 -1.76,-2.293 -4.818,-3.222 -7.525,-4.519 0.151,-2.608 0.824,-4.662 1.792,-6.408 12.798,-1.797 23.173,-3.834 31.895,-9.423 3.928,-2.519 6.821,-6.038 12.9,-3.392 -0.803,3.485 -2.688,6.234 -5.375,7.915 -1.472,0.921 -4.427,0.447 -4.66,3.014 5.97,-0.175 10.623,-2.936 15.41,-6.407 4.184,-3.034 8.671,-9.659 11.468,-1.883 -4.226,4.726 -16.208,13.415 -15.41,15.074 3.414,0.273 17.057,-11.829 25.084,-13.568 2.083,-0.088 3.862,2.518 6.093,1.886 0.043,2.179 -1.571,2.618 -1.792,4.52 -7.521,6.104 -16.049,11.962 -26.517,14.7 -3.728,0.977 -8.052,0.937 -11.11,2.638 -2.558,1.425 -5.079,7.821 -6.091,10.929 -3.695,11.327 -8.163,24.284 -9.235,38.941 -3.181,-0.215 -4.828,-3.741 -7.608,-3.137 7.642,8.169 59.751,23.106 69.163,45.228 -6.471,-0.246 -14.861,-2.447 -20.786,-0.756 7.374,1.793 17.201,1.009 23.653,3.772 4.332,4.059 10.057,10.422 7.167,19.595 -4.947,-2.724 -11.154,-8.978 -17.56,-7.536 10.558,3.63 23.173,9.729 18.276,26.003 -3.889,-4.294 -19.181,-12.979 -22.934,-11.681 12.188,6.127 27.461,11.054 19.708,28.265 -5.555,-4.336 -10.664,-11.145 -19.352,-10.928 5.081,3.72 17.805,8.464 18.637,15.075 0.374,2.993 -1.778,5.815 -2.867,8.667 -2.746,-1.131 -2.355,-5.563 -6.094,-5.654 1.396,4.366 4.799,5.948 4.3,10.932 -0.618,6.202 -5.752,11.87 -3.582,18.845 0.769,2.468 8.938,10.699 11.107,13.189 -4.216,3.323 -12.507,7.715 -20.424,6.03 -2.537,-0.54 -4.196,-3.317 -6.809,-3.392 0.05,9.746 5.436,13.884 10.75,18.092 -3.899,1.643 -6.316,-2.313 -9.675,-1.132 1.414,6.429 5.488,10.056 10.751,12.436 -0.084,4.141 4.417,7.373 7.882,5.278 -2.309,-1.089 -5.557,-1.191 -6.092,-4.145 0.914,-1.051 3.502,-0.339 4.66,-1.133 -7.43,-1.104 -12.293,-4.91 -15.41,-10.552 3.484,0.711 8.458,1.803 11.468,0 -4.969,-4.204 -11.676,-8.931 -12.5,-16.241 10.083,6.917 23.429,-1.067 28.985,-7.126 6.038,-6.581 15.683,-17.878 24.368,-20.351 7.002,-1.995 14.557,6.879 14.691,8.669 -6.3,0.031 -12.553,0.114 -13.26,6.03 -6.813,1.374 -9.468,7.125 -12.54,12.438 4.105,2.602 13.966,2.632 17.56,-0.378 0.394,-1.721 0.602,-3.638 1.432,-4.9 5.166,-0.155 7.637,-3.679 11.467,-6.783 5.128,-4.155 9.668,-6.118 6.811,-14.698 5.277,3.339 11.014,11.535 9.676,21.105" /></g><g
       transform="translate(410.6406,250.7451)"
       id="g3505"
       style="fill:#666666;stroke:none;stroke-width:4;stroke-linecap:round;stroke-miterlimit:4;stroke-dasharray:none;stroke-opacity:1"><path
         inkscape:connector-curvature="0"
         id="path3507"
         style="fill:#666666;stroke:none;stroke-width:4;stroke-linecap:round;stroke-linejoin:miter;stroke-miterlimit:4;stroke-dasharray:none;stroke-opacity:1"
         d="M 0,0 C -0.211,-1.322 1.694,-1.238 0.718,-2.26 -4.256,-2.242 0.413,4.442 2.866,0.755 2.522,-0.972 0.78,1.114 0,0 Z m -22.577,21.107 c 0.523,0.553 2.347,0.553 2.868,0 1.38,-0.822 1.785,1.459 1.878,2.538 1.026,0.491 2.792,1.082 1.706,1.985 -0.422,0.736 -1.178,2.109 -0.359,3.016 3.101,-3.019 4.777,-7.541 6.809,-11.684 -3.782,-0.181 -9.247,1.972 -12.902,4.145 z m 41.93,-31.658 C 17.85,0.179 5.275,5.709 4.3,15.454 c -0.153,1.533 0.459,3.42 0.359,4.9 -0.316,4.666 -4.053,9.68 -6.809,12.813 -6.765,7.688 -23.522,19.597 -31.894,19.222 0.48,-4.145 1.352,-7.877 2.15,-11.683 0.335,-1.659 2.664,-1.22 2.509,-3.393 -1.785,0.132 -3.216,0.638 -3.942,1.884 -2.238,24.023 -16.391,41.136 -42.286,36.559 3.103,-1.096 8.451,-6.433 8.242,-9.8 -0.228,-3.636 -6.052,-5.499 -5.376,-8.291 17.282,2.659 8.013,-22.269 -1.792,-19.599 4.566,3.239 9.052,6.061 9.498,13.632 -17.907,-6.795 -34.809,-14.146 -44.976,-29.084 4.014,0.273 11.183,0.282 11.828,-2.638 0.941,-4.28 -9.32,-5.411 -13.619,-8.667 -2.228,-1.69 -4.155,-4.573 -5.015,-6.408 5.078,-1.692 13.898,0.546 15.407,-4.901 -6.686,-8.922 -18.504,-12.447 -22.576,-24.12 5.847,-1.92 9.881,-12.063 5.017,-18.466 -3.129,-0.776 -8.057,-2.699 -11.826,-1.885 -1.8,0.388 -2.705,3.25 -4.301,1.885 -0.5,-6.124 5.366,-12.631 3.943,-18.467 -6.913,11.277 -12.507,44.751 2.15,71.985 26.428,45.599 13.921,152.51 -23.651,142.839 1.373,-6.634 14.497,-39.239 6.091,-48.619 -3.262,13.568 -22.097,59.796 -53.017,47.125 14.834,-9.75 37.795,-58.954 30.67,-70.579 -10,39.668 -47,64.5 -68.318,44.937 27.318,-8.437 50.446,-57.405 49.815,-60.46 -5.099,4.31 -47.747,44.773 -61.247,24.273 16.116,-15.338 39.704,-27.298 42.252,-56.903 -2.091,2.882 -2.604,3.607 -4.252,6.341 -3.289,5.454 -14.416,17.02 -20.117,18.909 -6.401,2.122 -17.16,0.06 -18.634,-4.899 32.754,-18.213 46.67,-57.545 44.795,-58.417 -5.11,6.507 -14.812,13.37 -25.802,9.045 8.922,-9.245 29.005,-17.579 28.31,-49.748 -2.362,7.3 -3.08,14.291 -5.556,20.334 -6.482,15.818 -22.5,24.138 -25.084,29.583 3.177,3.538 13.012,2.503 17.023,2.093 -3.904,4.961 -9.243,10.298 -15.052,14.321 -13.96,9.669 -29.506,17.18 -52.321,15.829 -28.092,-5.002 -46.059,-21.788 -54.112,-46.734 -4.117,-12.754 -21.201,-38.754 -41.568,-26.758 -45.132,49.921 55.868,67.255 44.436,119.849 -14.903,-48.59 -89.094,-48.892 -71.647,-111.693 2.192,-7.892 23.583,-62.333 75.589,-7.402 2.807,2.965 8.637,8.359 12.542,7.536 -3.881,-3.135 -16.883,-10.217 -16.126,-25.25 4.076,1.533 12.493,9.533 18.276,4.9 -7.507,-5.928 -10.374,-18.733 -10.392,-31.28 3.841,1.361 5.934,4.56 10.392,5.275 2.883,-9.696 -9.867,-32.946 -36.552,-42.214 5.641,-7.273 13.731,-10.859 19.351,-18.089 5.586,-7.182 9.935,-14.988 12.901,-25.252 -1.785,-0.895 -3.59,0.341 -5.376,-0.755 -0.171,-4.023 3.146,-6.985 4.66,-10.926 3.547,-9.235 5.158,-24.746 0.716,-33.168 -1.403,-1.538 -5.737,-3.112 -7.904,-5.629 0.87,-2.075 1.108,-3.585 2.614,-4.056 4.649,0.409 15.01,14.792 17.832,14.209 0.887,-6.053 -12.9,-16.516 -16.353,-17.533 1.367,-1.703 2.651,-2.405 4.528,-3.571 10.212,2.679 17.015,18.662 18.993,18.465 -0.114,-6.997 -6.593,-10.789 -8.242,-15.45 4.592,-0.367 6.656,3.88 10.392,6.782 3.473,6.294 4.96,13.068 5.734,21.483 1.651,17.936 -7.16,33.374 -10.392,46.357 -0.836,3.356 -1.305,6.041 -2.509,9.044 -1.157,2.88 -2.764,5.788 -2.509,9.046 0.451,0.156 2.879,1.37 3.584,1.886 11.933,9.265 28.711,22.073 41.928,32.032 5.001,3.771 10.571,6.521 13.975,10.931 19.341,25.057 13.508,39.782 5.735,53.14 2.19,-0.499 21.856,-21.833 -3.943,-53.894 27.947,-4.029 40.882,-23.841 58.771,-38.442 3.835,-7.021 9.134,-12.505 14.693,-17.713 1.777,0.14 3.356,0.49 4.658,1.13 -1.219,3.992 -7.092,3.094 -8.241,7.16 6.879,3.392 26.629,16.096 32.251,25.252 -2.591,-14.361 -17.903,-18.605 -27.95,-26.38 1.659,-2.108 6.975,-3.068 6.448,-6.409 -0.686,-4.366 -13.602,-3.314 -17.918,-5.653 2.667,-6.114 11.028,-6.24 17.203,-8.67 -0.685,-3.422 -4.28,-3.791 -5.733,-6.408 9.115,-5.532 20.637,-9.313 26.877,-17.334 7.249,-9.325 11.097,-23.347 12.899,-38.444 -1.76,-2.293 -4.818,-3.222 -7.525,-4.519 0.151,-2.608 0.824,-4.662 1.792,-6.408 12.798,-1.797 23.173,-3.834 31.895,-9.423 3.928,-2.519 6.821,-6.038 12.9,-3.392 -0.803,3.485 -2.688,6.234 -5.375,7.915 -1.472,0.921 -4.427,0.447 -4.66,3.014 5.97,-0.175 10.623,-2.936 15.41,-6.407 4.184,-3.034 8.671,-9.659 11.468,-1.883 -4.226,4.726 -16.208,13.415 -15.41,15.074 3.414,0.273 17.057,-11.829 25.084,-13.568 2.083,-0.088 3.862,2.518 6.093,1.886 0.043,2.179 -1.571,2.618 -1.792,4.52 -7.521,6.104 -16.049,11.962 -26.517,14.7 -3.728,0.977 -8.052,0.937 -11.11,2.638 -2.558,1.425 -5.079,7.821 -6.091,10.929 -3.695,11.327 -8.163,24.284 -9.235,38.941 -3.181,-0.215 -4.828,-3.741 -7.608,-3.137 7.642,8.169 59.751,23.106 69.163,45.228 -6.471,-0.246 -14.861,-2.447 -20.786,-0.756 7.374,1.793 17.201,1.009 23.653,3.772 4.332,4.059 10.057,10.422 7.167,19.595 -4.947,-2.724 -11.154,-8.978 -17.56,-7.536 10.558,3.63 23.173,9.729 18.276,26.003 -3.889,-4.294 -19.181,-12.979 -22.934,-11.681 12.188,6.127 27.461,11.054 19.708,28.265 -5.555,-4.336 -10.664,-11.145 -19.352,-10.928 5.081,3.72 17.805,8.464 18.637,15.075 0.374,2.993 -1.778,5.815 -2.867,8.667 -2.746,-1.131 -2.355,-5.563 -6.094,-5.654 1.396,4.366 4.799,5.948 4.3,10.932 -0.618,6.202 -5.752,11.87 -3.582,18.845 0.769,2.468 8.938,10.699 11.107,13.189 -4.216,3.323 -12.507,7.715 -20.424,6.03 -2.537,-0.54 -4.196,-3.317 -6.809,-3.392 0.05,9.746 5.436,13.884 10.75,18.092 -3.899,1.643 -6.316,-2.313 -9.675,-1.132 1.414,6.429 5.488,10.056 10.751,12.436 -0.084,4.141 4.417,7.373 7.882,5.278 -2.309,-1.089 -5.557,-1.191 -6.092,-4.145 0.914,-1.051 3.502,-0.339 4.66,-1.133 -7.43,-1.104 -12.293,-4.91 -15.41,-10.552 3.484,0.711 8.458,1.803 11.468,0 -4.969,-4.204 -11.676,-8.931 -12.5,-16.241 10.083,6.917 23.429,-1.067 28.985,-7.126 6.038,-6.581 15.683,-17.878 24.368,-20.351 7.002,-1.995 14.557,6.879 14.691,8.669 -6.3,0.031 -12.553,0.114 -13.26,6.03 -6.813,1.374 -9.468,7.125 -12.54,12.438 4.105,2.602 13.966,2.632 17.56,-0.378 0.394,-1.721 0.602,-3.638 1.432,-4.9 5.166,-0.155 7.637,-3.679 11.467,-6.783 5.128,-4.155 9.668,-6.118 6.811,-14.698 5.277,3.339 11.014,11.535 9.676,21.105 z" /></g><g
       transform="translate(57.0576,367.6523)"
       id="g3509"
       style="fill:#666666;stroke:none;stroke-width:4;stroke-linecap:round;stroke-miterlimit:4;stroke-dasharray:none;stroke-opacity:1"><path
         inkscape:connector-curvature="0"
         id="path3511"
         style="fill:#666666;fill-opacity:1;fill-rule:evenodd;stroke:none;stroke-width:4;stroke-linecap:round;stroke-miterlimit:4;stroke-dasharray:none;stroke-opacity:1"
         d="m 0,0 c 11.708,-0.169 24.142,-8.577 29.745,-18.467 4.529,-7.996 5.358,-20.534 -0.717,-29.397 -10.924,14.343 -5.861,22.218 -12.543,28.266 C 16.148,-23.222 21.979,-42.459 0.718,-47.11 15.042,-24.584 4.667,-6.771 0,0" /></g><g
       transform="translate(57.0576,367.6523)"
       id="g3513"
       style="fill:#666666;stroke:none;stroke-width:4;stroke-linecap:round;stroke-miterlimit:4;stroke-dasharray:none;stroke-opacity:1"><path
         inkscape:connector-curvature="0"
         id="path3515"
         style="fill:#666666;stroke:none;stroke-width:4;stroke-linecap:round;stroke-linejoin:miter;stroke-miterlimit:4;stroke-dasharray:none;stroke-opacity:1"
         d="m 0,0 c 11.708,-0.169 24.142,-8.577 29.745,-18.467 4.529,-7.996 5.358,-20.534 -0.717,-29.397 -10.924,14.343 -5.861,22.218 -12.543,28.266 C 16.148,-23.222 21.979,-42.459 0.718,-47.11 15.042,-24.584 4.667,-6.771 0,0 Z" /></g><g
       transform="translate(393.0068,299.7417)"
       id="g3517"
       style="fill:#666666;stroke:none;stroke-width:4;stroke-linecap:round;stroke-miterlimit:4;stroke-dasharray:none;stroke-opacity:1"><path
         inkscape:connector-curvature="0"
         id="path3519"
         style="fill:#666666;fill-opacity:1;fill-rule:evenodd;stroke:none;stroke-width:4;stroke-linecap:round;stroke-miterlimit:4;stroke-dasharray:none;stroke-opacity:1"
         d="m 0,0 c -4.932,1.111 -9.152,6.194 -16.845,5.654 -2.688,7.598 -6.918,13.577 -12.899,17.713 0.941,2.11 -0.611,3.871 -0.718,6.03 3.264,1.111 6.051,-1.384 10.034,-0.754 C -10.274,22.849 -2.126,12.984 0,0" /></g><g
       transform="translate(393.0068,299.7417)"
       id="g3521"
       style="fill:#666666;stroke:none;stroke-width:4;stroke-linecap:round;stroke-miterlimit:4;stroke-dasharray:none;stroke-opacity:1"><path
         inkscape:connector-curvature="0"
         id="path3523"
         style="fill:#666666;stroke:none;stroke-width:4;stroke-linecap:round;stroke-linejoin:miter;stroke-miterlimit:4;stroke-dasharray:none;stroke-opacity:1"
         d="m 0,0 c -4.932,1.111 -9.152,6.194 -16.845,5.654 -2.688,7.598 -6.918,13.577 -12.899,17.713 0.941,2.11 -0.611,3.871 -0.718,6.03 3.264,1.111 6.051,-1.384 10.034,-0.754 C -10.274,22.849 -2.126,12.984 0,0 Z" /></g><g
       transform="translate(205.8037,57.6934)"
       id="g3525"
       style="fill:#666666;stroke:none;stroke-width:4;stroke-linecap:round;stroke-miterlimit:4;stroke-dasharray:none;stroke-opacity:1"><path
         inkscape:connector-curvature="0"
         id="path3527"
         style="fill:#666666;fill-opacity:1;fill-rule:evenodd;stroke:none;stroke-width:4;stroke-linecap:round;stroke-miterlimit:4;stroke-dasharray:none;stroke-opacity:1"
         d="m 0,0 c 8.022,1.02 20.04,-7.88 22.075,-8.204 0.947,0.634 0.907,2.308 1.433,3.391 C 16.065,0.114 7.717,5.742 -3.369,5.364 -8.934,5.175 -15.882,3.362 -22.004,4.987 c -1.666,0.443 -5.063,2.756 -5.734,4.524 -5.174,13.642 -17.457,43.445 -17.917,44.093 14.384,11.256 27.419,23.929 36.552,40.707 -8.973,7.646 -20.202,12.924 -34.044,15.451 -5.96,-7.983 -17.506,-10.408 -23.292,-18.844 -1.329,-1.935 -1.311,-4.165 -2.152,-6.407 -1.779,-4.746 -5.652,-8.202 -6.808,-12.815 0.621,-1.609 3.549,-0.79 3.943,-2.636 -3.357,-4.134 -9.227,-5.627 -12.902,-9.421 12.765,-7.736 21.799,-24.525 27.235,-41.458 2.521,-7.86 7.776,-16.386 3.942,-22.994 3.943,-1.506 6.543,-4.425 7.526,-9.044 11.6,-0.235 22.541,-1.167 29.026,-6.786 2.08,1.709 4.816,2.728 8.96,2.261 0.017,2.933 -10.322,6.911 -10.393,9.424 5.158,1.713 21.373,-10.248 25.444,-11.685 1.274,1.051 3.181,1.43 3.943,3.016 -11.154,9.866 -17.409,10.618 -22.22,14.323 11.148,-0.613 19.148,-11.28 27.815,-14.404 1.271,1.174 3.766,2.772 4.551,4.457 C 16.025,-7.798 15.16,-7.05 7.667,-3.5 4.5,-2 2.304,-2.129 0,0" /></g><g
       transform="translate(205.8037,57.6934)"
       id="g3529"
       style="fill:#666666;stroke:none;stroke-width:4;stroke-linecap:round;stroke-miterlimit:4;stroke-dasharray:none;stroke-opacity:1"><path
         inkscape:connector-curvature="0"
         id="path3531"
         style="fill:#666666;stroke:none;stroke-width:4;stroke-linecap:round;stroke-linejoin:miter;stroke-miterlimit:4;stroke-dasharray:none;stroke-opacity:1"
         d="m 0,0 c 8.022,1.02 20.04,-7.88 22.075,-8.204 0.947,0.634 0.907,2.308 1.433,3.391 C 16.065,0.114 7.717,5.742 -3.369,5.364 -8.934,5.175 -15.882,3.362 -22.004,4.987 c -1.666,0.443 -5.063,2.756 -5.734,4.524 -5.174,13.642 -17.457,43.445 -17.917,44.093 14.384,11.256 27.419,23.929 36.552,40.707 -8.973,7.646 -20.202,12.924 -34.044,15.451 -5.96,-7.983 -17.506,-10.408 -23.292,-18.844 -1.329,-1.935 -1.311,-4.165 -2.152,-6.407 -1.779,-4.746 -5.652,-8.202 -6.808,-12.815 0.621,-1.609 3.549,-0.79 3.943,-2.636 -3.357,-4.134 -9.227,-5.627 -12.902,-9.421 12.765,-7.736 21.799,-24.525 27.235,-41.458 2.521,-7.86 7.776,-16.386 3.942,-22.994 3.943,-1.506 6.543,-4.425 7.526,-9.044 11.6,-0.235 22.541,-1.167 29.026,-6.786 2.08,1.709 4.816,2.728 8.96,2.261 0.017,2.933 -10.322,6.911 -10.393,9.424 5.158,1.713 21.373,-10.248 25.444,-11.685 1.274,1.051 3.181,1.43 3.943,3.016 -11.154,9.866 -17.409,10.618 -22.22,14.323 11.148,-0.613 19.148,-11.28 27.815,-14.404 1.271,1.174 3.766,2.772 4.551,4.457 C 16.025,-7.798 15.16,-7.05 7.667,-3.5 4.5,-2 2.304,-2.129 0,0 Z" /></g><g
       transform="translate(142.6318,40.0908)"
       id="g3533"
       style="fill:#666666;stroke:none;stroke-width:4;stroke-linecap:round;stroke-miterlimit:4;stroke-dasharray:none;stroke-opacity:1"><path
         inkscape:connector-curvature="0"
         id="path3535"
         style="fill:#666666;fill-opacity:1;fill-rule:evenodd;stroke:none;stroke-width:4;stroke-linecap:round;stroke-miterlimit:4;stroke-dasharray:none;stroke-opacity:1"
         d="M 0,0 C 0.674,2.269 8.424,11.301 8.424,11.301 14.624,9.212 15.572,3.487 15.572,3.487 10.243,1.569 3.548,0.299 0,0" /></g><g
       transform="translate(142.6318,40.0908)"
       id="g3537"
       style="fill:#666666;stroke:none;stroke-width:4;stroke-linecap:round;stroke-miterlimit:4;stroke-dasharray:none;stroke-opacity:1"><path
         inkscape:connector-curvature="0"
         id="path3539"
         style="fill:#666666;stroke:none;stroke-width:4;stroke-linecap:round;stroke-linejoin:miter;stroke-miterlimit:4;stroke-dasharray:none;stroke-opacity:1"
         d="M 0,0 C 0.674,2.269 8.424,11.301 8.424,11.301 14.624,9.212 15.572,3.487 15.572,3.487 10.243,1.569 3.548,0.299 0,0 Z" /></g><g
       transform="translate(190.8794,35.251)"
       id="g3541"
       style="fill:#666666;stroke:none;stroke-width:4;stroke-linecap:round;stroke-miterlimit:4;stroke-dasharray:none;stroke-opacity:1"><path
         inkscape:connector-curvature="0"
         id="path3543"
         style="fill:#666666;fill-opacity:1;fill-rule:evenodd;stroke:none;stroke-width:4;stroke-linecap:round;stroke-miterlimit:4;stroke-dasharray:none;stroke-opacity:1"
         d="m 0,0 c 2.177,-1.156 5.798,-6.55 8.126,-8.083 0.085,0 0.006,6.608 -0.7,10.268 C 4.761,2.217 3.177,1.358 0,0" /></g><g
       transform="translate(190.8794,35.251)"
       id="g3545"
       style="fill:#666666;stroke:none;stroke-width:4;stroke-linecap:round;stroke-miterlimit:4;stroke-dasharray:none;stroke-opacity:1"><path
         inkscape:connector-curvature="0"
         id="path3547"
         style="fill:#666666;stroke:none;stroke-width:4;stroke-linecap:round;stroke-linejoin:miter;stroke-miterlimit:4;stroke-dasharray:none;stroke-opacity:1"
         d="m 0,0 c 2.177,-1.156 5.798,-6.55 8.126,-8.083 0.085,0 0.006,6.608 -0.7,10.268 C 4.761,2.217 3.177,1.358 0,0 Z" /></g><g
       transform="translate(215.2354,35.4668)"
       id="g3549"
       style="fill:#666666;stroke:none;stroke-width:4;stroke-linecap:round;stroke-miterlimit:4;stroke-dasharray:none;stroke-opacity:1"><path
         inkscape:connector-curvature="0"
         id="path3551"
         style="fill:#666666;fill-opacity:1;fill-rule:evenodd;stroke:none;stroke-width:4;stroke-linecap:round;stroke-miterlimit:4;stroke-dasharray:none;stroke-opacity:1"
         d="M 0,0 C 0.878,-0.776 4.912,-4.161 5.438,-4.153 6.071,-3.165 3.89,2.454 3.827,2.617 2.748,1.897 1.483,0.898 0,0" /></g><g
       transform="translate(215.2354,35.4668)"
       id="g3553"
       style="fill:#666666;stroke:none;stroke-width:4;stroke-linecap:round;stroke-miterlimit:4;stroke-dasharray:none;stroke-opacity:1"><path
         inkscape:connector-curvature="0"
         id="path3555"
         style="fill:#666666;stroke:none;stroke-width:4;stroke-linecap:round;stroke-linejoin:miter;stroke-miterlimit:4;stroke-dasharray:none;stroke-opacity:1"
         d="M 0,0 C 0.878,-0.776 4.912,-4.161 5.438,-4.153 6.071,-3.165 3.89,2.454 3.827,2.617 2.748,1.897 1.483,0.898 0,0 Z" /></g><g
       transform="translate(224.5244,38.9043)"
       id="g3557"
       style="fill:#666666;stroke:none;stroke-width:4;stroke-linecap:round;stroke-miterlimit:4;stroke-dasharray:none;stroke-opacity:1"><path
         inkscape:connector-curvature="0"
         id="path3559"
         style="fill:#666666;fill-opacity:1;fill-rule:evenodd;stroke:none;stroke-width:4;stroke-linecap:round;stroke-miterlimit:4;stroke-dasharray:none;stroke-opacity:1"
         d="M 0,0 C 0.138,-0.108 4.221,-3.521 6.619,-5.227 7.148,-5.122 5.368,-0.378 3.674,3.586 2.771,2.771 2.037,1.798 0,0" /></g><g
       transform="translate(224.5244,38.9043)"
       id="g3561"
       style="fill:#666666;stroke:none;stroke-width:4;stroke-linecap:round;stroke-miterlimit:4;stroke-dasharray:none;stroke-opacity:1"><path
         inkscape:connector-curvature="0"
         id="path3563"
         style="fill:#666666;stroke:none;stroke-width:4;stroke-linecap:round;stroke-linejoin:miter;stroke-miterlimit:4;stroke-dasharray:none;stroke-opacity:1"
         d="M 0,0 C 0.138,-0.108 4.221,-3.521 6.619,-5.227 7.148,-5.122 5.368,-0.378 3.674,3.586 2.771,2.771 2.037,1.798 0,0 Z" /></g><g
       transform="translate(229.8926,48.2725)"
       id="g3565"
       style="fill:#666666;stroke:none;stroke-width:4;stroke-linecap:round;stroke-miterlimit:4;stroke-dasharray:none;stroke-opacity:1"><path
         inkscape:connector-curvature="0"
         id="path3567"
         style="fill:#666666;fill-opacity:1;fill-rule:evenodd;stroke:none;stroke-width:4;stroke-linecap:round;stroke-miterlimit:4;stroke-dasharray:none;stroke-opacity:1"
         d="M 0,0 C 0.884,-0.665 3,-2.458 4.959,-2.873 4.75,-0.792 1.655,2.64 1.002,3.367 0.5,1.869 0.723,0.917 0,0" /></g><g
       transform="translate(229.8926,48.2725)"
       id="g3569"
       style="fill:#666666;stroke:none;stroke-width:4;stroke-linecap:round;stroke-miterlimit:4;stroke-dasharray:none;stroke-opacity:1"><path
         inkscape:connector-curvature="0"
         id="path3571"
         style="fill:#666666;stroke:none;stroke-width:4;stroke-linecap:round;stroke-linejoin:miter;stroke-miterlimit:4;stroke-dasharray:none;stroke-opacity:1"
         d="M 0,0 C 0.884,-0.665 3,-2.458 4.959,-2.873 4.75,-0.792 1.655,2.64 1.002,3.367 0.5,1.869 0.723,0.917 0,0 Z" /></g><g
       transform="translate(79.6704,38.9932)"
       id="g3573"
       style="fill:#666666;stroke:none;stroke-width:4;stroke-linecap:round;stroke-miterlimit:4;stroke-dasharray:none;stroke-opacity:1"><path
         inkscape:connector-curvature="0"
         id="path3575"
         style="fill:#666666;fill-opacity:1;fill-rule:evenodd;stroke:none;stroke-width:4;stroke-linecap:round;stroke-miterlimit:4;stroke-dasharray:none;stroke-opacity:1"
         d="M 0,0 C 1.753,-1.296 1.953,-3.188 2.453,-4.27 -3.1,-5.397 -5.962,-3.493 -6.738,-3.178 -6.624,-1.914 -2.143,-2.312 0,0" /></g><g
       transform="translate(79.6704,38.9932)"
       id="g3577"
       style="fill:#666666;stroke:none;stroke-width:4;stroke-linecap:round;stroke-miterlimit:4;stroke-dasharray:none;stroke-opacity:1"><path
         inkscape:connector-curvature="0"
         id="path3579"
         style="fill:#666666;stroke:none;stroke-width:4;stroke-linecap:round;stroke-linejoin:miter;stroke-miterlimit:4;stroke-dasharray:none;stroke-opacity:1"
         d="M 0,0 C 1.753,-1.296 1.953,-3.188 2.453,-4.27 -3.1,-5.397 -5.962,-3.493 -6.738,-3.178 -6.624,-1.914 -2.143,-2.312 0,0 Z" /></g><g
       transform="translate(90.0557,54.5898)"
       id="g3581"
       style="fill:#666666;stroke:none;stroke-width:4;stroke-linecap:round;stroke-miterlimit:4;stroke-dasharray:none;stroke-opacity:1"><path
         inkscape:connector-curvature="0"
         id="path3583"
         style="fill:#666666;fill-opacity:1;fill-rule:evenodd;stroke:none;stroke-width:4;stroke-linecap:round;stroke-miterlimit:4;stroke-dasharray:none;stroke-opacity:1"
         d="m 0,0 c -2.241,-1.478 -4.199,-4.417 -10.125,-8.539 2.426,-1.816 5.972,-0.883 8.352,0.933 C 0.187,-4.613 1.586,-0.734 0,0" /></g><g
       transform="translate(90.0557,54.5898)"
       id="g3585"
       style="fill:#666666;stroke:none;stroke-width:4;stroke-linecap:round;stroke-miterlimit:4;stroke-dasharray:none;stroke-opacity:1"><path
         inkscape:connector-curvature="0"
         id="path3587"
         style="fill:#666666;stroke:none;stroke-width:4;stroke-linecap:round;stroke-linejoin:miter;stroke-miterlimit:4;stroke-dasharray:none;stroke-opacity:1"
         d="m 0,0 c -2.241,-1.478 -4.199,-4.417 -10.125,-8.539 2.426,-1.816 5.972,-0.883 8.352,0.933 C 0.187,-4.613 1.586,-0.734 0,0 Z" /></g><g
       transform="translate(84.6392,31.6084)"
       id="g3589"
       style="fill:#666666;stroke:none;stroke-width:4;stroke-linecap:round;stroke-miterlimit:4;stroke-dasharray:none;stroke-opacity:1"><path
         inkscape:connector-curvature="0"
         id="path3591"
         style="fill:#666666;fill-opacity:1;fill-rule:evenodd;stroke:none;stroke-width:4;stroke-linecap:round;stroke-miterlimit:4;stroke-dasharray:none;stroke-opacity:1"
         d="M 0,0 C 1.086,-1.246 3.271,-3.224 4.625,-4.009 3,-4.833 -1.248,-4.079 -3.917,-4.283 -3.083,-2.93 -2.083,-1.417 0,0" /></g><g
       transform="translate(84.6392,31.6084)"
       id="g3593"
       style="fill:#666666;stroke:none;stroke-width:4;stroke-linecap:round;stroke-miterlimit:4;stroke-dasharray:none;stroke-opacity:1"><path
         inkscape:connector-curvature="0"
         id="path3595"
         style="fill:#666666;stroke:none;stroke-width:4;stroke-linecap:round;stroke-linejoin:miter;stroke-miterlimit:4;stroke-dasharray:none;stroke-opacity:1"
         d="M 0,0 C 1.086,-1.246 3.271,-3.224 4.625,-4.009 3,-4.833 -1.248,-4.079 -3.917,-4.283 -3.083,-2.93 -2.083,-1.417 0,0 Z" /></g><g
       transform="translate(268.4971,31.3447)"
       id="g3597"
       style="fill:#666666;stroke:none;stroke-width:4;stroke-linecap:round;stroke-miterlimit:4;stroke-dasharray:none;stroke-opacity:1"><path
         inkscape:connector-curvature="0"
         id="path3599"
         style="fill:#666666;fill-opacity:1;fill-rule:evenodd;stroke:none;stroke-width:4;stroke-linecap:round;stroke-miterlimit:4;stroke-dasharray:none;stroke-opacity:1"
         d="M 0,0 C 0.695,-1.387 0.132,-3.156 1.392,-5.465 -1.522,-5.007 -5.939,-5.912 -12.46,-10.014 -9.355,-7.746 -7.105,-1.412 0,0" /></g><g
       transform="translate(268.4971,31.3447)"
       id="g3601"
       style="fill:#666666;stroke:none;stroke-width:4;stroke-linecap:round;stroke-miterlimit:4;stroke-dasharray:none;stroke-opacity:1"><path
         inkscape:connector-curvature="0"
         id="path3603"
         style="fill:#666666;stroke:none;stroke-width:4;stroke-linecap:round;stroke-linejoin:miter;stroke-miterlimit:4;stroke-dasharray:none;stroke-opacity:1"
         d="M 0,0 C 0.695,-1.387 0.132,-3.156 1.392,-5.465 -1.522,-5.007 -5.939,-5.912 -12.46,-10.014 -9.355,-7.746 -7.105,-1.412 0,0 Z" /></g><g
       transform="translate(317.8525,11.6699)"
       id="g3605"
       style="fill:#666666;stroke:none;stroke-width:4;stroke-linecap:round;stroke-miterlimit:4;stroke-dasharray:none;stroke-opacity:1"><path
         inkscape:connector-curvature="0"
         id="path3607"
         style="fill:#666666;fill-opacity:1;fill-rule:evenodd;stroke:none;stroke-width:4;stroke-linecap:round;stroke-miterlimit:4;stroke-dasharray:none;stroke-opacity:1"
         d="M 0,0 C 1.587,-1.619 2.611,-6.583 2.477,-7.675 2.342,-8.768 2.356,-9.704 1.637,-10.424 0.891,-10.473 -1.115,-3.798 -5.456,-1.146 -3.87,-1.492 -0.979,-0.735 0,0" /></g><g
       transform="translate(317.8525,11.6699)"
       id="g3609"
       style="fill:#666666;stroke:none;stroke-width:4;stroke-linecap:round;stroke-miterlimit:4;stroke-dasharray:none;stroke-opacity:1"><path
         inkscape:connector-curvature="0"
         id="path3611"
         style="fill:#666666;stroke:none;stroke-width:4;stroke-linecap:round;stroke-linejoin:miter;stroke-miterlimit:4;stroke-dasharray:none;stroke-opacity:1"
         d="M 0,0 C 1.587,-1.619 2.611,-6.583 2.477,-7.675 2.342,-8.768 2.356,-9.704 1.637,-10.424 0.891,-10.473 -1.115,-3.798 -5.456,-1.146 -3.87,-1.492 -0.979,-0.735 0,0 Z" /></g><g
       transform="translate(335.2607,14.5947)"
       id="g3613"
       style="fill:#666666;stroke:none;stroke-width:4;stroke-linecap:round;stroke-miterlimit:4;stroke-dasharray:none;stroke-opacity:1"><path
         inkscape:connector-curvature="0"
         id="path3615"
         style="fill:#666666;fill-opacity:1;fill-rule:evenodd;stroke:none;stroke-width:4;stroke-linecap:round;stroke-miterlimit:4;stroke-dasharray:none;stroke-opacity:1"
         d="m 0,0 c 0,-1.423 -2.474,-4.661 -3.779,-4.467 1.399,-1.973 3.546,-8.537 4.478,-8.096 0.967,1.668 0.42,6.872 0.607,10.272 C 0.634,-1.194 0.193,-0.941 0,0" /></g><g
       transform="translate(335.2607,14.5947)"
       id="g3617"
       style="fill:#666666;stroke:none;stroke-width:4;stroke-linecap:round;stroke-miterlimit:4;stroke-dasharray:none;stroke-opacity:1"><path
         inkscape:connector-curvature="0"
         id="path3619"
         style="fill:#666666;stroke:none;stroke-width:4;stroke-linecap:round;stroke-linejoin:miter;stroke-miterlimit:4;stroke-dasharray:none;stroke-opacity:1"
         d="m 0,0 c 0,-1.423 -2.474,-4.661 -3.779,-4.467 1.399,-1.973 3.546,-8.537 4.478,-8.096 0.967,1.668 0.42,6.872 0.607,10.272 C 0.634,-1.194 0.193,-0.941 0,0 Z" /></g><g
       transform="translate(350.8164,17.7051)"
       id="g3621"
       style="fill:#666666;stroke:none;stroke-width:4;stroke-linecap:round;stroke-miterlimit:4;stroke-dasharray:none;stroke-opacity:1"><path
         inkscape:connector-curvature="0"
         id="path3623"
         style="fill:#666666;fill-opacity:1;fill-rule:evenodd;stroke:none;stroke-width:4;stroke-linecap:round;stroke-miterlimit:4;stroke-dasharray:none;stroke-opacity:1"
         d="M 0,0 C -2.171,0.98 -4.542,-0.657 -5.041,-1.507 -1.868,-5.17 1.672,-6.828 2.667,-7.22 3.663,-7.614 0.744,-2.685 0,0" /></g><g
       transform="translate(350.8164,17.7051)"
       id="g3625"
       style="fill:#666666;stroke:none;stroke-width:4;stroke-linecap:round;stroke-miterlimit:4;stroke-dasharray:none;stroke-opacity:1"><path
         inkscape:connector-curvature="0"
         id="path3627"
         style="fill:#666666;stroke:none;stroke-width:4;stroke-linecap:round;stroke-linejoin:miter;stroke-miterlimit:4;stroke-dasharray:none;stroke-opacity:1"
         d="M 0,0 C -2.171,0.98 -4.542,-0.657 -5.041,-1.507 -1.868,-5.17 1.672,-6.828 2.667,-7.22 3.663,-7.614 0.744,-2.685 0,0 Z" /></g><g
       transform="translate(347.9277,119.5908)"
       id="g3629"
       style="fill:#666666;stroke:none;stroke-width:4;stroke-linecap:round;stroke-miterlimit:4;stroke-dasharray:none;stroke-opacity:1"><path
         inkscape:connector-curvature="0"
         id="path3631"
         style="fill:#666666;fill-opacity:1;fill-rule:evenodd;stroke:none;stroke-width:4;stroke-linecap:round;stroke-miterlimit:4;stroke-dasharray:none;stroke-opacity:1"
         d="m 0,0 c 0.442,-7.374 -2.666,-14.281 -3.942,-21.105 11.581,-8.241 27.921,-20.948 29.745,-39.952 1.284,-13.384 -6.536,-22.497 -12.901,-29.394 -1.899,0.012 -1.395,2.55 -2.51,3.392 7.012,4.309 8.345,14.588 8.96,25.625 -0.823,0.821 -3.262,-22.422 -10.47,-24.422 -1.459,1.541 -2.058,2.086 -4.267,3.13 9.892,8.661 9.097,23.243 7.211,23.555 -0.371,-10.291 -3.048,-18.154 -8.958,-22.612 -1.449,0.486 -1.854,2.069 -2.868,3.013 2.576,6.65 5.753,16.124 1.076,22.615 -8.097,6.084 -18.106,25.046 -32.252,14.319 0.403,4.728 3.307,6.822 3.583,11.684 -2.257,1.387 -5.284,-0.929 -8.242,-0.375 1.408,4.547 4.715,7.1 5.375,12.437 C -19.536,-12.869 -8.235,-8.049 0,0" /></g><g
       transform="translate(347.9277,119.5908)"
       id="g3633"
       style="fill:#666666;stroke:none;stroke-width:4;stroke-linecap:round;stroke-miterlimit:4;stroke-dasharray:none;stroke-opacity:1"><path
         inkscape:connector-curvature="0"
         id="path3635"
         style="fill:#666666;stroke:none;stroke-width:4;stroke-linecap:round;stroke-linejoin:miter;stroke-miterlimit:4;stroke-dasharray:none;stroke-opacity:1"
         d="m 0,0 c 0.442,-7.374 -2.666,-14.281 -3.942,-21.105 11.581,-8.241 27.921,-20.948 29.745,-39.952 1.284,-13.384 -6.536,-22.497 -12.901,-29.394 -1.899,0.012 -1.395,2.55 -2.51,3.392 7.012,4.309 8.345,14.588 8.96,25.625 -0.823,0.821 -3.262,-22.422 -10.47,-24.422 -1.459,1.541 -2.058,2.086 -4.267,3.13 9.892,8.661 9.097,23.243 7.211,23.555 -0.371,-10.291 -3.048,-18.154 -8.958,-22.612 -1.449,0.486 -1.854,2.069 -2.868,3.013 2.576,6.65 5.753,16.124 1.076,22.615 -8.097,6.084 -18.106,25.046 -32.252,14.319 0.403,4.728 3.307,6.822 3.583,11.684 -2.257,1.387 -5.284,-0.929 -8.242,-0.375 1.408,4.547 4.715,7.1 5.375,12.437 C -19.536,-12.869 -8.235,-8.049 0,0 Z" /></g><g
       transform="translate(356.3926,31.1943)"
       id="g3637"
       style="fill:#666666;stroke:none;stroke-width:4;stroke-linecap:round;stroke-miterlimit:4;stroke-dasharray:none;stroke-opacity:1"><path
         inkscape:connector-curvature="0"
         id="path3639"
         style="fill:#666666;fill-opacity:1;fill-rule:evenodd;stroke:none;stroke-width:4;stroke-linecap:round;stroke-miterlimit:4;stroke-dasharray:none;stroke-opacity:1"
         d="m 0,0 c 0.821,-0.828 1.542,-1.847 2.167,-2.959 -1.833,-0.875 -4.847,-1 -6.5,-1 C -2.947,-2.4 -2.37,-0.521 0,0" /></g><g
       transform="translate(356.3926,31.1943)"
       id="g3641"
       style="fill:#666666;stroke:none;stroke-width:4;stroke-linecap:round;stroke-miterlimit:4;stroke-dasharray:none;stroke-opacity:1"><path
         inkscape:connector-curvature="0"
         id="path3643"
         style="fill:#666666;stroke:none;stroke-width:4;stroke-linecap:round;stroke-linejoin:miter;stroke-miterlimit:4;stroke-dasharray:none;stroke-opacity:1"
         d="m 0,0 c 0.821,-0.828 1.542,-1.847 2.167,-2.959 -1.833,-0.875 -4.847,-1 -6.5,-1 C -2.947,-2.4 -2.37,-0.521 0,0 Z" /></g><g
       transform="translate(351.3926,35.3818)"
       id="g3645"
       style="fill:#666666;stroke:none;stroke-width:4;stroke-linecap:round;stroke-miterlimit:4;stroke-dasharray:none;stroke-opacity:1"><path
         inkscape:connector-curvature="0"
         id="path3647"
         style="fill:#666666;fill-opacity:1;fill-rule:evenodd;stroke:none;stroke-width:4;stroke-linecap:round;stroke-miterlimit:4;stroke-dasharray:none;stroke-opacity:1"
         d="m 0,0 c 0.821,-0.828 2.833,-1.575 3.458,-2.688 -1.833,-0.875 -5.347,-1.5 -7,-1.5 C -2.156,-2.629 -2.37,-0.521 0,0" /></g><g
       transform="translate(351.3926,35.3818)"
       id="g3649"
       style="fill:#666666;stroke:none;stroke-width:4;stroke-linecap:round;stroke-miterlimit:4;stroke-dasharray:none;stroke-opacity:1"><path
         inkscape:connector-curvature="0"
         id="path3651"
         style="fill:#666666;stroke:none;stroke-width:4;stroke-linecap:round;stroke-linejoin:miter;stroke-miterlimit:4;stroke-dasharray:none;stroke-opacity:1"
         d="m 0,0 c 0.821,-0.828 2.833,-1.575 3.458,-2.688 -1.833,-0.875 -5.347,-1.5 -7,-1.5 C -2.156,-2.629 -2.37,-0.521 0,0 Z" /></g><g
       transform="translate(346.4609,39.3613)"
       id="g3653"
       style="fill:#666666;stroke:none;stroke-width:4;stroke-linecap:round;stroke-miterlimit:4;stroke-dasharray:none;stroke-opacity:1"><path
         inkscape:connector-curvature="0"
         id="path3655"
         style="fill:#666666;fill-opacity:1;fill-rule:evenodd;stroke:none;stroke-width:4;stroke-linecap:round;stroke-miterlimit:4;stroke-dasharray:none;stroke-opacity:1"
         d="m 0,0 c 0,0 -4.144,-2.448 -5.413,-4.287 1.617,-1.086 5.046,0.535 7.776,1.67 C 1.588,-2.092 1.432,-0.459 0,0" /></g><g
       transform="translate(346.4609,39.3613)"
       id="g3657"
       style="fill:#666666;stroke:none;stroke-width:4;stroke-linecap:round;stroke-miterlimit:4;stroke-dasharray:none;stroke-opacity:1"><path
         inkscape:connector-curvature="0"
         id="path3659"
         style="fill:#666666;stroke:none;stroke-width:4;stroke-linecap:round;stroke-linejoin:miter;stroke-miterlimit:4;stroke-dasharray:none;stroke-opacity:1"
         d="m 0,0 c 0,0 -4.144,-2.448 -5.413,-4.287 1.617,-1.086 5.046,0.535 7.776,1.67 C 1.588,-2.092 1.432,-0.459 0,0 Z" /></g></g><text
     xml:space="preserve"
     style="font-style:normal;font-variant:normal;font-weight:bold;font-stretch:normal;font-size:40px;line-height:125%;font-family:sans-serif;-inkscape-font-specification:'sans-serif Bold';letter-spacing:0px;word-spacing:0px;fill:#666666;fill-opacity:1;stroke:none;stroke-width:1px;stroke-linecap:butt;stroke-linejoin:miter;stroke-opacity:1"
     x="37.605469"
     y="50.191441"
     id="text4367"
     sodipodi:linespacing="125%"><tspan
       sodipodi:role="line"
       id="tspan4369"
       x="37.605469"
       y="50.191441">HYBRIDA</tspan></text>
</svg>