<?xml version="1.0" encoding="utf-8"?>
<!-- Generator: Adobe Illustrator 22.0.1, SVG Export Plug-In . SVG Version: 6.00 Build 0)  -->
<svg version="1.1" id="Logo" xmlns="http://www.w3.org/2000/svg" xmlns:xlink="http://www.w3.org/1999/xlink" x="0px" y="0px"
	 viewBox="0 0 1000 396.5" style="enable-background:new 0 0 1000 396.5;" xml:space="preserve">
<style type="text/css">
	.st0{fill:#FFFFFF;}
</style>
<path id="TP_Text" class="st0" d="M171,212.1h-16.1v-14.7h49.8v14.7h-16.1v42.7H171L171,212.1L171,212.1z M211.3,197.4h47.5v14.7
	h-29.8v7.2H256V233h-27.1v7.2h30.7v14.7h-48.4L211.3,197.4L211.3,197.4z M268.3,197.4H286v19.8h0.2l15.7-19.8h21.8l-20.8,22.4
	l24.2,35h-22l-14.1-22.4l-4.9,5.4v17h-17.7L268.3,197.4L268.3,197.4z M330.4,197.4h18.1l16.7,30.7h0.2v-30.7h16.7v57.4h-17.2
	l-17.6-31.4h-0.2v31.4h-16.7V197.4z M418.7,196c17.4,0,29.1,12.5,29.1,30.1c0,17.5-11.6,30.1-29.1,30.1c-17.4,0-29.1-12.6-29.1-30.1
	C389.6,208.6,401.3,196,418.7,196z M418.7,241.9c4.5,0,11.4-3,11.4-15.8c0-12.8-6.9-15.8-11.4-15.8s-11.4,3-11.4,15.8
	C407.3,238.9,414.2,241.9,418.7,241.9z M455.3,197.4H473v42.7h25.4v14.7h-43.1V197.4z M533.3,196c17.4,0,29.1,12.5,29.1,30.1
	c0,17.5-11.6,30.1-29.1,30.1c-17.4,0-29.1-12.6-29.1-30.1C504.2,208.6,515.9,196,533.3,196z M533.3,241.9c4.5,0,11.4-3,11.4-15.8
	c0-12.8-6.9-15.8-11.4-15.8s-11.4,3-11.4,15.8C521.9,238.9,528.8,241.9,533.3,241.9z M611.9,249c-3.9,5.1-10,7.2-16.3,7.2
	c-17,0-27.4-13.2-27.4-29.5c0-21.9,15.4-30.7,28.3-30.7c14.7,0,23.9,7.9,26.4,21.5h-16.9c-0.6-4.2-4.2-7.2-8.4-7.2
	c-12.1,0-11.7,12.8-11.7,16.7c0,5.4,2.2,14.8,12.9,14.8c4.1,0,8.3-2.1,9.2-6.4h-7.8v-12.3h23.5v31.6h-11.2L611.9,249z M632.4,197.4
	h17.7v57.4h-17.7V197.4z M659.1,197.4h29.6c15.7,0,21.1,11.5,21.1,19.6c0,13.8-9.3,20.4-22.5,20.4h-10.4v17.4h-17.7V197.4z
	 M676.8,223.8h6.8c4.5,0,9.4-0.2,9.4-6.1c0-5.2-4-5.6-8.4-5.6h-7.9V223.8z M743.1,196c17.4,0,29.1,12.5,29.1,30.1
	c0,17.5-11.6,30.1-29.1,30.1c-17.4,0-29.1-12.6-29.1-30.1C714,208.6,725.7,196,743.1,196z M743.1,241.9c4.5,0,11.4-3,11.4-15.8
	c0-12.8-6.9-15.8-11.4-15.8c-4.5,0-11.4,3-11.4,15.8C731.7,238.9,738.6,241.9,743.1,241.9z M779.7,197.4h33.7
	c10,0,18.7,5.5,18.7,16.4c0,6-2.7,12.2-8.6,14.4c4.8,1.8,7.8,7.2,8.4,14.3c0.2,2.7,0.2,9.8,1.9,12.3h-17.7c-0.9-2.9-1.2-5.9-1.4-8.9
	c-0.4-5.5-1-11.2-8-11.2h-9.4v20h-17.7L779.7,197.4L779.7,197.4z M797.3,222.5h9.2c3.3,0,7.8-0.6,7.8-5.7c0-3.6-2-5.7-8.8-5.7h-8.3
	V222.5z M851.2,212.1h-16.1v-14.7h49.8v14.7h-16.1v42.7h-17.7L851.2,212.1L851.2,212.1z M891.4,197.4h47.5v14.7h-29.8v7.2h27.1V233
	h-27.1v7.2h30.7v14.7h-48.4L891.4,197.4L891.4,197.4z M948.1,197.4h18.1l16.7,30.7h0.2v-30.7h16.7v57.4h-17.2l-17.6-31.4h-0.2v31.4
	h-16.7V197.4z"/>
<path class="st0" d="M0.2,174.2l10.3,11.1c4.4-2,8.6-4.4,12.6-7L18,159.1c5.2-4,9.9-8.5,14-13.6l19,5.8c2.7-3.9,5.2-8.1,7.4-12.4
	l-14-14c2.5-5.9,4.3-12.2,5.4-18.8l19-4.4c0.2-2.1,0.3-4.2,0.3-6.3c0-2.8-0.1-5.5-0.2-8.3l-18.7-5c-0.8-6.6-2.5-12.9-4.7-18.9
	l13.8-12.9c-2.2-4.5-4.6-8.8-7.4-12.9l-18,4.8c-4-5.2-8.5-9.9-13.5-14l5.3-17.4c-4.2-2.9-8.6-5.4-13.2-7.7L0.2,15.2V174.2z"/>
<path class="st0" d="M97,221.3c3.1-35.1,22.3-64.7,49.2-81.7v-63c-0.9,0.3-1.8,0.6-2.7,0.9l-10.1-17c-5.3,2-10.6,4.3-15.7,6.8
	l5.7,19c-5.5,2.8-10.8,6-15.8,9.4l-14-13.9C88.8,85,84.3,88.5,80,92.2l10.2,16.9c-4.6,4.1-9,8.5-13.2,13.1l-17-10
	c-3.7,4.3-7.2,8.8-10.4,13.4l14,13.9c-3.5,5.2-6.7,10.5-9.6,16.1l-19-5.5c-2.5,5-4.7,10.2-6.7,15.5l17,9.9
	c-2.1,5.9-3.8,11.9-5.3,18.1l-19.8-0.6c-1.1,5.4-2,11-2.6,16.6l18.9,5.4c0,0.2-0.1,0.5-0.1,0.7c-0.5,6.2-0.7,12.3-0.6,18.3
	l-19.3,4.4c0.3,5.6,0.8,11.2,1.5,16.7l19.7,0.5c1,6.4,2.4,12.7,4.2,18.8l-17.6,9.1c1.6,5.3,3.5,10.6,5.6,15.7l19.2-4.4
	c2.6,6,5.6,11.7,8.8,17.3l-14.8,13.2c2.9,4.7,6,9.3,9.3,13.7l17.5-9.1c4,5.1,8.3,10,12.9,14.7L71.9,361c4,3.8,8.1,7.5,12.4,10.9
	L99,358.7c5.2,4,10.6,7.7,16.2,11.1l-6.6,18.6c4.8,2.7,9.7,5.2,14.7,7.5l11-16.4c3.9,1.7,7.9,3.1,12,4.5v-62.1
	C113.6,301.9,93.2,263.4,97,221.3z"/>
</svg>
