<?xml version="1.0" encoding="UTF-8" standalone="no"?>
<svg id="griff" xmlns:rdf="http://www.w3.org/1999/02/22-rdf-syntax-ns#" xmlns="http://www.w3.org/2000/svg" xml:space="preserve" version="1.1" xmlns:cc="http://creativecommons.org/ns#" xmlns:dc="http://purl.org/dc/elements/1.1/" viewBox="0 0 540 540"><metadata id="metadata8"><rdf:RDF><cc:Work rdf:about=""><dc:format>image/svg+xml</dc:format><dc:type rdf:resource="http://purl.org/dc/dcmitype/StillImage"/><dc:title/></cc:Work></rdf:RDF></metadata><g id="g4428" fill-rule="evenodd"><path id="griff_border" style="color-rendering:auto;text-decoration-color:#000000;color:#000000;isolation:auto;mix-blend-mode:normal;shape-rendering:auto;solid-color:#000000;block-progression:tb;text-decoration-line:none;text-decoration-style:solid;image-rendering:auto;white-space:normal;text-indent:0;text-transform:none" d="m277.49 5.582c-5.0677-0.11341-10.379 0.87069-15.746 3.0703-4.4651 1.8308-5.0522 7.9157-1.0195 10.566 3.145 2.0671 8.1298 7.5541 12.891 14.666 4.4764 6.6871 8.8976 14.836 12.68 23.072-5.4672-6.5819-11.581-12.137-18.047-16.42-8.698-5.7622-18.102-9.2655-27.504-9.5449-9.4022-0.27938-18.779 2.887-26.33 9.8164-3.4109 3.1322-2.1388 8.7837 2.2852 10.152 13.855 4.279 28.906 20.577 39.596 36.613 2.0314 3.0474 3.7651 5.9828 5.4844 8.8926-4.1104-3.1102-8.4746-6.237-13.104-9.1211-8.2101-5.1155-16.843-9.4522-25.467-10.863-8.6237-1.4111-18.202 1.0587-23.582 9.2285-1.5965 2.4249-1.2281 5.645 0.875 7.6465 9.9239 9.4448 21.392 17.414 30.629 26.836 2.0193 2.0597 3.8786 4.2042 5.6582 6.4062-2.7074-2.1507-5.5098-3.9538-8.625-4.9863h-0.002c-5.3755-1.7816-11.298-1.6897-16.777-0.39258-5.4795 1.2972-11.443 3.7007-13.406 10.305-0.80088 2.6959 0.37804 5.5864 2.8359 6.9531 16.59 9.2248 28.96 23.429 37.52 36.479-2.7243-2.476-5.5866-4.866-8.6426-6.9824-17.409-12.058-38-21.931-67.074-20.209-0.23386 0.0144-0.46668 0.0424-0.69726 0.084-35.834 6.3806-59.822 28.69-70.125 60.605-1.6495 5.11-5.7545 13.184-11.217 19.721-5.4623 6.5372-12.135 11.351-18.59 12.111-0.51985 0.0612-1.0386 0.0989-1.5566 0.11133-2.9142 0.0699-5.9976-0.69565-9.4512-2.582-7.0641-8.0248-10.467-14.876-11.516-20.756-1.0862-6.0886 0.06899-11.454 3.0078-17.154 0.30992-0.60112 0.63949-1.2043 0.98828-1.8066 7.6874-13.276 25.404-26.803 40.566-42.42 10.623-10.942 20.015-23.714 22.949-38.752 0.3922 0.54994 0.64603 1.0556 1.0723 1.6152 2.4771 3.2526 7.4106 3.1297 9.7227-0.24219 8.9859-13.11 7.789-30.175 1.1387-41.916-7.9366-14.009-24.147-25.142-41.123-25.387-4.872-0.06815-7.7897 5.3918-5.0254 9.4043 2.6071 3.7824 6.617 10.418 8.0762 18.957 1.4591 8.5393 0.59892 18.949-7.3301 31.418-2.8588 4.5009 1.1341 10.216 6.3438 9.0801 0.64375-0.14082 1.1938-0.35984 1.8086-0.52539-11.53 13.167-27.453 23.248-42.361 34.697-11.295 8.6741-21.904 18.251-28.289 31.223-6.3848 12.971-8.0731 29.105-2.502 49.158 1.2099 4.3559 5.085 14.885 13.107 24.9 8.0225 10.016 20.954 19.399 38.158 17.555v-0.002c0.75958-0.0814 1.532-0.18267 2.3145-0.30859 10.166-1.6359 21.285-6.9784 33.588-17.123-0.09982 1.3484-0.33418 2.6215-0.26172 4.0606 0.205 4.0583 4.2997 6.7437 8.1035 5.3144 2.6065-0.98033 4.7245-2.2829 6.7207-3.5547-3.9954 8.8352-5.2782 19.546-5.293 29.85-0.005 4.1462 4.0956 7.0483 8.0039 5.6641 0.43015-0.15242 0.83965-0.31506 1.2266-0.48242 0.82097-0.35511 1.4129-0.75508 2.0957-1.1426-1.2213 3.5106-3.1441 7.5931-6.2422 11.707-6.7548 8.9696-17.749 18.092-32.703 23.285-3.877 1.3475-5.2871 6.1025-2.7715 9.3457 7.942 10.24 17.739 14.587 23.416 21.891v0.002c5.1091 6.5688 9.163 13.474 12.328 21.922-0.54034 0.20162-1.0863 0.41429-1.627 0.74609-1.7006 1.0442-2.7709 2.8655-2.8555 4.8594-0.17601 4.1409 1.4523 7.4632 2.8457 9.8887s2.6153 4.252 3.1856 5.7363c1.8514 4.8209 3.345 11.858 3.666 18.568 0.0527 1.1013-0.12876 2.0494-0.14454 3.123-0.36609 0.14742-0.71675 0.3306-1.0469 0.54688-4.423 2.9171-5.7924 5.8367-12.373 10.414-3.0074 2.0959-3.4492 6.3748-0.93359 9.041-0.1232 0.11029-0.24179 0.22562-0.35547 0.3457 0.23798-0.25674-0.52024 0.27433-2.0391 0.65039-0.75941 0.18803-1.5971 0.32989-2.8555 0.80273-0.6292 0.23643-1.4099 0.53282-2.4121 1.3672-1.0023 0.83438-2.2454 2.6061-2.4219 4.5625-0.23638 2.6298 1.274 5.1051 3.7207 6.0977-0.52742-0.21409 0.22742 0.13882 1.0176 0.48828 0.79015 0.34946 1.8714 0.76588 3.1816 1.0918 0.62978 0.15665 1.474 0.18525 2.207 0.28711-2.2487 4.1736 1.0028 9.1839 5.7305 8.8301 0.8136-0.0622 2.8451 0.0497 4.9609 0.12891 2.1158 0.0793 4.1085 0.6943 7.6309-1.0918 0.80294-0.40982 1.5032-0.99528 2.0488-1.7129 2.9292-0.87789 5.4431-2.3052 7.7246-3.9824 0.78056 0.46058 1.6553 0.73836 2.5586 0.8125 4.6811 0.37412 8.7046-1.959 11.131-4.1074 2.4263-2.1485 4.0367-4.1258 5.5996-5.3398 0.64431-0.49994 1.18-1.126 1.5742-1.8398 4.7315-8.5747 6.6844-17.754 7.6582-28.34v-0.002c2.2041-23.953-9.1624-43.777-12.725-58.086v-0.002c-0.95764-3.8443-1.5755-7.4439-3.291-11.723v-0.004c-0.39694-0.98806-0.79582-1.8968-1.1523-2.7363-0.43194-1.0171-0.70657-1.8264-0.95118-2.6074 0.44066-0.25008 0.81123-0.38919 1.3789-0.80469 0.0461-0.0338 0.0916-0.0684 0.13672-0.10351 6.6178-5.1382 15.165-11.581 23.279-17.785-1.4446 2.3219-2.8693 4.9696-3.7285 8.3984-0.30077 1.2005-0.22299 2.4646 0.22266 3.6191 0.16002 0.41462 0.48065 0.68361 0.70898 1.0488-0.36229 0.21914-0.62724 0.41757-1.0176 0.64453-2.7666 1.6086-6.184 3.3993-9.2441 6.5586-2.6792 2.7681-2.0932 7.3077 1.2012 9.3047 13.227 8.0157 24.009 27.119 30.348 46.863 1.7026 5.3079 4.0261 10.23 5.2207 14.324 1.1454 3.9253 1.197 6.4204 0.17969 8.3828-0.51291 0.32007-0.9745 0.71581-1.3691 1.1738 0 0-2.4009 2.7966-4.9316 5.9785-1.2654 1.591-2.5657 3.2785-3.6738 4.8516-1.1081 1.573-1.9951 2.3879-2.7832 5.041-1.2027 4.0503 2.0457 8.042 6.2559 7.6875 5.0587-0.42632 13.137-1.9697 20.275-4.5274 0.0975 0.008 0.1952 0.0128 0.29297 0.0156 13.79 0.27938 25.741 1.9202 31.311 6.7461 0.23446 0.1992 0.4839 0.38007 0.7461 0.54102 0.5608 1.0189 1.4056 1.8528 2.4316 2.4004-0.88038-0.46749 1.3802 1.3458 3.1367 3.3613 1.7565 2.0156 3.2922 4.2114 6.207 6.1309 0.97999 0.64502 2.1276 0.98862 3.3008 0.98829 0.0004 0 3.1441-0.88843 3.1445-0.88868 0.0004-0.00024 1.5367-1.3569 1.5371-1.3574 0.00039-0.00048 0.49283-0.70112 0.62695-0.95508 0.13412-0.25395 0.21968-0.45351 0.28516-0.62109 0.26191-0.67031 0.27867-0.91031 0.31641-1.1152 0.0755-0.40986 0.0771-0.54262 0.0879-0.67774 0.0215-0.27023 0.0251-0.41731 0.0293-0.58984 0.008-0.34506 0.008-0.71634 0.004-1.1699-0.009-0.90718-0.0394-2.1034-0.10156-3.4531-0.098-2.1282-0.36916-4.5595-0.69727-6.8848 2.2268 1.3393 4.7859 2.8551 6.5645 3.8281 0.56706 0.31024 1.1113 0.59797 1.6602 0.86328 0.45535 0.22012 0.91468 0.40799 1.3965 0.5918 0.23994 0.32126 0.51148 0.61766 0.81054 0.88476 0.70394 0.62217 2.151 1.8451 3.6856 3.0664 0.7673 0.61065 1.5258 1.1987 2.2637 1.7188 0.36893 0.26003 0.71764 0.49919 1.1914 0.77148 0.47376 0.2723 0.14897 1.0236 3.5039 0.97266 2.0125-0.0309 3.8754-1.0687 4.9609-2.7637 1.0872-1.697 1.0763-2.7499 1.0684-3.5762 1.0498 0.82346 2.0993 1.6797 3.0684 2.3691 1.3458 0.95729 3.0266 1.3176 4.6465 0.99609 2.3139-0.45928 4.0776-2.6445 4.5352-3.8613 0.45754-1.2169 0.41687-1.8698 0.41211-2.377-0.01-1.0143-0.14293-1.4984-0.26367-2.0273-0.24148-1.0579-0.56353-2.0415-0.95899-3.1758-0.28207-0.80907-0.70662-1.7718-1.0488-2.6621 3.7887 0.40807 6.9933-2.7728 6.6133-6.5645-0.38792-3.8624-2.0203-5.5494-3.3145-7.3242-1.2941-1.7748-2.5983-3.2093-2.9805-3.6348-0.51011-0.56562-1.1232-1.029-1.8066-1.3652-0.36437-0.43459-0.78851-0.81533-1.2598-1.1309-8.9731-5.9399-20.492-13.834-36.033-13.305h-0.002c-7.8595 0.26718-15.546 2.0439-20.795 0.65429 0.474 0.12201-0.96463-0.46203-1.8711-1.1406-0.91576-0.68554-1.4819-1.9236-1.0039-0.66406-3.1746-8.3701-8.4556-21.51-13.033-32.711-2.2889-5.6007-4.3993-10.708-5.9785-14.48-0.39905-0.9532-0.65032-1.5361-0.97656-2.3066 14.999-12.123 28.897-25.881 39.42-43.402 7.9643 7.1386 15.657 15.009 24.568 22.383 3.5806 6.2507 8.0016 11.337 12.598 16.053-1.9904 0.38906-4.0244 0.94658-6.1016 2.0723-2.7387 1.4847-3.8858 4.8182-2.6406 7.6738 2.5261 5.791 7.8499 8.6384 12.363 10.191 1.1692 0.40231 1.9218 0.58348 3.0449 0.90235-0.44281 0.544-0.88188 1.1256-1.2773 1.8379-1.5639 2.8182-0.62224 6.3684 2.1328 8.041 11.909 7.2276 24.984 11.927 30.896 19.527 7.1336 9.1774 11.584 23.921 13.865 40.297-1.2209 0.666-2.8592 1.4593-5.2188 2.5898-0.59945 0.28908-1.1466 0.67587-1.6191 1.1445-5.5286 1.2769-9.493 4.5144-12.053 7.3594-2.6559 2.9518-4.5134 5.4034-4.8008 5.6133-6.2179 4.562 0.19818 14.017 6.7344 9.9238 0.8991-0.56558 1.749-1.0686 2.5547-1.5156 5.6391-3.1287 8.8437-3.3324 10.076-3.1387 1.0013 0.15673 2.026 0.0573 2.9785-0.28906 0.0182 0.003 0.0365 0.005 0.0547 0.008 15.308 2.1495 26.897 4.5586 36.188 10.512 1.869 1.1991 4.0793 3.2715 7.6504 4.8359 0.49289 1.1208 1.3169 2.0641 2.3613 2.7031 1.0656 0.65101 2.6562 2.616 3.8398 4.6914 0.59181 1.0377 1.0918 2.0434 1.623 3.0156 0.2656 0.48613 0.50393 0.94381 1.0039 1.623 0.24998 0.33962 0.54184 0.74874 1.2363 1.3223 0.69449 0.57353 2.0772 1.594 4.4004 1.4414 1.4539-0.0949 2.8236-0.71554 3.8535-1.7461 1.368-1.3699 2.1054-3.1932 2.3809-4.4238 0.27544-1.2306 0.29085-1.978 0.34375-2.4062v-0.006c0.21989-1.792 0.005-2.366-0.1582-3.4004-0.16361-1.0344-0.406-2.1552-0.73242-3.334-0.12032-0.43448-0.29725-0.89022-0.41993-1.3301 0.8832 0.66053 1.5979 1.3403 2.707 1.9316 0.14563 0.0776 0.40103 0.0987 0.56055 0.17383 0.17653 0.4527 0.40738 0.88227 0.6875 1.2793-0.13186-0.18597 1.2875 2.6463 2.3477 4.9922 0.53009 1.1729 1.035 2.2935 1.75 3.4727 0.35748 0.58956 0.69342 1.1956 1.625 2.0684 0.46579 0.43638 1.1022 0.99686 2.3203 1.4375 1.2182 0.44064 3.2638 0.52123 4.8359-0.22266 1.0994-0.52007 2.0149-1.3619 2.625-2.4141 2.1891-3.776 1.5194-5.8702 1.5293-8.4141 0.01-2.5438-0.0825-5.1245 0.004-6.6934 0.0203-0.37558 0.005-0.75224-0.0449-1.125 0.32154 0.0879 0.63107 0.23119 0.95508 0.30664 4.6071 5.1839 9.3542 7.4784 11.367 8.2715 0.83907 0.33174 2.532 0.95489 4.8613-0.10742 2.3342-1.0645 3.3638-3.5868 3.5254-4.7637 0.32328-2.3537-0.16029-2.6866-0.34765-3.2656-0.37473-1.158-0.7721-1.963-1.2129-2.9219-0.8816-1.9178-1.909-4.2722-2.0723-4.8613-0.28138-1.0107-0.82282-1.9299-1.5703-2.666-0.11026-0.43669-0.10904-0.94086-0.25391-1.332 2.2194-0.0347 4.8581-0.22861 7.9961-1.7266 0.33106-0.15889 0.64684-0.34783 0.94336-0.56445 1.3917-0.1814 2.6758-0.84486 3.6289-1.875 7.8267-8.4809 18.969-21.449 17.17-40.205-2.329-24.266-21.08-39.892-35.152-50.135 1.7022-6.5833 4.4496-14.153 3.9434-23.35 4.2333-4.173 7.7528-8.7249 9.9473-13.883 0.059-0.14371 0.11245-0.28965 0.16015-0.4375 0.0481-0.0203 0.10038-0.0243 0.14844-0.0449 0.64179-0.27479 1.2307-0.65947 1.7402-1.1367 2.7996-2.6232 6.3981-6.2359 8.8848-11.242 2.4867-5.0063 3.6172-11.635 1.4082-18.646-0.11278-0.35249-0.25793-0.69378-0.43359-1.0195 2.8532-5.7744 3.7837-13.07 1.3223-21.25-0.3302-1.0882-0.96285-2.0602-1.8242-2.8027 0.11996-0.46931 0.29988-0.90658 0.38672-1.3926 0.90268-5.0518-0.0481-10.629-2.7402-16.605-0.15634-0.34312-0.34467-0.67074-0.5625-0.97852 0.0513-0.28124 0.14294-0.53223 0.17969-0.82422v-0.006c0.86117-6.8917-2.968-11.149-3.8164-13.371-0.37649-0.97997-1.0035-1.844-1.8184-2.5059 0.0421-0.76407 0.0943-1.5273 0.0137-2.334-0.51852-5.2037-2.5804-9.1755-3.75-12.465-1.1162-3.1392-1.4926-5.2629-0.85547-7.6211 0.15367-0.23211 0.55445-0.99365 1.1445-1.7461 0.951-1.2127 2.2893-2.7614 3.6992-4.3281 1.5239-1.6935 2.6318-2.8797 4.0098-4.3555 3.4461 3.7893 7.754 8.62 12.678 13.201 5.447 5.068 11.38 9.829 18.385 11.824 7.0373 2.005 13.198-1.3012 17.363-4.5859 2.0826-1.6424 3.7809-3.3901 5.0977-5.0469 0.65837-0.82839 1.2199-1.6243 1.7109-2.4883 0.49107-0.86399 1.0654-1.5103 1.2285-3.6894v-0.0195c0.70289 0.60637 2.1788 1.6994 2.4394 2.082 0.70112 1.0292 1.1458 1.4685-0.23828 5.625-1.7831 5.3525 4.1353 9.9842 8.9024 6.9668 0.52823-0.33424 1.0496-0.69307 1.5664-1.0762 7.7208-5.7233 14.757-16.885 12.873-30.359v-0.002c-1.2084-8.6272-6.5796-14.514-10.773-19.301-4.1931-4.7864-7.0607-8.4615-7.4082-11.926v-0.002c0.0209 0.19761 0.70404-1.963 0.44922-5.7344v-0.002c-0.57823-8.538-6.0636-14.905-9.7188-19.061h-0.002c-4.1589-4.7264-10.498-9.9081-17.281-14.52 0.0633-0.54526 0.0515-1.0966-0.0351-1.6387-2.8889-17.643-14.033-31.118-27.664-38.896-1.1843-0.6756-2.5634-0.92772-3.9102-0.71484-1.6072 0.25421-3.5059-1.3278-9.0195-1.3359h-0.002c-1.2719-0.0018-2.7034 0.1894-4.1152 0.66992-2.2914 0.78318-3.8875 2.8669-4.0469 5.2832-8.1298-3.2442-17.731-4.1986-28.357-2.3203-6.0723 1.0752-6.7675 9.5117-0.95312 11.566 0.0139 0.005 2.491 1.5412 4.0234 3.248 0.83055 0.92507 1.2959 1.9421 1.5762 2.5156-0.2443 0.28923-0.57939 0.71689-1.3203 1.3887-0.8451 0.76623-1.9174 1.6422-3.0312 3.1719-1.1139 1.5297-2.3173 4.4105-1.6133 7.3184 0.44093 1.8136 1.7006 3.3188 3.4082 4.0723-18.462 7.4865-36.105 16.613-47.631 33.547-2.551 3.7576-0.16461 8.8773 4.3535 9.3398-1.7204 0.75348-3.4816 1.644-5.1816 2.9316l-0.004 0.002c-3.985 3.0227-6.397 6.8326-7.875 9.9863-1.523 3.2513 0.13092 7.1033 3.5371 8.2383 4.3252 1.4412 8.1522 1.2866 11.084 1.4746-2.7116 2.4054-5.8279 4.7625-9.1484 7.4316-5.4688 4.396-11.383 9.9505-14.379 18.539-1.1058 3.1702 0.60473 6.6309 3.7949 7.6777 0.95028 0.31205 3.141 2.3892 4.0449 5.2461 0.68698 2.1713 0.69824 4.353-0.006 6.166-3.5763 0.89226-6.9235 1.6512-8.5039 1.5664-0.18394-0.12934-0.22315-0.12552-0.55468-0.42773-0.60589-0.55233-1.5909-1.4927-3.5664-2.0449-0.29972-2.6162-0.61186-5.235-0.70312-8.0273-0.49393-15.113 2.1435-32.455 10.373-47.746 17.134-29.708 21.005-76.371 15.385-115.19-2.8-19.444-8-36.882-16.08-49.413-4.04-6.266-8.86-11.374-14.76-14.541-5.9-3.1673-12.91-4.1337-19.93-2.3284-3.1008 0.79889-5.0281 3.8918-4.3789 7.0273 0.60212 2.9093 1.882 6.5927 3.4316 11.553 1.5497 4.9601 3.3293 10.872 4.7266 16.777 0.0551 0.23296 0.0829 0.45457 0.13672 0.6875-1.7149-3.2197-3.5788-6.4743-5.6856-9.6719-9.1-13.814-22.3-26.981-40.03-27.378zm205.4 202.47c2.1229 0.0269 3.854 0.47368 5.0977 0.86719 0.28425 1.4562 0.77567 3.1376 2.0879 5.1328 0.0263 0.0361 0.053 0.0719 0.0801 0.10742-0.52811-0.29061-1.097-0.49999-1.6875-0.62109-2.6793-0.54033-4.1492-1.6512-5.8633-3.7031-0.37405-0.44776-0.74678-1.0958-1.1172-1.6309 0.4885-0.0339 0.91474-0.15852 1.4023-0.15234zm9.334 7.9727c0.82573 0.44991 1.7456 0.69945 2.6855 0.72851 1.7912 0.0538 2.6338 0.46727 4.1543 1.5918 0.66711 0.49339 1.8355 1.5502 2.6856 2.3164-3.083-0.0623-5.8433-0.22874-7.1895-0.65039-1.5906-0.4982-1.1395 0.20803-1.3203-1.3047-0.11685-0.96282-0.46534-1.883-1.0156-2.6816zm-109.92 172.11c-0.63427 1.2383-1.2734 2.5541-1.7695 4.1562-1.0617 3.4268 1.1008 7.0133 4.627 7.6738 1.0682 0.20007 1.8674 0.0611 2.7637 0.0312-0.84665 1.9075-1.7404 4.1968-2 7.2422-0.44062 5.1782 5.4618 8.4301 9.6035 5.291 0.41722-0.31639 0.81934-0.59818 1.2051-0.84571 2.9993-1.9247 4.8984-2.094 7.0039-1.6875 2.1055 0.40652 4.5851 1.7538 7.2168 3.9082 4.9445 4.0479 9.6567 10.44 15.299 15.035 1.4537 2.2419 1.8648 5.1701 1.3633 8.9531-0.4865 3.6697-1.8626 7.7467-3.2578 11.428-0.32932 0.19727-1.2378 0.72948-2.6641 1.7344-1.6614 1.1705-3.537 2.3225-5.332 4.9238-0.11858 0.1719-0.2281 0.34988-0.32812 0.5332-5.2064-2.8972-10.721-5.5109-16.973-7.1465h-0.004c-5.4026-1.4154-10.016-1.7406-11.779-2.5274-0.0393 0.0009-0.11722-0.0296-0.2461-0.0996 0.0655 0.0361 0.16951 0.0654 0.2461 0.0996 0.25836-0.006-1.2442-1.4675-2.1934-3.377-1.106-2.2251-2.1171-4.9248-2.6504-6.5625v-0.004c-4.3109-13.215-9.156-27.719-10.635-43.686 0.91139-0.45918 1.5168-0.84337 2.4941-1.3066 2.2609-1.0717 5.4353-2.5804 8.0098-3.7676zm49.461 97.539c0.0394 0.0278 0.078 0.0547 0.11718 0.082-0.35666 0.53266-0.33168 0.30901-0.28515 0.28125 0.0379-0.0226-0.0382-0.008-0.0859-0.002 0.0753-0.12472 0.16354-0.2432 0.25391-0.36133zm-1.168 4.2148c0.031 0.0742 0.17561 0.40821 0.16992 0.39063-0.006-0.0194-0.10665-0.0813-0.16992-0.39063z" fill="#fff"/><path id="griff_fill" d="m277.23 10.639c-4.21-0.095-8.66 0.708-13.33 2.625 17.95 11.796 45.73 71.327 37.11 85.392-12.1-47.994-56.87-78.038-82.66-54.369 33.05 10.208 61.03 69.453 60.27 73.153-6.17-5.22-57.77-54.172-74.1-29.37 18.88 17.98 46.26 32.12 50.75 65.55 0.15 1.08 0.27 2.18 0.37 3.3-2.53-3.49-3.15-4.37-5.15-7.68-3.98-6.59-17.44-20.59-24.34-22.87-7.74-2.57-20.76-0.08-22.54 5.92 39.63 22.04 56.46 69.63 54.19 70.68-6.18-7.87-17.92-16.17-31.21-10.94 10.79 11.18 35.09 21.27 34.25 60.19-2.86-8.83-3.73-17.29-6.72-24.6-7.85-19.14-27.23-29.21-30.35-35.8 3.84-4.28 15.74-3.03 20.6-2.53-4.73-6-11.19-12.46-18.22-17.33-16.89-11.69-35.7-20.78-63.3-19.15-33.99 6.05-55.73 26.36-65.469 56.55-3.892 12.05-17.359 33.89-34.815 35.94-0.698 0.09-1.402 0.14-2.113 0.16-4.264 0.1-8.745-1.01-13.365-3.73-16.211-17.93-16.839-32.39-10.07-45.52 0.356-0.69 0.732-1.37 1.128-2.06 17.427-30.09 72.214-53.68 62.704-97.423-18.029 58.793-107.79 59.153-86.684 135.13 1.865 6.72 15.214 41.27 44.848 38.1 0.658-0.07 1.323-0.16 1.998-0.27 12.144-1.95 26.91-10.18 44.608-28.87 3.4-3.59 10.45-10.11 15.17-9.12-4.69 3.79-20.42 12.36-19.51 30.55 4.93-1.85 15.12-11.53 22.12-5.93-9.09 7.17-12.56 22.67-12.58 37.85 0.29-0.1 0.57-0.22 0.85-0.34 4.13-1.78 6.67-5.23 11.73-6.04 3.48 11.73-11.94 39.86-44.228 51.07 6.825 8.8 16.612 13.14 23.408 21.89 6.76 8.69 12.02 18.13 15.61 30.55-2.16 1.08-4.34-0.42-6.5 0.91-0.21 4.87 3.8 8.45 5.64 13.22 4.29 11.17 6.24 29.94 0.86 40.13-1.69 1.86-6.94 3.77-9.56 6.81 1.05 2.51 1.34 4.34 3.16 4.91 5.63-0.5 18.16-17.9 21.58-17.19 1.07 7.32-15.61 19.98-19.79 21.21 1.66 2.06 3.21 2.91 5.48 4.32 12.36-3.24 20.59-22.58 22.98-22.34-0.14 8.46-7.98 13.05-9.97 18.69 5.55 0.45 8.05-4.69 12.57-8.2 4.2-7.62 6-15.82 6.94-26 2-21.7-8.66-40.37-12.57-56.08-1.02-4.06-1.58-7.31-3.04-10.94-0.35-0.88-0.73-1.75-1.11-2.63-1.12-2.65-2.16-5.36-1.92-8.32 0.54-0.19 3.48-1.66 4.33-2.28 14.44-11.21 34.74-26.71 50.73-38.76 6.05-4.56 12.79-7.89 16.91-13.22 23.4-30.32 16.34-48.13 6.94-64.3 2.65 0.61 26.44 26.42-4.77 65.21 33.81 4.88 49.46 28.85 71.1 46.51 4.64 8.5 11.05 15.13 17.78 21.43 2.15-0.17 4.06-0.59 5.63-1.36-1.47-4.83-8.58-3.75-9.97-8.67 8.33-4.1 32.22-19.47 39.02-30.55-3.13 17.38-21.66 22.51-33.81 31.92 2.01 2.55 8.44 3.71 7.8 7.75-0.83 5.28-16.46 4.01-21.68 6.84 3.23 7.4 13.34 7.55 20.81 10.49-0.83 4.14-5.17 4.59-6.93 7.75 11.03 6.7 24.97 11.27 32.52 20.98 8.77 11.28 13.42 28.24 15.6 46.51-2.13 2.77-5.83 3.9-9.1 5.47 0.18 3.15 0.99 5.64 2.17 7.75 15.48 2.17 28.03 4.64 38.59 11.4 4.75 3.05 8.25 7.3 15.6 4.1-0.97-4.21-3.25-7.54-6.5-9.57-1.78-1.12-5.36-0.54-5.64-3.65 7.23 0.21 12.86 3.55 18.65 7.75 5.06 3.67 10.49 11.69 13.87 2.28-5.11-5.72-19.61-16.23-18.64-18.24 4.13-0.33 20.63 14.31 30.34 16.42 2.53 0.1 4.68-3.05 7.38-2.28 0.05-2.64-1.9-3.17-2.17-5.47-2.27-1.85-4.63-3.68-7.07-5.43-1.22-0.88-2.47-1.74-3.74-2.57-6.36-4.17-13.36-7.72-21.27-9.79-4.51-1.18-9.75-1.13-13.45-3.19-3.09-1.72-6.14-9.46-7.36-13.22-4.48-13.71-9.88-29.38-11.18-47.12-3.85 0.26-5.84 4.53-9.2 3.8 9.24-9.89 72.29-27.96 83.68-54.72-7.83 0.3-17.98 2.96-25.15 0.91 8.92-2.17 20.81-1.22 28.62-4.56 5.24-4.91 12.16-12.61 8.67-23.71-5.99 3.3-13.5 10.86-21.25 9.12 12.77-4.39 28.04-11.77 22.11-31.46-4.7 5.19-23.2 15.7-27.74 14.13 14.74-7.41 33.22-13.37 23.84-34.2-6.3 4.92-12.13 12.47-21.49 13.18-0.63 0.04-1.27 0.06-1.92 0.04 6.14-4.5 21.54-10.24 22.54-18.23 0.46-3.62-2.15-7.04-3.46-10.49-3.12 1.28-2.9 6.07-6.58 6.76-0.25 0.05-0.51 0.07-0.8 0.08 1.69-5.28 5.81-7.2 5.21-13.23-0.75-7.5-6.96-14.36-4.34-22.8 0.93-2.98 10.82-12.94 13.44-15.95-5.1-4.02-15.13-9.34-24.71-7.3-2.88 0.61-4.82 3.61-7.66 4.05-0.19 0.03-0.38 0.05-0.58 0.05 0.06-11.79 6.58-16.79 13.01-21.88-4.72-1.99-7.65 2.79-11.71 1.36 1.71-7.77 6.64-12.16 13.01-15.04-0.1-5.01 5.34-8.92 9.54-6.39-2.8 1.32-6.73 1.44-7.38 5.02 1.04 1.19 3.86 0.51 5.36 1.21 0.1 0.05 0.2 0.1 0.28 0.16-8.99 1.34-14.87 5.94-18.64 12.77 1.05-0.22 2.22-0.46 3.43-0.67 3.64-0.64 7.71-0.97 10.44 0.67-6.01 5.08-14.12 10.8-15.12 19.65 0.38-0.27 0.77-0.51 1.16-0.74 12.04-7.03 27.4 2.26 33.91 9.36 7.3 7.96 18.97 21.63 29.48 24.62 8.47 2.41 17.61-8.32 17.78-10.49-7.63-0.04-15.19-0.14-16.05-7.3-8.24-1.66-11.45-8.62-15.17-15.04 4.97-3.15 16.9-3.19 21.25 0.45 0.47 2.09 0.72 4.41 1.73 5.93 6.25 0.19 9.24 4.45 13.87 8.21 6.21 5.03 11.7 7.4 8.24 17.78 0.4-0.25 0.8-0.53 1.21-0.82 6.01-4.46 12.02-13.86 10.5-24.71-1.82-12.98-17.03-19.67-18.21-31.47-0.19-1.85 0.55-4.13 0.43-5.92-0.38-5.65-4.9-11.72-8.24-15.51-8.18-9.3-28.46-23.71-38.58-23.25 0.58 5.01 1.63 9.53 2.6 14.13 0.4 2.01 3.22 1.48 3.03 4.11-2.16-0.16-3.89-0.77-4.77-2.28-2.71-29.07-19.83-49.77-51.16-44.23 3.76 1.32 10.23 7.78 9.97 11.85-0.27 4.4-7.32 6.66-6.5 10.03 20.91-3.21 9.69 26.95-2.17 23.72 5.53-3.92 10.95-7.34 11.49-16.5-21.66 8.22-42.11 17.12-54.41 35.19 0.6-0.04 1.27-0.08 1.97-0.1 4.93-0.18 11.66 0.2 12.34 3.29 1.14 5.18-11.28 6.55-16.48 10.49-2.7 2.04-5.03 5.53-6.07 7.75 6.15 2.05 16.82-0.66 18.64 5.93-8.09 10.8-22.38 15.06-27.31 29.18 7.07 2.33 11.95 14.6 6.07 22.35-3.79 0.93-9.75 3.26-14.31 2.28-2.18-0.47-3.27-3.94-5.2-2.28-0.61 7.4 6.49 15.28 4.77 22.34-8.37-13.64-15.13-54.14 2.6-87.09 31.97-55.17 16.84-184.53-28.62-172.82 1.67 8.021 17.54 47.471 7.37 58.819-3.45-14.364-21.33-58.981-50.81-59.64zm-199.65 45.418c5.647 8.192 18.2 29.744 0.869 56.993 25.723-5.62 18.669-28.898 19.076-33.282 8.087 7.317 1.959 16.845 15.177 34.202 7.35-10.73 6.35-25.895 0.87-35.57-6.78-11.965-21.826-22.139-35.992-22.343zm371.78 46.243c-0.72 0-1.44 0.1-2.18 0.35 0.13 2.62 2.01 4.75 0.87 7.3 7.24 5 12.36 12.24 15.61 21.43 9.31-0.65 14.41 5.5 20.38 6.84-2.57-15.71-12.43-27.64-24.72-34.65-3.91 0.62-6.87-1.26-9.96-1.27zm36.07 60.54c3.75 3.66 5.78 9.13 8.24 14.14-4.58 0.22-11.19-2.39-15.61-5.02 0.63-0.66 2.84-0.66 3.47 0 1.67 1 2.16-1.76 2.27-3.07 1.24-0.59 3.38-1.31 2.07-2.4-0.52-0.89-1.43-2.55-0.44-3.65zm21.55 32.43c0.65 0.09 1.31 0.48 1.86 1.32-0.41 2.09-2.52-0.44-3.46 0.91-0.26 1.6 2.04 1.5 0.86 2.74-4.89-0.02-2.07-5.36 0.74-4.97zm-301.64 103c-7.21 9.66-21.18 12.6-28.18 22.8-1.61 2.34-1.59 5.04-2.6 7.75-2.16 5.75-6.84 9.93-8.24 15.51 0.75 1.94 4.3 0.95 4.77 3.19-4.06 5-11.16 6.81-15.61 11.4 15.44 9.36 26.37 29.67 32.95 50.16 3.05 9.51 9.41 19.82 4.77 27.82 4.77 1.82 7.92 5.35 9.11 10.94 14.03 0.28 27.27 1.41 35.12 8.21 2.51-2.07 5.82-3.3 10.84-2.74 0.02-3.54-12.49-8.36-12.58-11.4 5.85-1.94 23.46 10.66 29.7 13.67 0.41 0.2 0.78 0.36 1.09 0.47 1.54-1.27 3.84-1.73 4.77-3.65-13.5-11.94-21.07-12.85-26.89-17.33 13.49 0.74 23.17 13.65 33.66 17.43 1.53-1.42 4.55-3.36 5.5-5.39-6.59-6.6-7.63-7.51-16.7-11.8-3.83-1.82-6.49-1.66-9.28-4.24 9.71-1.23 24.25 9.54 26.71 9.93 1.15-0.77 1.1-2.79 1.74-4.1-9.01-5.96-19.11-12.77-32.52-12.32-6.73 0.23-15.14 2.43-22.55 0.46-2.01-0.54-6.12-3.33-6.94-5.47-6.26-16.51-21.12-52.57-21.67-53.35 17.4-13.62 33.17-28.95 44.22-49.25-10.86-9.25-24.44-15.64-41.19-18.7zm224.16 57.91c-9.96 9.74-23.64 15.57-36.85 21.89-0.8 6.46-4.8 9.55-6.51 15.05 3.58 0.67 7.24-2.13 9.98-0.46-0.34 5.89-3.85 8.42-4.34 14.14 0.53-0.4 1.06-0.78 1.59-1.11 16.28-10.45 27.94 11.3 37.43 18.43 5.66 7.86 1.82 19.32-1.3 27.37 1.23 1.14 1.72 3.05 3.47 3.64 7.15-5.39 10.39-14.9 10.84-27.35 2.28 0.37 3.24 18.01-8.73 28.49 2.68 1.27 3.4 1.93 5.17 3.79 8.72-2.42 11.67-30.54 12.66-29.55-0.74 13.36-2.35 25.79-10.84 31.01 1.35 1.01 0.74 4.08 3.04 4.1 7.7-8.35 17.16-19.37 15.61-35.56-2.21-23-21.98-38.37-35.99-48.34 1.54-8.26 5.3-16.61 4.77-25.54zm-312 78.65c-2.71 1.79-5.08 5.34-12.25 10.33 2.94 2.2 7.23 1.07 10.11-1.13 2.37-3.62 4.06-8.31 2.14-9.2zm170.4 3.57c-0.61 1.81-0.34 2.96-1.21 4.07 1.07 0.81 3.63 2.98 6 3.48-0.25-2.52-4-6.67-4.79-7.55zm-96.59 0.3s-9.38 10.93-10.2 13.67c4.3-0.36 12.4-1.9 18.85-4.22 0 0-1.15-6.93-8.65-9.45zm93.33 10.77c-1.09 0.98-1.98 2.16-4.44 4.34 0.16 0.13 5.1 4.26 8 6.32 0.64-0.13-1.51-5.87-3.56-10.66zm143.08 3.78s-5.01 2.96-6.54 5.19c1.95 1.31 6.1-0.65 9.4-2.02-0.93-0.64-1.12-2.61-2.86-3.17zm-322.78 0.45c-2.6 2.8-8.017 2.31-8.155 3.84 0.939 0.38 4.405 2.69 11.125 1.33-0.61-1.31-0.85-3.6-2.97-5.17zm168.65 1.1c-1.31 0.87-2.84 2.08-4.63 3.16 1.06 0.94 5.94 5.04 6.58 5.03 0.76-1.2-1.88-7.99-1.95-8.19zm-25.12 0.78c-3.22-0.04-5.14 1-8.98 2.65 2.63 1.4 7.01 7.92 9.83 9.78 0.1 0 0.01-8-0.85-12.43zm185.22 2.49c-2.87 0.63-2.61 3.18-4.28 5.06 0.25 0 0.53-0.01 0.84-0.03 2.19-0.16 5.68-0.85 7.63-1.78-0.76-1.35-3.2-2.25-4.19-3.25zm-322.74 4.56c-2.52 1.72-3.73 3.55-4.74 5.18 3.23-0.24 8.37 0.67 10.33-0.33-1.63-0.95-4.28-3.34-5.59-4.85zm222.45 0.32c-8.6 1.71-11.32 9.37-15.08 12.12 0.99-0.62 1.93-1.18 2.84-1.69 6.36-3.52 10.84-4.3 13.92-3.82-1.52-2.79-0.84-4.93-1.68-6.61zm106.34 0.18c-2.87 0.64-3.57 2.91-5.24 4.79 2 0 5.65-0.15 7.86-1.21-0.75-1.34-1.63-2.57-2.62-3.58zm-8.23 15.96c-2.14-0.11-4.12 1.35-4.62 2.19 3.84 4.43 8.13 6.44 9.33 6.91 1.21 0.48-2.33-5.49-3.23-8.73-0.49-0.23-0.99-0.34-1.48-0.37zm-17.34 4.13c0 1.72-2.99 5.64-4.57 5.4 1.69 2.39 4.29 10.33 5.42 9.8 1.17-2.02 0.51-8.32 0.73-12.43-0.81-1.33-1.34-1.63-1.58-2.77zm-21.06 3.54c-1.04 0.77-3.84 1.57-5.81 1.48-0.28-0.01-0.55-0.05-0.79-0.1 5.25 3.21 7.68 11.29 8.58 11.23 0.87-0.87 0.86-2 1.02-3.33 0.16-1.32-1.08-7.33-3-9.28z" fill="#00509e"/></g></svg>
