<svg viewBox="0 0 48 56">
    <path
            fill="currentColor"
            d="M 11.996875,4 C 5.3700317,4 0,9.3730825 0,15.996875 L 0,40.004688 C 0,46.630005 5.3700317,52 11.996875,52 l 24.00625,0 C 42.626918,52 48,46.630005 48,40.004688 L 48,15.996875 C 48,9.3730825 42.626918,4 36.003125,4 l -24.00625,0 z m 0,11.995312 24.00625,0 0,24.009376 -24.00625,0 0,-24.009376 z M 24,18.154687 A 9.8449416,9.8449416 0 0 0 14.154687,28 9.8449416,9.8449416 0 0 0 24,37.845313 9.8449416,9.8449416 0 0 0 33.845313,28 9.8449416,9.8449416 0 0 0 24,18.154687 Z"
    />
</svg>
