<?xml version="1.0" encoding="UTF-8" standalone="no"?>
<!-- Created with Inkscape (http://www.inkscape.org/) -->

<svg
   xmlns:dc="http://purl.org/dc/elements/1.1/"
   xmlns:cc="http://creativecommons.org/ns#"
   xmlns:rdf="http://www.w3.org/1999/02/22-rdf-syntax-ns#"
   xmlns:svg="http://www.w3.org/2000/svg"
   xmlns="http://www.w3.org/2000/svg"
   xmlns:sodipodi="http://sodipodi.sourceforge.net/DTD/sodipodi-0.dtd"
   xmlns:inkscape="http://www.inkscape.org/namespaces/inkscape"
   id="ringen"
   height="200mm"
   width="600mm"
   version="1.1"
   viewBox="0 0 2125.9843 708.66141"
   inkscape:version="0.91 r13725"
   sodipodi:docname="ringen.svg">
  <sodipodi:namedview
     pagecolor="#ffffff"
     bordercolor="#666666"
     borderopacity="1"
     objecttolerance="10"
     gridtolerance="10"
     guidetolerance="10"
     inkscape:pageopacity="0"
     inkscape:pageshadow="2"
     inkscape:window-width="1600"
     inkscape:window-height="841"
     id="namedview38"
     showgrid="false"
     inkscape:zoom="0.60207407"
     inkscape:cx="1087.906"
     inkscape:cy="301.1811"
     inkscape:window-x="0"
     inkscape:window-y="27"
     inkscape:window-maximized="1"
     inkscape:current-layer="ringen" />
  <defs
     id="defs3522">
    <linearGradient
       id="linearGradient82"
       y2="127.27"
       gradientUnits="userSpaceOnUse"
       x2="-44.456001"
       gradientTransform="matrix(5.1923,0,0,5.1923,1118.7,197.12)"
       y1="127.27"
       x1="-55.924999">
      <stop
         id="stop84"
         stop-color="#9fc53a"
         offset="0" />
      <stop
         id="stop86"
         stop-color="#9fc53a"
         offset=".49" />
      <stop
         id="stop88"
         stop-color="#8cbf38"
         offset=".518" />
      <stop
         id="stop90"
         stop-color="#76b836"
         offset=".56" />
      <stop
         id="stop92"
         stop-color="#65b334"
         offset=".61" />
      <stop
         id="stop94"
         stop-color="#5ab033"
         offset=".672" />
      <stop
         id="stop96"
         stop-color="#53ae32"
         offset=".759" />
      <stop
         id="stop98"
         stop-color="#51ad32"
         offset="1" />
    </linearGradient>
  </defs>
  <metadata
     id="metadata3525">
    <rdf:RDF>
      <cc:Work
         rdf:about="">
        <dc:format>image/svg+xml</dc:format>
        <dc:type
           rdf:resource="http://purl.org/dc/dcmitype/StillImage" />
        <dc:title></dc:title>
      </cc:Work>
    </rdf:RDF>
  </metadata>
  <g
     id="layer1"
     transform="translate(0,-343.7)">
    <g
       id="g4389"
       transform="matrix(0.60621,0,0,-0.60621,753.46,1206.5)">
      <path
         id="path44"
         d="m 983.73,962.68 59.769,-69.446 c 0.074,-0.109 0.242,-0.164 0.344,-0.164 l 26.828,0 c 0.191,0 0.437,0.27 0.223,0.539 l -44.981,51.625 c 0,0 38.625,4.223 39.516,45.84 0.347,16.34 -11.117,46.895 -50.844,46.114 l -61.523,0 c -0.329,0 -0.457,-0.278 -0.457,-0.461 l 0,-143.22 c 0,-0.324 0.296,-0.434 0.457,-0.434 l 23.605,0 c 0.27,0 0.438,0.215 0.438,0.461 l 0,121.34 38.777,0 c 21.66,0 27.961,-16.684 27.801,-26.668 -0.379,-19.738 -21.5,-24.828 -38.539,-24.828 l -21.09,0 c -0.164,0 -0.324,-0.102 -0.379,-0.27 -0.082,-0.129 -0.055,-0.324 0.055,-0.429 z m -452,0 59.738,-69.446 c 0.105,-0.109 0.273,-0.164 0.375,-0.164 l 26.801,0 c 0.222,0 0.465,0.27 0.222,0.539 l -44.976,51.625 c 0,0 38.648,4.223 39.512,45.84 0.347,16.34 -11.118,46.895 -50.817,46.114 l -61.551,0 c -0.297,0 -0.429,-0.278 -0.429,-0.461 l 0,-143.22 c 0,-0.324 0.297,-0.434 0.457,-0.434 l 23.609,0 c 0.266,0 0.434,0.215 0.434,0.461 l 0,121.34 38.773,0 c 21.668,0 27.965,-16.684 27.777,-26.668 -0.351,-19.738 -21.5,-24.828 -38.535,-24.828 l -21.066,0 c -0.195,0 -0.324,-0.074 -0.406,-0.27 -0.055,-0.129 -0.055,-0.296 0.054,-0.429 l 0.028,0 z m 326.62,95.086 c -0.243,0 -0.371,-0.192 -0.399,-0.27 l -70.7,-163.86 c -0.082,-0.157 0.031,-0.567 0.457,-0.567 l 24.129,0 c 0.242,0 0.398,0.11 0.512,0.352 l 45.996,106.6 45.949,-106.49 c 0.113,-0.246 0.215,-0.461 0.484,-0.461 l 24.262,0 c 0.269,0 0.539,0.27 0.406,0.594 l -70.72,163.84 c -0.058,0.164 -0.214,0.27 -0.382,0.27 z m 294.07,-164.7 -23.801,0 c -0.269,0 -0.43,0.243 -0.43,0.461 l 0,120.93 -43.808,0 c -0.27,0 -0.438,0.273 -0.438,0.437 l 0,21.825 c 0,0.378 0.325,0.461 0.465,0.461 l 112.26,0 c 0.348,0 0.457,-0.278 0.457,-0.52 l 0,-21.766 c 0,-0.195 -0.16,-0.437 -0.437,-0.437 l -43.809,0 0,-120.93 c 0.027,-0.246 -0.188,-0.461 -0.43,-0.461 l -0.027,0 z m -472.02,0 -23.496,0 c -0.242,0 -0.465,0.188 -0.465,0.434 l 0,143.22 c 0,0.211 0.168,0.461 0.465,0.461 l 23.528,0 c 0.296,0 0.433,-0.278 0.433,-0.461 l 0,-143.2 c 0,-0.164 -0.082,-0.461 -0.433,-0.461 l -0.032,0 z m 96.766,143.36 -62.633,-72.91 59.953,-69.715 c 0.114,-0.086 0.168,-0.274 0.082,-0.492 -0.082,-0.161 -0.211,-0.243 -0.379,-0.243 l -26.175,0 c -0.243,0 -0.465,0.11 -0.598,0.27 l -60.277,69.937 c -0.164,0.215 -0.082,0.457 0,0.571 l 62.765,73.062 c 0.164,0.195 0.406,0.278 0.625,0.278 l 26.313,0 c 0.133,0 0.297,-0.055 0.406,-0.25 0.105,-0.161 0.051,-0.372 -0.082,-0.508 z m -383.39,3.2152 c -44.136,0 -75.317,-33.887 -75.317,-74.508 0,-40.672 30.773,-74.125 74.906,-74.125 44.137,0 75.348,33.863 75.348,74.508 0,40.648 -30.804,74.125 -74.938,74.125 z m -0.41094,-23.205 c 28.532,0 48.872,-23.202 48.872,-51.303 0,-28.149 -19.906,-50.919 -48.461,-50.919 -28.531,0 -48.844,23.199 -48.844,51.328 0,28.094 19.902,50.894 48.433,50.894 z m -202.67,-123.43 -23.207,0 c -0.211,0 -0.457,0.164 -0.457,0.461 l 0,143.16 c 0,0.356 0.269,0.493 0.457,0.493 l 21.883,0 c 0.32,0 0.484,-0.137 0.589,-0.297 l 74.508,-100.74 0,100.58 c 0,0.296 0.242,0.461 0.465,0.461 l 23.199,0 c 0.27,0 0.438,-0.25 0.438,-0.493 l 0,-143.16 c 0,-0.297 -0.246,-0.461 -0.41,-0.461 l -19.766,0 c -0.223,0 -0.383,0.028 -0.57,0.297 l -76.68,103.62 0,-103.46 c 0,-0.191 -0.16,-0.461 -0.457,-0.461 z"
         inkscape:connector-curvature="0"
         style="fill:#0f0f0f" />
      <path
         id="path100"
         d="m 858.67,823.06 29.48,69.391 c 0.055,0.137 0.028,0.297 -0.054,0.41 -0.055,0.106 -0.133,0.215 -0.375,0.215 l -58.899,0 c -0.168,0 -0.328,-0.082 -0.41,-0.215 -0.082,-0.14 -0.082,-0.301 -0.027,-0.437 l 29.453,-69.364 c 0.051,-0.136 0.183,-0.269 0.406,-0.269 0.188,-0.027 0.352,0.078 0.426,0.242 l 0,0.027 z"
         inkscape:connector-curvature="0"
         style="fill:url(#linearGradient82)" />
    </g>
    <g
       id="g4371"
       transform="matrix(0.60621,0,0,-0.60621,751.16,1206.5)">
      <g
         id="g4610"
         transform="translate(0,-137.6)">
        <path
           id="path104"
           d="m 1004.3,771.2 -34.457,0 0,-82.715 79.246,0 0,35.969 -44.789,0 0,46.746 z"
           inkscape:connector-curvature="0"
           style="fill:#8a96a1" />
        <path
           id="path106"
           d="m 959.56,771.2 -79.246,0 0,-176.22 168.83,0 0,82.715 -89.582,0 0,93.5 z"
           inkscape:connector-curvature="0"
           style="fill:#003045" />
        <path
           id="path108"
           d="m 1014.7,771.2 34.457,0 0,-35.965 -34.457,0 0,35.965 z"
           inkscape:connector-curvature="0"
           style="fill:#ff8000" />
      </g>
      <path
         id="path110"
         d="m 1456.1,2266.5 -58.539,161.61 34.246,0 12.144,-35.982 57.885,0 11.695,35.982 35.352,0 -57.904,-161.61 -34.879,0 z m 103.01,0 0,161.61 30.775,0 0,-40.277 11.943,-12.008 30.762,52.285 37.305,0 -47.06,-74 42.275,-43.018 -36.42,0 -38.814,42.111 0,-86.701 -30.766,0 z m -86.109,39.836 0.414,0 19.522,59.32 -40.111,0 20.176,-59.32 z m 250.56,1.5762 c -8.525,0 -16.293,1.5869 -23.305,4.7656 -7.0212,3.1538 -13.056,7.484 -18.125,13.022 -5.0387,5.5175 -8.9418,12.026 -11.686,19.58 -2.7438,7.5388 -4.1406,15.701 -4.1406,24.436 0,9.0675 1.3529,17.367 4.0429,24.887 2.6563,7.5587 6.4558,14.018 11.363,19.467 4.9213,5.425 10.912,9.6009 17.988,12.555 7.1187,2.9637 15.039,4.4375 23.861,4.4375 12.72,0 23.569,-3.0323 32.529,-9.0723 8.965,-6.045 15.62,-16.064 19.951,-30.098 l -27.1,0 c -1.015,3.6375 -3.7695,7.0615 -8.252,10.303 -4.4812,3.2575 -9.8289,4.8691 -16.035,4.8691 -8.6813,0 -15.308,-2.3242 -19.941,-7.0117 -4.6388,-4.6675 -7.1574,-12.207 -7.6211,-22.627 l 80.896,0 c 0.5625,-9.0625 -0.1454,-17.735 -2.1817,-26.025 -2.0062,-8.3112 -5.3075,-15.684 -9.8437,-22.184 -4.575,-6.5125 -10.385,-11.684 -17.461,-15.541 -7.0837,-3.8375 -15.38,-5.7617 -24.941,-5.7617 z m 136.28,0.01 c -3.9012,0 -7.6516,0.6065 -11.275,1.8027 -3.6275,1.2063 -7.0115,2.9091 -10.195,5.1016 -3.1737,2.1675 -5.991,4.8236 -8.4473,7.9336 -2.4562,3.0962 -4.3937,6.4661 -5.8437,10.09 l -0.4395,0 0,-21.76 -29.273,0 0,117.02 30.797,0 0,-52.73 c 0,-5.2775 0.4915,-10.17 1.5215,-14.701 0.9962,-4.5313 2.6925,-8.491 5.08,-11.885 2.3925,-3.3987 5.5207,-6.0601 9.4219,-8.0176 3.9113,-1.9737 8.6823,-2.955 14.322,-2.955 1.865,0 3.8382,0.114 5.8457,0.334 2.0012,0.2387 3.749,0.4911 5.209,0.7949 l 0,-29.896 c -2.4663,-0.7475 -4.7164,-1.1289 -6.7227,-1.1289 z m -137.13,24.244 c 7.515,0 13.12,2.1035 16.807,6.3223 3.6775,4.2437 6.2392,10.406 7.6992,18.574 l -50.107,0 c 0.1512,-2.2612 0.6247,-4.8242 1.416,-7.6992 0.8062,-2.8713 2.1791,-5.5827 4.1328,-8.1465 1.9488,-2.5737 4.5495,-4.7213 7.8008,-6.4551 3.2575,-1.7337 7.3294,-2.5957 12.252,-2.5957 z"
         transform="matrix(0.8,0,0,-0.8,0,2400)"
         inkscape:connector-curvature="0"
         style="fill:#003045" />
      <path
         id="path138"
         d="m 1940.2,2262.7 c -7.095,0 -13.988,0.952 -20.707,2.832 -6.7238,1.89 -12.734,4.743 -17.998,8.6055 -5.2825,3.8475 -9.4874,8.7486 -12.67,14.701 -3.1937,5.9713 -4.7812,13.012 -4.7812,21.166 0,7.3975 1.3914,13.56 4.2226,18.463 2.8175,4.9113 6.5835,8.907 11.291,12.002 4.6913,3.0812 10,5.5751 15.938,7.4551 5.9175,1.9 11.953,3.5552 18.106,4.9902 6.1425,1.4412 12.176,2.818 18.113,4.1855 5.9175,1.3625 11.227,3.12 15.943,5.3125 4.6826,2.2075 8.4482,5.0328 11.266,8.4903 2.8075,3.4812 4.2129,8.0127 4.2129,13.584 0,5.8837 -1.1632,10.718 -3.4532,14.478 -2.3287,3.785 -5.3611,6.7491 -9.1211,8.9316 -3.755,2.1825 -7.9958,3.7449 -12.693,4.6387 -4.6925,0.9325 -9.3716,1.3652 -13.977,1.3652 -5.7812,0 -11.429,-0.746 -16.902,-2.2597 -5.5125,-1.4988 -10.302,-3.8568 -14.434,-7.0118 -4.1113,-3.1787 -7.4468,-7.1966 -9.9668,-12.119 -2.5288,-4.8925 -3.8086,-10.742 -3.8086,-17.523 l -19.496,0 c 0,9.8037 1.6833,18.286 5.082,25.459 3.3988,7.1488 8.0178,13.041 13.883,17.631 5.8638,4.62 12.636,8.0314 20.375,10.316 7.74,2.2563 15.933,3.3887 24.6,3.3887 7.1187,0 14.213,-0.8737 21.377,-2.6074 7.1388,-1.7238 13.612,-4.5297 19.389,-8.3672 5.7912,-3.8475 10.529,-8.82 14.215,-14.938 3.6925,-6.0988 5.5313,-13.473 5.5313,-22.057 0,-7.9975 -1.4162,-14.629 -4.2324,-19.902 -2.8088,-5.3025 -6.5818,-9.6761 -11.279,-13.152 -4.6925,-3.4725 -10.01,-6.2267 -15.938,-8.248 -5.9175,-2.0412 -11.953,-3.8184 -18.115,-5.3359 -6.1525,-1.5 -12.167,-2.8868 -18.096,-4.1856 -5.9275,-1.2787 -11.245,-2.8865 -15.938,-4.834 -4.7062,-1.9825 -8.457,-4.513 -11.27,-7.623 -2.8275,-3.095 -4.2344,-7.1233 -4.2344,-12.113 0,-5.2837 0.9781,-9.6913 2.9219,-13.236 1.9675,-3.545 4.565,-6.3922 7.8125,-8.4922 3.2562,-2.115 6.9859,-3.6138 11.18,-4.5313 4.19,-0.9087 8.4589,-1.3574 12.785,-1.3574 10.698,0 19.477,2.6125 26.352,7.8125 6.87,5.2 10.88,13.613 12.027,25.238 l 19.52,0 c -0.2925,-8.9063 -1.9239,-16.567 -4.8926,-22.992 -2.9588,-6.3962 -7.0053,-11.713 -12.133,-15.941 -5.1225,-4.2187 -11.105,-7.3303 -17.867,-9.2891 -6.8163,-1.9425 -14.204,-2.9296 -22.139,-2.9296 z m 201.14,3.8476 0,161.61 18.438,0 0,-161.61 -18.438,0 z m 225.73,0 0,23.531 18.453,0 0,-23.531 -18.453,0 z m -59.096,9.502 0,35.088 -19.059,0 0,17.002 19.059,0 0,74.463 c 0,5.415 0.5263,9.7901 1.5313,13.111 0.9875,3.315 2.5307,5.8646 4.6445,7.6758 2.08,1.8363 4.8344,3.0663 8.2519,3.75 3.4075,0.6938 7.4693,1.0156 12.23,1.0156 l 14.123,0 0,-16.973 -8.4727,0 c -2.9062,0 -5.255,-0.1129 -7.0312,-0.3379 -1.8463,-0.22 -3.2365,-0.7021 -4.2227,-1.4746 -1.04,-0.7613 -1.7238,-1.8205 -2.0801,-3.168 -0.3612,-1.3625 -0.5371,-3.1645 -0.5371,-5.4258 l 0,-72.637 22.344,0 0,-17.002 -22.33,0 0,-35.088 -18.451,0 z m 373.25,32.354 c -4.9162,0 -9.8827,0.6401 -14.834,1.9238 -4.995,1.2988 -9.4961,3.2574 -13.451,5.8887 -3.99,2.6412 -7.2367,6.0837 -9.7754,10.312 -2.5188,4.2437 -3.7989,9.278 -3.7989,15.186 0,7.54 1.8255,13.438 5.4493,17.648 3.6225,4.2037 8.1248,7.4952 13.558,9.8339 5.425,2.3488 11.3,4.1586 17.643,5.4473 6.3925,1.275 12.276,2.7059 17.691,4.2734 5.41,1.6013 9.9212,3.6805 13.545,6.2305 3.6037,2.5725 5.4472,6.356 5.4472,11.322 0,3.6275 -0.901,6.6276 -2.6347,8.9414 -1.7288,2.3487 -3.9375,4.1075 -6.6075,5.3125 -2.6762,1.2312 -5.5816,2.0508 -8.7754,2.5195 -3.1887,0.435 -6.1998,0.6582 -9.0898,0.6582 -3.755,0 -7.4413,-0.3557 -10.986,-1.1269 -3.5213,-0.7513 -6.705,-2.0015 -9.5313,-3.7403 -2.8087,-1.7237 -5.0946,-4.0729 -6.8183,-7.0117 -1.7475,-2.955 -2.6789,-6.5136 -2.8301,-10.777 l -18.414,0 c 0.2888,7.2512 1.7224,13.414 4.3399,18.463 2.5925,5.0437 6.09,9.1157 10.406,12.207 4.3213,3.1 9.2966,5.3138 14.945,6.7051 5.645,1.3375 11.554,2.0097 17.785,2.0097 5.615,0 11.317,-0.56 17.02,-1.6875 5.7038,-1.1187 10.861,-3.1011 15.416,-5.9961 4.5213,-2.8662 8.1983,-6.6469 11.02,-11.314 2.8175,-4.6875 4.2343,-10.561 4.2343,-17.656 0,-5.5812 -1.0408,-10.249 -3.1308,-14.029 -2.1138,-3.7587 -4.8487,-6.9134 -8.2324,-9.3984 -3.3888,-2.485 -7.29,-4.4773 -11.719,-5.9961 -4.4287,-1.4887 -8.9401,-2.7781 -13.549,-3.8281 -4.3413,-1.0488 -8.6824,-2.0949 -13.014,-3.0762 -4.34,-0.9625 -8.2506,-2.1733 -11.703,-3.6133 -3.4763,-1.4212 -6.337,-3.2315 -8.5645,-5.414 -2.275,-2.2075 -3.3691,-4.9365 -3.3691,-8.2715 0,-3.0175 0.7169,-5.47 2.1582,-7.375 1.465,-1.88 3.3447,-3.3881 5.6484,-4.5156 2.315,-1.1325 4.9085,-1.928 7.6973,-2.3868 2.8262,-0.445 5.6054,-0.6601 8.3691,-0.6601 3.0225,0 6.0237,0.336 8.9825,1.0098 2.95,0.6687 5.6697,1.7783 8.1347,3.2871 2.4663,1.5137 4.4838,3.5154 6.0801,6.0117 1.5775,2.47 2.5198,5.615 2.8086,9.375 l 18.406,0 c -0.41,-7.085 -1.854,-13.023 -4.3203,-17.77 -2.4662,-4.7763 -5.7558,-8.5603 -9.8633,-11.334 -4.125,-2.7875 -8.8538,-4.7541 -14.205,-5.8828 -5.3463,-1.1325 -11.186,-1.7051 -17.568,-1.7051 z m -611.3,0.016 c -8.7988,0 -16.61,1.5869 -23.406,4.7656 -6.8062,3.145 -12.511,7.4703 -17.144,13.022 -4.6187,5.4938 -8.0905,11.993 -10.404,19.459 -2.305,7.485 -3.4766,15.508 -3.4766,24.111 0,8.5838 1.1716,16.591 3.4766,23.988 2.3238,7.4075 5.7856,13.829 10.404,19.356 4.6338,5.4937 10.338,9.7911 17.144,12.902 6.7825,3.0863 14.608,4.6172 23.406,4.6172 8.965,0 16.803,-1.5309 23.522,-4.6172 6.7237,-3.1112 12.403,-7.4086 17.022,-12.902 4.6,-5.5263 8.0966,-11.948 10.4,-19.356 2.305,-7.3975 3.4805,-15.404 3.4805,-23.988 0,-8.6037 -1.1755,-16.626 -3.4805,-24.111 -2.3037,-7.4663 -5.7916,-13.965 -10.4,-19.459 -4.6188,-5.5362 -10.298,-9.8665 -17.022,-13.022 -6.7188,-3.1787 -14.556,-4.7656 -23.522,-4.7656 z m 387,0 c -8.8137,0 -16.626,1.5869 -23.422,4.7656 -6.7875,3.145 -12.491,7.4703 -17.145,13.022 -4.6187,5.4938 -8.0817,11.993 -10.387,19.459 -2.3037,7.485 -3.4777,15.508 -3.4902,24.111 0,8.5838 1.1865,16.591 3.4902,23.988 2.305,7.4075 5.768,13.829 10.387,19.356 4.6538,5.4937 10.357,9.7911 17.145,12.902 6.8062,3.0863 14.618,4.6172 23.422,4.6172 8.96,0 16.773,-1.5309 23.525,-4.6172 6.7138,-3.1112 12.392,-7.4086 17.025,-12.902 4.63,-5.5263 8.0917,-11.948 10.387,-19.356 2.3488,-7.3975 3.5059,-15.404 3.5059,-23.988 0,-8.6037 -1.1721,-16.626 -3.5059,-24.111 -2.295,-7.4663 -5.7667,-13.965 -10.387,-19.459 -4.6337,-5.5362 -10.302,-9.8665 -17.025,-13.022 -6.7525,-3.1787 -14.575,-4.7656 -23.525,-4.7656 z m 125.59,0 c -16.626,0 -28.771,7.0801 -36.422,21.299 l -0.4375,0 0,-18.58 -17.35,0 0,117.03 18.438,0 0,-66.08 c 0,-5.2825 0.6883,-10.136 2.0508,-14.613 1.3625,-4.4288 3.4271,-8.3252 6.1621,-11.66 2.7537,-3.3012 6.2062,-5.8614 10.312,-7.6777 4.16,-1.8212 9.0045,-2.7187 14.644,-2.7187 7.075,0 12.66,2.0951 16.697,6.3476 4.0525,4.2288 6.08,9.9563 6.08,17.174 l 0,79.229 18.428,0 0,-76.934 c 0,-6.3525 -0.624,-12.12 -1.8653,-17.33 -1.22,-5.215 -3.345,-9.7011 -6.3925,-13.496 -3.0075,-3.7688 -6.9953,-6.714 -11.928,-8.8027 -4.8875,-2.1388 -11.04,-3.1895 -18.418,-3.1895 z m -399.15,2.7188 0,76.965 c 0,6.3575 0.6308,12.104 1.832,17.309 1.2313,5.215 3.3442,9.7026 6.4004,13.473 3.0225,3.7938 6.9887,6.6799 11.92,8.7149 4.9325,2.0462 11.049,3.0527 18.428,3.0527 8.2512,0 15.41,-1.6904 21.478,-5.0879 6.055,-3.4037 11.041,-8.7157 14.957,-15.957 l 0.4258,0 0,18.549 17.367,0 0,-117.02 -18.447,0 0,66.1 c 0,5.2837 -0.678,10.171 -2.0605,14.59 -1.3713,4.4638 -3.4438,8.3603 -6.1875,11.695 -2.71,3.3 -6.1701,5.8576 -10.268,7.6738 -4.1263,1.8025 -9.0136,2.7051 -14.652,2.7051 -7.085,0 -12.647,-2.088 -16.68,-6.3418 -4.0625,-4.2087 -6.0762,-9.9462 -6.0762,-17.188 l 0,-79.234 -18.438,0 z m 183.71,0 0,117.02 18.453,0 0,-117.02 -18.453,0 z m -297.15,14.287 c 4.77,0 9.2913,0.9491 13.549,2.9316 4.2775,1.9575 8.0079,4.8338 11.182,8.5938 3.1738,3.7937 5.6793,8.4219 7.4805,13.939 1.8025,5.4838 2.7149,11.802 2.7149,18.887 0,7.09 -0.9124,13.369 -2.7149,18.896 -1.8012,5.4925 -4.3067,10.112 -7.4805,13.809 -3.1837,3.6813 -6.9041,6.5091 -11.182,8.4766 -4.2575,1.9575 -8.7888,2.9355 -13.549,2.9355 -4.7813,0 -9.2831,-0.963 -13.561,-2.9355 -4.2437,-1.9675 -7.9894,-4.7853 -11.158,-8.4766 -3.1837,-3.6962 -5.6833,-8.3161 -7.4746,-13.809 -1.8075,-5.5175 -2.709,-11.806 -2.709,-18.896 0,-7.085 0.9015,-13.403 2.709,-18.887 1.7813,-5.5275 4.2909,-10.146 7.4746,-13.939 3.1688,-3.76 6.9007,-6.6363 11.158,-8.5938 4.2775,-1.9675 8.7793,-2.9316 13.561,-2.9316 z m 386.99,0 c 4.7613,0 9.2739,0.9491 13.566,2.9316 4.2625,1.9575 7.9825,4.8338 11.156,8.5938 3.1737,3.7937 5.6494,8.4219 7.4707,13.939 1.8025,5.4838 2.7343,11.802 2.7343,18.887 0,7.09 -0.9231,13.369 -2.7343,18.896 -1.8113,5.4925 -4.287,10.112 -7.4707,13.809 -3.1738,3.6813 -6.9038,6.5091 -11.156,8.4766 -4.2775,1.9575 -8.7951,2.9355 -13.566,2.9355 -4.78,0 -9.2912,-0.963 -13.545,-2.9355 -4.2675,-1.9675 -8.0062,-4.7853 -11.17,-8.4766 -3.1738,-3.6962 -5.6602,-8.3161 -7.4727,-13.809 -1.8212,-5.5175 -2.7148,-11.806 -2.7148,-18.896 0,-7.085 0.8936,-13.403 2.7148,-18.887 1.8125,-5.5275 4.2989,-10.146 7.4727,-13.939 3.1637,-3.76 6.9024,-6.6363 11.17,-8.5938 4.2537,-1.9675 8.7649,-2.9316 13.545,-2.9316 z"
         transform="matrix(0.8,0,0,-0.8,0,2400)"
         inkscape:connector-curvature="0"
         style="fill:#8a96a1" />
    </g>
    <g
       id="g4329"
       transform="matrix(0.60621,0,0,-0.60621,753.46,1206.5)">
      <path
         id="path182"
         d="m 208.77,2094.1 0,374.93 285.27,-346.89 285.28,346.89 0,-374.93 -570.55,0 z m 285.28,132.8 c -50.272,0 -91.025,40.753 -91.025,91.025 0,50.269 40.753,91.021 91.025,91.021 50.269,0 91.021,-40.753 91.021,-91.021 0,-50.272 -40.753,-91.025 -91.021,-91.025 z"
         transform="matrix(0.8,0,0,-0.8,0,2400)"
         inkscape:connector-curvature="0"
         style="fill:#0f1c7d" />
      <g
         id="g4653"
         transform="translate(0,-137.6)">
        <path
           id="path206"
           d="m 209.05,564.37 -20.403,-98.602 41.11,0 2.472,17.617 14.836,0.309 1.547,-17.926 40.801,0 -23.184,98.602 -57.179,0 z m 30.656,-23.493 6.125,-40.027 -14.219,0 8.094,40.027 z"
           inkscape:connector-curvature="0" />
        <path
           id="path208"
           d="m 296.91,465.77 0,98.598 32.996,0 22.489,-44.352 0,44.352 33.769,0 0,-98.598 -34.93,0 -21.121,43.734 0,-43.734 -33.203,0 z"
           inkscape:connector-curvature="0" />
        <path
           id="path210"
           d="m 401.96,564.37 0,-98.602 39.996,0 0,42.117 16.5,-42.117 41.121,0 -25.492,53.918 23.746,44.684 -37.844,0 -18.031,-38.782 0,38.782 -39.996,0 z"
           inkscape:connector-curvature="0" />
        <path
           id="path212"
           d="m 548.18,566.77 c -8.524,-0.094 -34.938,-0.984 -43.731,-17.484 -4.394,-8.25 -2.402,-21.621 -2.402,-31.598 0,-9.977 -1.535,-33.254 5.683,-40.777 3.395,-3.539 15.973,-13.551 40.45,-12.676 24.48,-0.875 37.058,9.137 40.453,12.676 7.219,7.523 5.683,30.8 5.683,40.777 0,9.977 1.993,23.348 -2.406,31.598 -8.793,16.5 -35.207,17.39 -43.73,17.484 m 0,-17.047 c 1.519,-0.176 6.351,0.375 6.316,-5.558 -0.105,-17.379 -0.078,-35.782 0,-58.469 0.016,-4.703 -2.601,-5.422 -6.316,-5.422 -3.715,0 -6.328,0.719 -6.313,5.422 0.078,22.687 0.106,41.09 0,58.469 -0.035,5.933 4.797,5.382 6.313,5.558"
           inkscape:connector-curvature="0" />
      </g>
    </g>
    <g
       id="g4381"
       transform="matrix(0.60621,0,0,-0.60621,751.14,1206.5)">
      <path
         id="path216"
         d="m 1374.8,771.09 c -2.758,0.781 -6.148,2.43 -7.531,3.668 -3.43,3.059 -6.797,10.062 -6.797,14.129 0,2.875 0.707,3.347 5.016,3.347 4.316,0 5.015,-0.468 5.015,-3.375 0,-2.781 1.332,-5.062 2.969,-7.128 2.863,-4.192 19.976,-3.758 28.719,-3.758 25.433,0 25.8,0.043 29.273,3.5 4.328,4.312 4.684,11.863 0.777,16.668 -2.66,3.273 -3.519,3.386 -30.449,4.168 -30.168,0.875 -34.301,1.836 -37.347,8.687 -2.899,6.453 -3.711,13.879 -0.516,20.981 5.394,8.511 9.328,9.468 38.812,9.468 21.481,0 26.528,-0.402 30.192,-2.402 6.14,-3.348 7.918,-5.871 8.812,-12.519 0.758,-5.641 0.684,-5.762 -3.597,-5.762 -3.696,0 -4.52,0.664 -5.317,4.277 -1.715,7.778 -4.554,8.563 -30.969,8.563 -21.378,0 -24.234,-0.285 -27.261,-2.727 -2.656,-2.141 -3.383,-4.121 -3.383,-9.199 0,-3.563 0.836,-7.309 1.859,-8.328 1.332,-1.336 9.602,-2.078 29.371,-2.649 22.122,-0.64 28.426,-1.273 32.161,-3.242 7.437,-3.914 9.39,-8.121 8.711,-18.746 -0.708,-11.062 -3.958,-15.367 -13.391,-17.734 -7.668,-1.922 -48.234,-1.84 -55.129,0.113 m 105.31,0.418 c -11.402,4.129 -14.124,11.84 -13.347,37.785 0.648,21.566 2.414,25.977 12.097,30.242 5.872,2.582 9.032,2.789 36.336,2.371 33.411,-0.515 35.254,-1.027 40.497,-11.257 3.648,-7.129 3.648,-42.598 0,-49.723 -5.25,-10.246 -7.098,-10.758 -40.219,-11.149 -23.043,-0.269 -30.903,0.118 -35.364,1.731 m 63.391,8.644 c 1.719,1.2 3.793,4.571 4.609,7.489 1.911,6.851 1.911,29.441 0,36.289 -2.574,9.222 -4.265,9.676 -35.718,9.625 -29.274,-0.047 -30.832,-0.348 -34.196,-6.637 -2.168,-4.051 -2.222,-37.613 -0.07,-42.316 0.879,-1.918 2.973,-4.153 4.656,-4.961 1.754,-0.848 14.692,-1.52 30.325,-1.574 22.261,-0.079 27.839,0.304 30.394,2.085 m 40.492,25.633 0,34.949 67.344,0 0,-7.132 -58.746,0 0,-22.825 55.879,0 0,-7.07 -55.164,-0.773 -0.403,-16.047 -0.406,-16.047 -8.504,0 0,34.945 z m 117.49,-3.566 0,31.383 -35.821,0 0,7.132 81.672,0 0,-7.132 -35.82,0 0,-62.762 -10.031,0 0,31.379 z m 83.23,-28.172 c -0.68,1.766 -6.789,16.996 -13.574,33.848 -6.789,16.847 -12.34,31.172 -12.34,31.828 0,0.656 2.019,0.992 4.484,0.746 4.434,-0.442 4.625,-0.805 16.121,-30 6.399,-16.258 12.012,-29.574 12.473,-29.602 0.465,-0.023 6.164,13.469 12.664,29.985 l 11.828,30.027 12.961,-0.859 11.488,-29.598 c 6.321,-16.281 11.887,-29.578 12.375,-29.551 0.489,0.024 3.723,7.246 7.192,16.047 17.285,43.891 17.246,43.816 22.426,43.816 l 4.687,0 -13.918,-34.593 -13.918,-34.59 -6.457,-0.422 -6.461,-0.426 -11.929,30.778 c -6.563,16.929 -12.098,30.601 -12.301,30.378 -0.203,-0.218 -5.348,-13.234 -11.434,-28.925 -6.082,-15.692 -11.379,-29.332 -11.765,-30.313 -0.415,-1.051 -3.301,-1.781 -7.036,-1.781 -5.242,0 -6.539,0.551 -7.566,3.207 m 110.41,-2.074 c 0.277,0.726 9.535,16.488 20.566,35.019 l 20.063,33.696 12.894,0 20.059,-33.731 c 11.035,-18.551 20.277,-34.265 20.539,-34.922 0.262,-0.66 -1.84,-1.195 -4.672,-1.195 -4.636,0 -5.586,0.711 -9.57,7.16 l -4.43,7.16 -28.781,-0.386 -28.777,-0.383 -3.762,-6.418 c -3.281,-5.602 -4.453,-6.477 -9.199,-6.871 -2.992,-0.25 -5.211,0.14 -4.93,0.871 m 69.762,22.879 c -1.442,3.586 -21.949,37.324 -22.688,37.324 -0.738,0 -21.242,-33.738 -22.683,-37.324 -0.266,-0.657 9.945,-1.192 22.683,-1.192 12.742,0 22.953,0.535 22.688,1.192 m 43.226,10.933 0,34.949 34.457,0 c 38.602,0 41.52,-0.601 45.176,-9.32 2.399,-5.711 2.688,-18.191 0.512,-22.23 -0.836,-1.563 -3.578,-4.086 -6.086,-5.61 -2.875,-1.742 -3.676,-2.773 -2.164,-2.777 1.324,0 3.742,-1.695 5.375,-3.762 2.43,-3.078 2.969,-5.789 2.969,-14.976 l 0,-11.219 -8.598,0 0,9.363 c 0,9.051 -1.582,14.461 -4.871,16.645 -0.867,0.578 -13.988,1.058 -29.16,1.07 l -27.582,0.024 0,-27.102 -10.028,0 0,34.945 z m 68.774,3.567 c 2.148,2.136 2.863,4.734 2.847,10.343 -0.011,4.118 -0.511,8.25 -1.105,9.18 -2.363,3.699 -9.918,4.727 -34.789,4.727 l -25.699,0 0,-27.102 27.941,0 c 26.031,0 28.137,0.195 30.805,2.852 z m 37.258,-3.567 0,34.949 70.207,0 0,-7.132 -60.18,0 0,-22.825 57.316,0 0,-7.132 -57.316,0 0,-25.676 61.613,0 0,-7.129 -71.64,0 0,34.945 z"
         inkscape:connector-curvature="0"
         style="fill:#695e59" />
      <path
         id="path218"
         d="m 1469.1,892.12 c -26.363,4.43 -42.078,15.985 -48.101,35.367 -2.051,6.59 -2.52,13.434 -2.52,36.633 0,30.86 1.188,37.496 8.68,48.489 2.562,3.757 2.992,5.289 1.629,5.808 -1.02,0.387 -10.848,0.528 -21.84,0.309 l -19.992,-0.403 -0.375,-61.691 -0.371,-61.691 -22.868,0 -0.371,61.691 -0.375,61.691 -30.804,0.813 0,18.445 31.101,0 0.836,13.196 c 1.387,21.812 7.418,33.406 20.922,40.218 9.871,4.981 20.84,6.496 46.984,6.496 l 23.379,0 0,-18.265 -25.433,-0.496 c -22.465,-0.438 -26.102,-0.844 -31.164,-3.485 -8.45,-4.414 -11.207,-10.172 -11.914,-24.867 l -0.594,-12.348 11.984,-0.929 c 6.594,-0.508 44.414,-0.934 84.047,-0.938 78.578,-0.01 86.082,-0.617 101.71,-8.234 9.965,-4.856 19.145,-14.836 23.34,-25.367 3.183,-7.989 3.383,-10.278 3.383,-39.153 0,-28.836 -0.203,-31.172 -3.364,-39.113 -6.668,-16.73 -21.812,-27.598 -43.929,-31.523 -12.473,-2.211 -81.828,-2.696 -93.981,-0.653 z m 98.785,21.196 c 8.676,3.906 13.371,8.855 16.75,17.66 1.989,5.179 2.301,10.836 1.93,34.644 -0.508,32.473 -1.523,36.125 -12.363,44.395 -9.231,7.051 -16.317,7.851 -64.352,7.289 -35.64,-0.414 -43.48,-0.879 -47.672,-2.817 -8.363,-3.871 -13.086,-8.414 -16.64,-16.019 -3.18,-6.793 -3.391,-8.887 -3.395,-33.633 0,-14.515 0.641,-28.711 1.434,-31.551 2.039,-7.312 7.054,-14.183 12.789,-17.515 10.144,-5.899 15.91,-6.481 60.98,-6.16 41.887,0.3 43.176,0.394 50.539,3.707 m 476.28,-21.121 c -26.516,3.425 -36.856,13.707 -38.551,38.328 l -0.793,11.488 21.902,0 0.032,-6.774 c 0.05,-10.671 4.105,-17.867 12.343,-21.906 6.946,-3.402 7.137,-3.414 56.403,-3.398 55.121,0.019 57.398,0.363 63.007,9.527 4.204,6.86 4.09,22.094 -0.203,27.524 -6.449,8.164 -8.285,8.406 -69.968,9.293 -63,0.902 -64.43,1.117 -72.997,10.828 -5.96,6.754 -7.554,14.195 -7.003,32.668 0.441,14.777 0.757,16.3 4.379,21.019 9.242,12.051 24.328,15.375 74.253,16.375 53.106,1.063 72.735,-1.828 83.2,-12.246 5.797,-5.769 8.418,-13.035 8.429,-23.355 l 0.01,-6.778 -21.117,0 -0.773,5.762 c -1.036,7.672 -4.438,12.516 -10.817,15.398 -4.566,2.063 -11.43,2.379 -51.832,2.379 -50.297,0 -54.719,-0.547 -60.156,-7.429 -2.328,-2.95 -2.887,-5.786 -2.887,-14.684 0,-12.625 2.469,-17.312 10.41,-19.766 2.547,-0.785 27.848,-1.722 56.215,-2.082 42.129,-0.535 53.16,-1.086 60.18,-3.019 18.367,-5.051 25.246,-14.231 26.238,-35.02 0.746,-15.617 -1.281,-22.914 -8.551,-30.765 -6.98,-7.539 -16.32,-11.34 -32.953,-13.418 -13.75,-1.715 -85.004,-1.68 -98.398,0.051 z m -383.2,3.42 c -15.277,4.188 -27.066,14.504 -32.816,28.727 -3.235,8.004 -3.391,9.929 -3.36,41.91 0.028,31.914 0.192,33.93 3.434,42.027 6.453,16.117 20.254,25.739 41.965,29.242 11.164,1.805 74.941,1.93 85.664,0.168 26.922,-4.421 39.418,-16.769 42.355,-41.839 l 0.961,-8.2 -21.492,0 -0.977,7.77 c -1.273,10.16 -5.582,16.367 -14.402,20.758 -7.023,3.496 -7.898,3.574 -45.543,4.008 -31.594,0.363 -39.754,0.046 -46.113,-1.797 -9.645,-2.789 -15.34,-7.477 -19.633,-16.153 -3.148,-6.359 -3.336,-8.316 -3.336,-34.558 0,-32.035 1.324,-37.715 10.77,-46.211 9.816,-8.824 17.128,-10.117 57.289,-10.125 39.07,-0.01 45.64,1.129 55.3,9.574 5.168,4.516 10.122,17.352 8.735,22.633 -0.664,2.519 0.144,2.734 10.344,2.734 l 11.062,0 -0.559,-8.914 c -1.492,-23.848 -11.836,-36.769 -33.332,-41.637 -12.988,-2.941 -95.683,-3.031 -106.32,-0.117 m 186.27,-0.047 c -16.336,4.594 -28.879,15.778 -32.582,29.059 -0.879,3.148 -1.469,26.828 -1.473,59.16 l -0.01,53.906 11.102,-0.418 11.105,-0.414 0.719,-52.777 c 0.492,-36.359 1.234,-53.668 2.383,-55.633 3.066,-5.246 9.773,-10.566 16.14,-12.801 21.321,-7.488 75.414,-5.523 92.938,3.379 7.469,3.793 13.976,11.754 15.933,19.5 0.965,3.813 1.559,23.86 1.559,52.606 l 0,46.437 22.926,0 0,-142.64 -21.785,0 0.504,12.125 c 0.281,6.668 0.054,12.125 -0.5,12.125 -0.555,0 -2.09,-2.27 -3.411,-5.039 -3.121,-6.547 -12.101,-14.129 -20.468,-17.278 -5.664,-2.133 -12.629,-2.551 -47.473,-2.851 -30.637,-0.262 -42.527,0.125 -47.609,1.554"
         inkscape:connector-curvature="0"
         style="fill:#006bb8" />
    </g>
    <g
       id="g4395"
       transform="matrix(0.47351,0,0,-0.47351,505.98,1102.5)">
      <path
         id="path36"
         d="m 1045.7,1609.5 c -12.574,2.394 -21.77,8.257 -27.27,17.394 -5.093,8.457 -6.171,21.344 -2.675,31.977 2.64,8.027 9.234,15.988 18.023,21.765 l 4.41,2.899 -3.277,3.601 c -6.379,7.012 -9.461,11.754 -11.461,17.633 -3.258,9.582 -2.082,21.09 2.949,28.809 4.914,7.543 13.445,12.73 23.942,14.562 4.98,0.867 14.824,0.875 19.75,0.016 15.074,-2.637 25.57,-12.078 27.648,-24.879 2.727,-16.805 -5.699,-31.055 -24.648,-41.695 l -2.622,-1.477 3.282,-3.473 c 7.179,-7.597 25.109,-25.964 25.343,-25.964 0.415,0 2.707,4.316 4.165,7.836 2.109,5.086 3.539,11.707 4.128,19.089 l 0.536,6.704 18.742,0 1.207,-1.258 1.203,-1.258 -0.457,-5.672 c -0.559,-6.953 -1.789,-13.191 -3.649,-18.48 -1.875,-5.336 -6.269,-13.899 -9.308,-18.129 -1.352,-1.883 -2.457,-3.551 -2.457,-3.7 0,-0.152 2.5,-2.847 5.558,-5.992 3.059,-3.148 7.372,-7.586 9.582,-9.863 l 4.024,-4.137 -2.008,-4.672 -21.133,0 -5.3,5.649 -5.297,5.644 -2.825,-1.875 c -6.668,-4.437 -15.382,-8.14 -23.953,-10.183 -4.058,-0.969 -6.129,-1.164 -13.859,-1.309 -6.363,-0.121 -10.047,0.012 -12.293,0.438 z m 20.473,18.886 c 2.25,0.45 5.929,1.508 8.179,2.356 4.36,1.644 10.223,4.722 10.223,5.363 0,0.34 -16.188,17.16 -28.34,29.445 l -4.156,4.207 -3.176,-2.117 c -4.633,-3.082 -9.781,-8.457 -11.5,-12 -5.293,-10.918 -0.621,-23.086 10.383,-27.023 4.664,-1.672 10.754,-1.75 18.387,-0.231 m -1.11,69.817 c 3.754,2.472 8.141,7.015 9.649,9.992 3.191,6.297 2.332,14.051 -2.024,18.223 -5.683,5.449 -20.16,5.281 -25.734,-0.293 -2.84,-2.84 -3.485,-4.692 -3.492,-10.02 -0.01,-4.234 0.129,-5.066 1.207,-7.371 1.812,-3.859 3.75,-6.477 8.265,-11.152 l 4.063,-4.207 2.543,1.433 c 1.398,0.789 3.883,2.317 5.523,3.395 m -172.97,-85.363 c -0.434,2.867 0.546,29.839 1.41,38.738 1.211,12.512 3.926,29.426 6.312,39.304 0.602,2.5 1.539,6.387 2.082,8.637 2.457,10.199 7.61,25.817 12.516,37.942 7.781,19.226 16.269,35.379 27.824,52.937 9.473,14.395 16.543,23.559 28.899,37.453 9.105,10.246 10.371,11.809 10.027,12.367 -0.129,0.211 0.047,0.274 0.394,0.141 0.383,-0.145 2.969,1.82 6.434,4.891 9.09,8.047 17.539,15.312 20.02,17.218 19.382,14.879 32.16,23.075 51.449,33.004 11.969,6.157 12.347,6.555 17.09,18.071 4.015,9.742 8.121,22.781 9.152,29.082 0.41,2.5 0.937,4.613 1.176,4.695 0.234,0.086 0.425,1.109 0.425,2.277 0,1.168 0.407,6.008 0.903,10.754 0.492,4.746 1.027,11.391 1.187,14.766 0.282,5.988 0.328,6.203 1.942,9.019 1.316,2.305 2.086,3.11 3.808,3.985 1.188,0.601 2.157,1.269 2.157,1.48 0,0.207 1.636,0.735 3.636,1.164 l 3.637,0.785 0,2.801 c 0,3.11 0.976,10.203 2.062,15.043 4.184,18.602 15.129,36.723 29.434,48.723 12.906,10.832 27.73,17.539 43.992,19.902 6.305,0.918 18.567,0.918 24.875,0 22.5,-3.269 42.317,-14.875 56.649,-33.168 9.484,-12.105 15.757,-27.019 18.148,-43.137 0.406,-2.742 0.801,-5.046 0.879,-5.124 0.074,-0.075 1.445,-0.364 3.043,-0.637 1.598,-0.274 3.227,-0.781 3.621,-1.125 0.399,-0.348 0.891,-0.473 1.098,-0.285 0.207,0.187 0.234,0.093 0.058,-0.211 -0.199,-0.348 0.321,-0.879 1.407,-1.442 0.945,-0.492 3.644,-2.84 6,-5.215 l 4.281,-4.324 0.625,-4.457 c 0.344,-2.453 0.801,-10.39 1.012,-17.637 0.355,-12.054 0.984,-19.011 2.308,-25.406 0.484,-2.34 5.156,-15.738 6.039,-17.308 0.278,-0.5 0.973,-1.809 1.543,-2.911 2.547,-4.929 9.192,-10.812 14.418,-12.765 2.035,-0.762 8.434,-5.11 8.434,-5.731 0,-0.3 3.324,-2.339 7.383,-4.527 27.691,-14.922 49.933,-31.516 72.378,-54.008 6.254,-6.265 13.411,-13.847 15.903,-16.844 2.496,-2.996 4.914,-5.859 5.379,-6.363 2.254,-2.43 12.383,-16.367 17.34,-23.859 7.39,-11.168 11.933,-19.031 18.117,-31.352 13.293,-26.496 20.668,-47.781 27.027,-77.988 0.727,-3.469 1.457,-7.43 1.617,-8.805 0.16,-1.375 0.578,-4.441 0.934,-6.816 1.594,-10.774 2.082,-15.348 2.488,-23.402 0.399,-7.989 0.684,-23.739 0.535,-29.879 l -0.062,-2.614 -32.094,0 0.188,2.614 c 0.39,5.554 -0.805,31.32 -1.907,41.011 -3.59,31.614 -12.758,62.203 -27.519,91.805 -1.801,3.617 -3.785,7.395 -4.403,8.391 -0.617,1 -2.804,4.683 -4.863,8.179 -17.898,30.446 -44.469,59.7 -73.223,80.621 -30.816,22.422 -62.031,36.786 -100.26,46.125 -3.657,0.895 -7.184,1.625 -7.844,1.625 -0.656,0 -1.551,0.188 -1.984,0.418 -0.965,0.512 -14.829,2.543 -23.508,3.45 -28.153,2.929 -58.5,1.3 -85.43,-4.586 -9.574,-2.09 -11.117,-2.492 -21.812,-5.668 -10.774,-3.2 -15.266,-4.789 -24.993,-8.836 -33.914,-14.121 -63.554,-33.918 -89.074,-59.5 -7.859,-7.879 -14.308,-14.641 -15.211,-15.957 -0.699,-1.016 -4.172,-5.157 -5.531,-6.598 -0.418,-0.441 -1.012,-1.281 -1.313,-1.863 -0.304,-0.578 -0.832,-1.363 -1.171,-1.738 -3.414,-3.75 -11.973,-16.282 -18.469,-27.036 -5.703,-9.441 -13.961,-25.843 -18.301,-36.351 -5.703,-13.813 -11.32,-31.906 -14.531,-46.805 -1.141,-5.305 -1.535,-7.629 -3.383,-20.012 -1.566,-10.504 -2.352,-22.148 -2.434,-35.996 l -0.074,-13.289 -31.98,0 -0.328,2.16 z m 225.02,304.83 c 2.055,0.699 15.07,3.925 15.945,3.957 0.297,0.011 -1.211,1.875 -3.347,4.144 -2.141,2.274 -5.426,6.176 -7.305,8.672 -1.879,2.5 -3.562,4.605 -3.746,4.676 -0.523,0.207 -1.219,-1.922 -2.934,-8.992 -0.879,-3.622 -2.097,-8.192 -2.703,-10.153 l -1.109,-3.566 1.656,0.312 c 0.91,0.168 2.504,0.598 3.543,0.95 m 156.5,1.796 c 0,0.133 -0.504,2.536 -1.121,5.34 -1.34,6.11 -2.688,17.582 -2.281,19.442 0.492,2.242 -0.364,1.488 -2.496,-2.196 -2.477,-4.281 -7.539,-11.031 -11.52,-15.359 l -2.949,-3.211 4.617,-0.797 c 2.539,-0.437 6.867,-1.379 9.613,-2.09 5.27,-1.367 6.137,-1.523 6.137,-1.129 m -112.92,6.778 c 3.5,0.351 8.918,0.906 12.043,1.23 11.367,1.176 44.785,0.715 59.492,-0.824 l 2.539,-0.262 3.633,2.942 c 11.418,9.238 20.614,22.718 24.774,36.304 l 0.785,2.563 -4.375,0.535 c -2.406,0.293 -6.133,0.816 -8.285,1.16 -5.68,0.914 -17.766,1.934 -29.489,2.496 -11.089,0.532 -39.125,0.254 -44.304,-0.437 -1.746,-0.235 -5.121,-0.551 -7.496,-0.703 -7.821,-0.504 -18.832,-1.621 -20.223,-2.055 -0.746,-0.231 -3.406,-0.731 -5.906,-1.102 -7.176,-1.074 -19.442,-3.296 -20.543,-3.726 l -1.004,-0.391 1.82,-4.523 c 3.727,-9.258 9.074,-17.192 16.727,-24.805 6.258,-6.234 10.769,-9.637 12.316,-9.297 0.625,0.141 4,0.539 7.496,0.895 m -35.441,69.965 c 3.148,0.664 11.176,2.023 19.082,3.23 2.25,0.344 5.32,0.828 6.816,1.078 1.5,0.25 7.227,0.77 12.727,1.16 5.496,0.387 11.222,0.911 12.722,1.161 3.844,0.64 41.309,0.71 52.485,0.097 9.492,-0.519 27.437,-2.347 33.66,-3.433 l 3.441,-0.602 -0.574,3.32 c -5.469,31.434 -29.66,56.004 -60.84,61.797 -6.761,1.254 -18.718,1.16 -25.55,-0.207 -30.938,-6.18 -54.336,-30.394 -59.895,-61.988 -0.367,-2.067 -0.664,-4.5 -0.664,-5.402 l 0,-1.645 1.703,0.383 c 0.938,0.211 3.137,0.683 4.887,1.051 z m -155.78,-383.8 -1.222,1.273 0,130.32 1.222,1.273 1.219,1.277 16.473,0 1.223,-1.277 1.222,-1.273 0,-130.42 -1.277,-1.223 -1.274,-1.219 -16.367,0 -1.219,1.274 z m 188.58,0 -1.219,1.273 0,130.32 1.219,1.273 1.222,1.277 16.473,0 1.219,-1.277 1.222,-1.273 0,-130.42 -1.273,-1.223 -1.277,-1.219 -16.364,0 -1.222,1.274 z m 51.8,0 -1.218,1.273 0,130.32 1.218,1.273 1.223,1.277 16.473,0 1.218,-1.273 1.219,-1.27 0.113,-28.515 0.122,-28.516 27.648,29.785 27.652,29.789 21.246,0 0.918,-1.8 c 0.508,-0.989 0.918,-2.114 0.918,-2.496 0,-0.555 -44.711,-48.879 -55.836,-60.352 l -2.539,-2.617 31.649,-31.692 31.644,-31.687 -0.929,-2.387 -0.93,-2.383 -22.449,0 -29.61,29.735 -29.613,29.734 0,-57.027 -1.273,-1.223 -1.274,-1.219 -16.367,0 -1.223,1.274 z m 154.5,0 -1.218,1.273 0,113.33 -41.184,0 -1.219,1.274 c -1.222,1.273 -1.222,1.277 -1.222,8.496 0,7.215 0,7.219 1.222,8.492 l 1.219,1.277 103.27,0 1.222,-1.277 c 1.219,-1.273 1.219,-1.277 1.219,-8.492 0,-7.219 0,-7.223 -1.219,-8.496 l -1.222,-1.274 -40.727,0 0,-113.43 -1.273,-1.223 -1.274,-1.219 -16.367,0 -1.223,1.274 z"
         inkscape:connector-curvature="0"
         style="fill:#ffffff" />
      <path
         id="path38"
         d="m 1180.2,1317.4 c -1,0.094 -4.679,0.391 -8.176,0.66 -13.98,1.074 -32.656,4.098 -46.351,7.508 -36.133,8.988 -66.789,22.391 -97.016,42.414 l -7.953,5.27 64.07,0.234 8.301,-3.422 c 27.188,-11.223 55.293,-17.988 84.172,-20.266 9.914,-0.781 27.113,-1 34.535,-0.437 3.625,0.277 9.352,0.703 12.727,0.949 3.371,0.25 7.051,0.652 8.176,0.895 1.125,0.246 4.91,0.843 8.41,1.328 19.23,2.668 42.851,9.441 63.633,18.246 l 6.382,2.707 63.977,-0.234 -7.242,-4.825 c -18.571,-12.371 -38.321,-22.695 -58.137,-30.386 -28.652,-11.121 -51.238,-16.403 -85.656,-20.028 -4.528,-0.476 -39.992,-0.972 -43.852,-0.613 m 42.262,74.086 c -26.199,2.766 -44.359,11.23 -59.148,27.57 -6.258,6.91 -13.04,18.774 -16.45,28.778 -7.179,21.05 -8.324,48.484 -3.007,72.175 4.164,18.567 12.839,35.266 24.757,47.661 7.989,8.304 15.789,14.015 25.52,18.687 14.41,6.918 28.887,9.727 47.332,9.188 14.383,-0.422 25.269,-2.399 34.73,-6.309 l 3.293,-1.363 0,-11.43 -0.01,-11.43 -2.403,-1.672 -2.402,-1.668 -4.414,1.313 c -10.906,3.242 -20.867,4.723 -31.664,4.699 -17.903,-0.035 -31.953,-4.91 -44.555,-15.465 -11.902,-9.965 -20.465,-26.379 -23.144,-44.355 -2.004,-13.422 -1.145,-31.777 2.058,-43.961 6.676,-25.387 22.485,-39.844 47.918,-43.816 9.817,-1.532 22.453,-1.309 32.488,0.574 l 4.09,0.765 0.235,50.203 -35.266,0 -1.684,1.723 -1.679,1.723 0,21.363 1.722,1.68 1.723,1.683 59.531,0 1.684,-1.722 1.68,-1.723 0,-94.672 -3.293,-1.578 c -6.254,-2.992 -18.446,-6.125 -30.332,-7.789 -5.02,-0.703 -25.125,-1.273 -29.309,-0.832 z m -484.31,5.074 -1.679,1.723 0,190.4 3.515,3.43 30.391,-0.192 c 32.144,-0.199 34.078,-0.316 43.516,-2.566 23.617,-5.637 38.539,-20.766 42.605,-43.203 0.949,-5.238 0.82,-20.516 -0.215,-25.676 -2.285,-11.379 -7.363,-20.945 -15.015,-28.293 -6.157,-5.91 -13.032,-9.965 -21.899,-12.914 -2.484,-0.828 -4.586,-1.543 -4.672,-1.586 -0.086,-0.047 11.649,-17.41 26.074,-38.594 l 26.231,-38.507 -1.418,-2.875 -1.418,-2.871 -28.445,0 -52.102,78.609 -18.976,0 0,-75.246 -1.723,-1.684 -1.723,-1.679 -21.363,0 -1.684,1.722 z m 59.735,105.95 c 15.363,2.141 24.976,8.891 28.512,20.012 2.074,6.52 2.097,15.738 0.066,22.324 -1.832,5.93 -6.227,11.047 -12.145,14.137 -7.086,3.703 -12.211,4.441 -33.203,4.762 l -16.472,0.25 0,-62.5 14.882,0.265 c 8.184,0.145 16.446,0.485 18.36,0.75 z m 97.945,-105.95 -1.68,1.723 0,190.4 1.723,1.68 1.723,1.683 21.359,0 3.367,-3.445 0,-190.4 -1.722,-1.684 -1.723,-1.679 -21.363,0 -1.684,1.722 z m 68.164,0 -1.683,1.723 0,190.4 1.722,1.68 1.723,1.683 11.57,-0.019 11.567,-0.016 30.902,-49.316 c 35.867,-57.254 45.211,-72.352 53.734,-86.84 3.414,-5.801 6.262,-10.492 6.328,-10.422 0.071,0.067 -0.07,5.836 -0.312,12.82 -0.238,6.981 -0.438,39.184 -0.441,71.559 l -0.012,58.871 1.722,1.68 1.727,1.683 21.359,0 3.368,-3.445 0,-190.4 -1.723,-1.684 -1.727,-1.679 -23.132,0.015 -34.082,54.375 c -35.118,56.027 -43.239,69.141 -51.993,83.973 l -5.097,8.637 0.242,-3.864 c 0.137,-2.125 0.375,-34.402 0.535,-71.726 l 0.293,-67.864 -1.734,-1.773 -1.731,-1.773 -21.441,0 -1.684,1.722 z m 362.16,0 -1.679,1.723 0,190.4 1.722,1.68 1.723,1.683 103.61,0 3.368,-3.445 0,-21.363 -1.727,-1.684 -1.723,-1.679 -78.8,0 0,-54.075 69.339,0 1.684,-1.726 1.684,-1.723 0,-21.359 -1.723,-1.684 -1.727,-1.683 -69.257,0 0,-58.618 83.425,0 3.367,-3.445 0,-21.363 -1.722,-1.684 -1.727,-1.679 -108.15,0 -1.684,1.722 z m 146.78,0 -1.684,1.723 0,190.4 1.723,1.68 1.722,1.683 11.571,-0.019 11.566,-0.016 30.899,-49.316 c 35.871,-57.254 45.214,-72.352 53.738,-86.84 3.414,-5.801 6.262,-10.492 6.328,-10.422 0.066,0.067 -0.07,5.836 -0.313,12.82 -0.238,6.981 -0.437,39.184 -0.445,71.559 l -0.01,58.871 1.723,1.68 1.723,1.683 21.363,0 1.683,-1.722 1.68,-1.723 0,-190.4 -1.722,-1.684 -1.723,-1.679 -11.567,0.01 -11.57,0.01 -34.078,54.375 c -35.117,56.027 -43.238,69.141 -51.992,83.973 l -5.098,8.637 0.242,-3.864 c 0.133,-2.125 0.375,-34.402 0.536,-71.726 l 0.292,-67.864 -1.734,-1.773 -1.73,-1.773 -21.446,0 -1.679,1.722 z"
         inkscape:connector-curvature="0"
         style="fill:#03529e" />
    </g>
  </g>
</svg>
