<svg xmlns:xlink="http://www.w3.org/1999/xlink" id="ringen" version="1.1" viewBox="0 0 6e3 2500" xml:space="preserve" xmlns="http://www.w3.org/2000/svg"><rect id="bakgrunn" y="-3.4106e-13" width="6e3" height="2500" style="fill:#fff;stroke-width:1.118"/><defs><linearGradient id="linearGradient82" x1="-55.925" x2="-44.456" y1="127.27" y2="127.27" gradientTransform="matrix(5.1923,0,0,5.1923,1118.7,197.12)" gradientUnits="userSpaceOnUse"><stop stop-color="#9fc53a" offset="0"/><stop stop-color="#9fc53a" offset=".49"/><stop stop-color="#8cbf38" offset=".518"/><stop stop-color="#76b836" offset=".56"/><stop stop-color="#65b334" offset=".61"/><stop stop-color="#5ab033" offset=".672"/><stop stop-color="#53ae32" offset=".759"/><stop stop-color="#51ad32" offset="1"/></linearGradient></defs><a id="holte_logo" target="_blank" xlink:href="http://www.holteconsulting.no/"><rect x="3093.8" y="1222" width="2802.6" height="493.42" style="fill:#fff"/><g transform="matrix(.56035 0 0 -.56035 3123.4 1690.6)"><path d="m713.88 473.57c-3.75-215.22-166.54-423.89-363.66-466.07-197.07-42.231-353.86 98.039-350.16 313.28 3.707 215.21 166.54 423.9 363.63 466.09 197.1 42.215 353.87-98.078 350.19-313.3" style="fill:#263d96"/><path d="m519.68 170.79h-96.004c-8.727 0-14.457 6.625-12.973 13.895l45.574 220.58c9.582 46.375 2.375 61.582-46.011 61.582-23.008 0-49.473-9.289-78.934-21.2l-53.906-260.96c-1.531-7.27-10.02-13.895-18.774-13.895h-95.992c-8.715 0-15.254 6.625-13.769 13.895l99.336 480.86c1.476 7.277 9.875 13.226 18.597 13.226h96.762c8.773 0 14.66-5.949 13.187-13.226l-28.906-139.75c44.985 21.875 79.942 29.789 127.56 29.789 115.04 0 126.58-66.86 109.37-150.32l-45.547-220.58c-1.551-7.27-10.852-13.895-19.574-13.895" style="fill:#fff"/><path d="m913.16 477.77h33.485v-117.59h0.789c12.449 30.758 38.535 37.375 80.196 37.375h47.9c62.69 0 82.56-31.531 82.56-67.36v-134.33h-33.5v126.16c0 29.199-8.18 48.281-73.19 48.281h-8.59c-78.244 0-96.165-14.805-96.165-61.52v-112.92h-33.485v281.91" style="fill:#231f20"/><path d="m1448.6 315c0 46.336-27.28 55.293-66.2 55.293h-68.15c-38.94 0-66.2-8.957-66.2-55.293v-39.707c0-46.344 27.26-55.301 66.2-55.301h68.15c38.92 0 66.2 8.957 66.2 55.301zm-234.02 1.945c0 65.422 46.32 80.602 109.8 80.602h47.89c63.46 0 109.82-15.18 109.82-80.602v-43.621c0-65.402-46.36-80.59-109.82-80.59h-47.89c-63.48 0-109.8 15.188-109.8 80.59v43.621" style="fill:#231f20"/><path d="m1543.2 477.77h33.48v-281.91h-33.48v281.91" style="fill:#231f20"/><path d="m1662.3 367.2h-43.59v27.246h43.59v47.114h33.52v-47.114h132.77v-27.246h-132.77v-98.918c0-36.984 12.84-48.281 49.43-48.281h10.51c44.4 0 51.4 9.352 51.4 51.004v14.813h27.26v-21.813c0-39.719-3.88-71.262-76.31-71.262h-18.31c-62.68 0-77.5 30.371-77.5 62.692v111.76" style="fill:#231f20"/><path d="m2087.1 329.8c0 20.25-15.2 40.492-69.69 40.492h-49.07c-52.95 0-65.42-8.559-68.51-53.738h187.27zm-220.77-12.461c0 72.031 49.82 80.207 97.34 80.207h53.74c59.95 0 103.18-15.18 103.18-86.059v-22.191h-220.76v-12.461c0-45.16 21.78-56.844 80.18-56.844h45.97c42.04 0 59.17 5.457 61.12 35.82h33.49v-3.886c0-45.559-37.77-59.192-100.07-59.192h-60.75c-43.62 0-93.44 8.184-93.44 81.387v43.219" style="fill:#231f20"/><path d="m2351.9 317.34c0 72.031 50.62 80.207 99.69 80.207h56.06c62.3 0 86.83-25.293 86.83-67.36v-5.461h-31.15v4.68c0 33.094-21.77 40.887-55.28 40.887h-61.53c-31.52 0-61.13-4.672-61.13-54.125v-41.66c0-44.395 27.27-54.516 67.76-54.516h56.45c31.16 0 57.24 9.352 57.24 41.668v6.613h31.16v-5.836c0-50.234-24.94-69.703-87.23-69.703h-75.53c-29.98 0-83.34 8.184-83.34 80.203v44.403" style="fill:#231f20"/><path d="m2876.8 315c0 46.336-27.24 55.293-66.17 55.293h-68.18c-38.93 0-66.16-8.957-66.16-55.293v-39.707c0-46.344 27.23-55.301 66.16-55.301h68.18c38.93 0 66.17 8.957 66.17 55.301zm-234 1.945c0 65.422 46.35 80.602 109.78 80.602h47.93c63.44 0 109.79-15.18 109.79-80.602v-43.621c0-65.402-46.35-80.59-109.79-80.59h-47.93c-63.43 0-109.78 15.188-109.78 80.59v43.621" style="fill:#231f20"/><path d="m2966.7 394.44h31.17v-34.265h0.76c12.47 30.758 38.55 37.375 80.21 37.375h50.21c62.7 0 82.57-31.531 82.57-67.36v-134.33h-33.5v126.16c0 29.199-8.2 48.281-73.17 48.281h-8.58c-78.29 0-96.21-14.805-96.21-61.52v-112.92h-33.46v198.58" style="fill:#231f20"/><path d="m3267.3 264.39h31.13v-9.739c0-24.535 12.85-34.656 47.1-34.656h71.61c50.27 0 66.21 1.945 66.21 31.551v1.543c0 19.094-5.45 29.605-45.57 29.605h-103.17c-47.07 0-64.65 15.188-64.65 52.953v11.661c0 32.332 18.33 50.242 100.84 50.242h51.4c75.58 0 86.09-21.805 86.09-49.848v-10.512h-31.15v1.95c0 30.382-20.24 31.156-56.86 31.156h-58.39c-47.91 0-58.4-4.672-58.4-27.254v-7.395c0-16.367 5.41-25.703 40.48-25.703h88.42c50.2 0 84.45-5.062 84.45-58.8v-0.778c0-55.679-51.37-57.629-92.24-57.629h-61.59c-49.41 0-95.71 0-95.71 59.578v12.075" style="fill:#231f20"/><path d="m3786.4 230.12h-0.81c-12.45-30.758-38.53-37.379-80.19-37.379h-50.26c-62.67 0-82.56 31.543-82.56 67.375v134.33h33.5v-126.16c0-29.191 8.18-48.281 73.23-48.281h8.57c78.22 0 96.18 14.789 96.18 61.52v112.92h33.48v-198.58h-31.14v34.258" style="fill:#231f20"/><path d="m3885.2 477.77h33.5v-281.91h-33.5v281.91" style="fill:#231f20"/><path d="m4004.4 367.2h-43.63v27.246h43.63v47.114h33.48v-47.114h132.73v-27.246h-132.73v-98.918c0-36.984 12.85-48.281 49.45-48.281h10.51c44.37 0 51.41 9.352 51.41 51.004v14.813h27.21v-21.813c0-39.719-3.88-71.262-76.31-71.262h-18.29c-62.69 0-77.46 30.371-77.46 62.692v111.76" style="fill:#231f20"/><path d="m4222.1 394.44h33.47v-198.58h-33.47zm0 83.329h33.47v-36.614h-33.47v36.614" style="fill:#231f20"/><path d="m4323.3 394.44h31.14v-34.265h0.82c12.43 30.758 38.52 37.375 80.21 37.375h50.21c62.68 0 82.54-31.531 82.54-67.36v-134.33h-33.51v126.16c0 29.199-8.16 48.281-73.17 48.281h-8.58c-78.25 0-96.19-14.805-96.19-61.52v-112.92h-33.47v198.58" style="fill:#231f20"/><path d="m4842.7 309.55c0.81 37.008-12.44 60.75-59.58 60.75h-68.15c-34.25 0-58.78-9.344-59.19-42.055v-36.597c-0.39-45.555 15.97-59.582 56.84-59.582h64.66c47.92 0 65.42 19.082 65.42 53.347zm33.49-113.31c0-59.968-52.56-72.027-94.25-72.027h-75.49c-61.57 0-77.88 33.879-77.88 59.187v6.606h31.14v-5.441c0-25.704 26.44-33.098 57.6-33.098h32.72c66.2 0 92.67 0.777 92.67 54.515v29.59h-0.78c-6.98-18.695-20.64-30.75-67.37-30.75h-68.89c-55.72 0-83.36 28.414-83.36 79.426v33.098c0 72.031 52.19 80.207 89.54 80.207h71.28c25.32 0 50.6-6.227 61.14-38.547h0.76v35.437h31.17v-198.2" style="fill:#231f20"/></g></a><a id="norkart_logo" target="_blank" xlink:href="https://www.norkart.no/"><rect x="1134.4" y="1296.9" width="1795.3" height="435.94" style="fill:#fff"/><g transform="matrix(1.6614,0,0,-1.6614,895.53,3075.9)"><path d="m983.73 962.68 59.769-69.446c0.074-0.109 0.242-0.164 0.344-0.164h26.828c0.191 0 0.437 0.27 0.223 0.539l-44.981 51.625s38.625 4.223 39.516 45.84c0.347 16.34-11.117 46.895-50.844 46.114h-61.523c-0.329 0-0.457-0.278-0.457-0.461v-143.22c0-0.324 0.296-0.434 0.457-0.434h23.605c0.27 0 0.438 0.215 0.438 0.461v121.34h38.777c21.66 0 27.961-16.684 27.801-26.668-0.379-19.738-21.5-24.828-38.539-24.828h-21.09c-0.164 0-0.324-0.102-0.379-0.27-0.082-0.129-0.055-0.324 0.055-0.429zm-452 0 59.738-69.446c0.105-0.109 0.273-0.164 0.375-0.164h26.801c0.222 0 0.465 0.27 0.222 0.539l-44.976 51.625s38.648 4.223 39.512 45.84c0.347 16.34-11.118 46.895-50.817 46.114h-61.551c-0.297 0-0.429-0.278-0.429-0.461v-143.22c0-0.324 0.297-0.434 0.457-0.434h23.609c0.266 0 0.434 0.215 0.434 0.461v121.34h38.773c21.668 0 27.965-16.684 27.777-26.668-0.351-19.738-21.5-24.828-38.535-24.828h-21.066c-0.195 0-0.324-0.074-0.406-0.27-0.055-0.129-0.055-0.296 0.054-0.429h0.028zm326.62 95.086c-0.243 0-0.371-0.192-0.399-0.27l-70.7-163.86c-0.082-0.157 0.031-0.567 0.457-0.567h24.129c0.242 0 0.398 0.11 0.512 0.352l45.996 106.6 45.949-106.49c0.113-0.246 0.215-0.461 0.484-0.461h24.262c0.269 0 0.539 0.27 0.406 0.594l-70.72 163.84c-0.058 0.164-0.214 0.27-0.382 0.27zm294.07-164.7h-23.801c-0.269 0-0.43 0.243-0.43 0.461v120.93h-43.808c-0.27 0-0.438 0.273-0.438 0.437v21.825c0 0.378 0.325 0.461 0.465 0.461h112.26c0.348 0 0.457-0.278 0.457-0.52v-21.766c0-0.195-0.16-0.437-0.437-0.437h-43.809v-120.93c0.027-0.246-0.188-0.461-0.43-0.461h-0.027zm-472.02 0h-23.496c-0.242 0-0.465 0.188-0.465 0.434v143.22c0 0.211 0.168 0.461 0.465 0.461h23.528c0.296 0 0.433-0.278 0.433-0.461v-143.2c0-0.164-0.082-0.461-0.433-0.461h-0.032zm96.766 143.36-62.633-72.91 59.953-69.715c0.114-0.086 0.168-0.274 0.082-0.492-0.082-0.161-0.211-0.243-0.379-0.243h-26.175c-0.243 0-0.465 0.11-0.598 0.27l-60.277 69.937c-0.164 0.215-0.082 0.457 0 0.571l62.765 73.062c0.164 0.195 0.406 0.278 0.625 0.278h26.313c0.133 0 0.297-0.055 0.406-0.25 0.105-0.161 0.051-0.372-0.082-0.508zm-383.39 3.2152c-44.136 0-75.317-33.887-75.317-74.508 0-40.672 30.773-74.125 74.906-74.125 44.137 0 75.348 33.863 75.348 74.508 0 40.648-30.804 74.125-74.938 74.125zm-0.41094-23.205c28.532 0 48.872-23.202 48.872-51.303 0-28.149-19.906-50.919-48.461-50.919-28.531 0-48.844 23.199-48.844 51.328 0 28.094 19.902 50.894 48.433 50.894zm-202.67-123.43h-23.207c-0.211 0-0.457 0.164-0.457 0.461v143.16c0 0.356 0.269 0.493 0.457 0.493h21.883c0.32 0 0.484-0.137 0.589-0.297l74.508-100.74v100.58c0 0.296 0.242 0.461 0.465 0.461h23.199c0.27 0 0.438-0.25 0.438-0.493v-143.16c0-0.297-0.246-0.461-0.41-0.461h-19.766c-0.223 0-0.383 0.028-0.57 0.297l-76.68 103.62v-103.46c0-0.191-0.16-0.461-0.457-0.461z" style="fill:#0f0f0f"/><path d="m858.67 823.06 29.48 69.391c0.055 0.137 0.028 0.297-0.054 0.41-0.055 0.106-0.133 0.215-0.375 0.215h-58.899c-0.168 0-0.328-0.082-0.41-0.215-0.082-0.14-0.082-0.301-0.027-0.437l29.453-69.364c0.051-0.136 0.183-0.269 0.406-0.269 0.188-0.027 0.352 0.078 0.426 0.242z" style="fill:url(#linearGradient82)"/></g></a><a id="aker_logo" transform="translate(0,-600)" target="_blank" xlink:href="http://akersolutions.com/"><rect x="131.25" y="1245.3" width="2240.6" height="365.62" style="fill:#fff"/><g transform="matrix(1.6722,0,0,-1.6722,-1305.6,2342.6)"><g transform="translate(0,-137.6)"><path d="m1004.3 771.2h-34.457v-82.715h79.246v35.969h-44.789z" style="fill:#8a96a1"/><path d="m959.56 771.2h-79.246v-176.22h168.83v82.715h-89.582v93.5z" style="fill:#003045"/><path d="m1014.7 771.2h34.457v-35.965h-34.457z" style="fill:#ff8000"/></g><path transform="matrix(.8 0 0 -.8 0 2400)" d="m1456.1 2266.5-58.539 161.61h34.246l12.144-35.982h57.885l11.695 35.982h35.352l-57.904-161.61zm103.01 0v161.61h30.775v-40.277l11.943-12.008 30.762 52.285h37.305l-47.06-74 42.275-43.018h-36.42l-38.814 42.111v-86.701h-30.766zm-86.109 39.836h0.414l19.522 59.32h-40.111l20.176-59.32zm250.56 1.5762c-8.525 0-16.293 1.5869-23.305 4.7656-7.0212 3.1538-13.056 7.484-18.125 13.022-5.0387 5.5175-8.9418 12.026-11.686 19.58-2.7438 7.5388-4.1406 15.701-4.1406 24.436 0 9.0675 1.3529 17.367 4.0429 24.887 2.6563 7.5587 6.4558 14.018 11.363 19.467 4.9213 5.425 10.912 9.6009 17.988 12.555 7.1187 2.9637 15.039 4.4375 23.861 4.4375 12.72 0 23.569-3.0323 32.529-9.0723 8.965-6.045 15.62-16.064 19.951-30.098h-27.1c-1.015 3.6375-3.7695 7.0615-8.252 10.303-4.4812 3.2575-9.8289 4.8691-16.035 4.8691-8.6813 0-15.308-2.3242-19.941-7.0117-4.6388-4.6675-7.1574-12.207-7.6211-22.627h80.896c0.5625-9.0625-0.1454-17.735-2.1817-26.025-2.0062-8.3112-5.3075-15.684-9.8437-22.184-4.575-6.5125-10.385-11.684-17.461-15.541-7.0837-3.8375-15.38-5.7617-24.941-5.7617zm136.28 0.01c-3.9012 0-7.6516 0.6065-11.275 1.8027-3.6275 1.2063-7.0115 2.9091-10.195 5.1016-3.1737 2.1675-5.991 4.8236-8.4473 7.9336-2.4562 3.0962-4.3937 6.4661-5.8437 10.09h-0.4395v-21.76h-29.273v117.02h30.797v-52.73c0-5.2775 0.4915-10.17 1.5215-14.701 0.9962-4.5313 2.6925-8.491 5.08-11.885 2.3925-3.3987 5.5207-6.0601 9.4219-8.0176 3.9113-1.9737 8.6823-2.955 14.322-2.955 1.865 0 3.8382 0.114 5.8457 0.334 2.0012 0.2387 3.749 0.4911 5.209 0.7949v-29.896c-2.4663-0.7475-4.7164-1.1289-6.7227-1.1289zm-137.13 24.244c7.515 0 13.12 2.1035 16.807 6.3223 3.6775 4.2437 6.2392 10.406 7.6992 18.574h-50.107c0.1512-2.2612 0.6247-4.8242 1.416-7.6992 0.8062-2.8713 2.1791-5.5827 4.1328-8.1465 1.9488-2.5737 4.5495-4.7213 7.8008-6.4551 3.2575-1.7337 7.3294-2.5957 12.252-2.5957z" style="fill:#003045"/><path transform="matrix(.8 0 0 -.8 0 2400)" d="m1940.2 2262.7c-7.095 0-13.988 0.952-20.707 2.832-6.7238 1.89-12.734 4.743-17.998 8.6055-5.2825 3.8475-9.4874 8.7486-12.67 14.701-3.1937 5.9713-4.7812 13.012-4.7812 21.166 0 7.3975 1.3914 13.56 4.2226 18.463 2.8175 4.9113 6.5835 8.907 11.291 12.002 4.6913 3.0812 10 5.5751 15.938 7.4551 5.9175 1.9 11.953 3.5552 18.106 4.9902 6.1425 1.4412 12.176 2.818 18.113 4.1855 5.9175 1.3625 11.227 3.12 15.943 5.3125 4.6826 2.2075 8.4482 5.0328 11.266 8.4903 2.8075 3.4812 4.2129 8.0127 4.2129 13.584 0 5.8837-1.1632 10.718-3.4532 14.478-2.3287 3.785-5.3611 6.7491-9.1211 8.9316-3.755 2.1825-7.9958 3.7449-12.693 4.6387-4.6925 0.9325-9.3716 1.3652-13.977 1.3652-5.7812 0-11.429-0.746-16.902-2.2597-5.5125-1.4988-10.302-3.8568-14.434-7.0118-4.1113-3.1787-7.4468-7.1966-9.9668-12.119-2.5288-4.8925-3.8086-10.742-3.8086-17.523h-19.496c0 9.8037 1.6833 18.286 5.082 25.459 3.3988 7.1488 8.0178 13.041 13.883 17.631 5.8638 4.62 12.636 8.0314 20.375 10.316 7.74 2.2563 15.933 3.3887 24.6 3.3887 7.1187 0 14.213-0.8737 21.377-2.6074 7.1388-1.7238 13.612-4.5297 19.389-8.3672 5.7912-3.8475 10.529-8.82 14.215-14.938 3.6925-6.0988 5.5313-13.473 5.5313-22.057 0-7.9975-1.4162-14.629-4.2324-19.902-2.8088-5.3025-6.5818-9.6761-11.279-13.152-4.6925-3.4725-10.01-6.2267-15.938-8.248-5.9175-2.0412-11.953-3.8184-18.115-5.3359-6.1525-1.5-12.167-2.8868-18.096-4.1856-5.9275-1.2787-11.245-2.8865-15.938-4.834-4.7062-1.9825-8.457-4.513-11.27-7.623-2.8275-3.095-4.2344-7.1233-4.2344-12.113 0-5.2837 0.9781-9.6913 2.9219-13.236 1.9675-3.545 4.565-6.3922 7.8125-8.4922 3.2562-2.115 6.9859-3.6138 11.18-4.5313 4.19-0.9087 8.4589-1.3574 12.785-1.3574 10.698 0 19.477 2.6125 26.352 7.8125 6.87 5.2 10.88 13.613 12.027 25.238h19.52c-0.2925-8.9063-1.9239-16.567-4.8926-22.992-2.9588-6.3962-7.0053-11.713-12.133-15.941-5.1225-4.2187-11.105-7.3303-17.867-9.2891-6.8163-1.9425-14.204-2.9296-22.139-2.9296zm201.14 3.8476v161.61h18.438v-161.61zm225.73 0v23.531h18.453v-23.531zm-59.096 9.502v35.088h-19.059v17.002h19.059v74.463c0 5.415 0.5263 9.7901 1.5313 13.111 0.9875 3.315 2.5307 5.8646 4.6445 7.6758 2.08 1.8363 4.8344 3.0663 8.2519 3.75 3.4075 0.6938 7.4693 1.0156 12.23 1.0156h14.123v-16.973h-8.4727c-2.9062 0-5.255-0.1129-7.0312-0.3379-1.8463-0.22-3.2365-0.7021-4.2227-1.4746-1.04-0.7613-1.7238-1.8205-2.0801-3.168-0.3612-1.3625-0.5371-3.1645-0.5371-5.4258v-72.637h22.344v-17.002h-22.33v-35.088h-18.451zm373.25 32.354c-4.9162 0-9.8827 0.6401-14.834 1.9238-4.995 1.2988-9.4961 3.2574-13.451 5.8887-3.99 2.6412-7.2367 6.0837-9.7754 10.312-2.5188 4.2437-3.7989 9.278-3.7989 15.186 0 7.54 1.8255 13.438 5.4493 17.648 3.6225 4.2037 8.1248 7.4952 13.558 9.8339 5.425 2.3488 11.3 4.1586 17.643 5.4473 6.3925 1.275 12.276 2.7059 17.691 4.2734 5.41 1.6013 9.9212 3.6805 13.545 6.2305 3.6037 2.5725 5.4472 6.356 5.4472 11.322 0 3.6275-0.901 6.6276-2.6347 8.9414-1.7288 2.3487-3.9375 4.1075-6.6075 5.3125-2.6762 1.2312-5.5816 2.0508-8.7754 2.5195-3.1887 0.435-6.1998 0.6582-9.0898 0.6582-3.755 0-7.4413-0.3557-10.986-1.1269-3.5213-0.7513-6.705-2.0015-9.5313-3.7403-2.8087-1.7237-5.0946-4.0729-6.8183-7.0117-1.7475-2.955-2.6789-6.5136-2.8301-10.777h-18.414c0.2888 7.2512 1.7224 13.414 4.3399 18.463 2.5925 5.0437 6.09 9.1157 10.406 12.207 4.3213 3.1 9.2966 5.3138 14.945 6.7051 5.645 1.3375 11.554 2.0097 17.785 2.0097 5.615 0 11.317-0.56 17.02-1.6875 5.7038-1.1187 10.861-3.1011 15.416-5.9961 4.5213-2.8662 8.1983-6.6469 11.02-11.314 2.8175-4.6875 4.2343-10.561 4.2343-17.656 0-5.5812-1.0408-10.249-3.1308-14.029-2.1138-3.7587-4.8487-6.9134-8.2324-9.3984-3.3888-2.485-7.29-4.4773-11.719-5.9961-4.4287-1.4887-8.9401-2.7781-13.549-3.8281-4.3413-1.0488-8.6824-2.0949-13.014-3.0762-4.34-0.9625-8.2506-2.1733-11.703-3.6133-3.4763-1.4212-6.337-3.2315-8.5645-5.414-2.275-2.2075-3.3691-4.9365-3.3691-8.2715 0-3.0175 0.7169-5.47 2.1582-7.375 1.465-1.88 3.3447-3.3881 5.6484-4.5156 2.315-1.1325 4.9085-1.928 7.6973-2.3868 2.8262-0.445 5.6054-0.6601 8.3691-0.6601 3.0225 0 6.0237 0.336 8.9825 1.0098 2.95 0.6687 5.6697 1.7783 8.1347 3.2871 2.4663 1.5137 4.4838 3.5154 6.0801 6.0117 1.5775 2.47 2.5198 5.615 2.8086 9.375h18.406c-0.41-7.085-1.854-13.023-4.3203-17.77-2.4662-4.7763-5.7558-8.5603-9.8633-11.334-4.125-2.7875-8.8538-4.7541-14.205-5.8828-5.3463-1.1325-11.186-1.7051-17.568-1.7051zm-611.3 0.016c-8.7988 0-16.61 1.5869-23.406 4.7656-6.8062 3.145-12.511 7.4703-17.144 13.022-4.6187 5.4938-8.0905 11.993-10.404 19.459-2.305 7.485-3.4766 15.508-3.4766 24.111 0 8.5838 1.1716 16.591 3.4766 23.988 2.3238 7.4075 5.7856 13.829 10.404 19.356 4.6338 5.4937 10.338 9.7911 17.144 12.902 6.7825 3.0863 14.608 4.6172 23.406 4.6172 8.965 0 16.803-1.5309 23.522-4.6172 6.7237-3.1112 12.403-7.4086 17.022-12.902 4.6-5.5263 8.0966-11.948 10.4-19.356 2.305-7.3975 3.4805-15.404 3.4805-23.988 0-8.6037-1.1755-16.626-3.4805-24.111-2.3037-7.4663-5.7916-13.965-10.4-19.459-4.6188-5.5362-10.298-9.8665-17.022-13.022-6.7188-3.1787-14.556-4.7656-23.522-4.7656zm387 0c-8.8137 0-16.626 1.5869-23.422 4.7656-6.7875 3.145-12.491 7.4703-17.145 13.022-4.6187 5.4938-8.0817 11.993-10.387 19.459-2.3037 7.485-3.4777 15.508-3.4902 24.111 0 8.5838 1.1865 16.591 3.4902 23.988 2.305 7.4075 5.768 13.829 10.387 19.356 4.6538 5.4937 10.357 9.7911 17.145 12.902 6.8062 3.0863 14.618 4.6172 23.422 4.6172 8.96 0 16.773-1.5309 23.525-4.6172 6.7138-3.1112 12.392-7.4086 17.025-12.902 4.63-5.5263 8.0917-11.948 10.387-19.356 2.3488-7.3975 3.5059-15.404 3.5059-23.988 0-8.6037-1.1721-16.626-3.5059-24.111-2.295-7.4663-5.7667-13.965-10.387-19.459-4.6337-5.5362-10.302-9.8665-17.025-13.022-6.7525-3.1787-14.575-4.7656-23.525-4.7656zm125.59 0c-16.626 0-28.771 7.0801-36.422 21.299h-0.4375v-18.58h-17.35v117.03h18.438v-66.08c0-5.2825 0.6883-10.136 2.0508-14.613 1.3625-4.4288 3.4271-8.3252 6.1621-11.66 2.7537-3.3012 6.2062-5.8614 10.312-7.6777 4.16-1.8212 9.0045-2.7187 14.644-2.7187 7.075 0 12.66 2.0951 16.697 6.3476 4.0525 4.2288 6.08 9.9563 6.08 17.174v79.229h18.428v-76.934c0-6.3525-0.624-12.12-1.8653-17.33-1.22-5.215-3.345-9.7011-6.3925-13.496-3.0075-3.7688-6.9953-6.714-11.928-8.8027-4.8875-2.1388-11.04-3.1895-18.418-3.1895zm-399.15 2.7188v76.965c0 6.3575 0.6308 12.104 1.832 17.309 1.2313 5.215 3.3442 9.7026 6.4004 13.473 3.0225 3.7938 6.9887 6.6799 11.92 8.7149 4.9325 2.0462 11.049 3.0527 18.428 3.0527 8.2512 0 15.41-1.6904 21.478-5.0879 6.055-3.4037 11.041-8.7157 14.957-15.957h0.4258v18.549h17.367v-117.02h-18.447v66.1c0 5.2837-0.678 10.171-2.0605 14.59-1.3713 4.4638-3.4438 8.3603-6.1875 11.695-2.71 3.3-6.1701 5.8576-10.268 7.6738-4.1263 1.8025-9.0136 2.7051-14.652 2.7051-7.085 0-12.647-2.088-16.68-6.3418-4.0625-4.2087-6.0762-9.9462-6.0762-17.188v-79.234h-18.438zm183.71 0v117.02h18.453v-117.02zm-297.15 14.287c4.77 0 9.2913 0.9491 13.549 2.9316 4.2775 1.9575 8.0079 4.8338 11.182 8.5938 3.1738 3.7937 5.6793 8.4219 7.4805 13.939 1.8025 5.4838 2.7149 11.802 2.7149 18.887 0 7.09-0.9124 13.369-2.7149 18.896-1.8012 5.4925-4.3067 10.112-7.4805 13.809-3.1837 3.6813-6.9041 6.5091-11.182 8.4766-4.2575 1.9575-8.7888 2.9355-13.549 2.9355-4.7813 0-9.2831-0.963-13.561-2.9355-4.2437-1.9675-7.9894-4.7853-11.158-8.4766-3.1837-3.6962-5.6833-8.3161-7.4746-13.809-1.8075-5.5175-2.709-11.806-2.709-18.896 0-7.085 0.9015-13.403 2.709-18.887 1.7813-5.5275 4.2909-10.146 7.4746-13.939 3.1688-3.76 6.9007-6.6363 11.158-8.5938 4.2775-1.9675 8.7793-2.9316 13.561-2.9316zm386.99 0c4.7613 0 9.2739 0.9491 13.566 2.9316 4.2625 1.9575 7.9825 4.8338 11.156 8.5938 3.1737 3.7937 5.6494 8.4219 7.4707 13.939 1.8025 5.4838 2.7343 11.802 2.7343 18.887 0 7.09-0.9231 13.369-2.7343 18.896-1.8113 5.4925-4.287 10.112-7.4707 13.809-3.1738 3.6813-6.9038 6.5091-11.156 8.4766-4.2775 1.9575-8.7951 2.9355-13.566 2.9355-4.78 0-9.2912-0.963-13.545-2.9355-4.2675-1.9675-8.0062-4.7853-11.17-8.4766-3.1738-3.6962-5.6602-8.3161-7.4727-13.809-1.8212-5.5175-2.7148-11.806-2.7148-18.896 0-7.085 0.8936-13.403 2.7148-18.887 1.8125-5.5275 4.2989-10.146 7.4727-13.939 3.1637-3.76 6.9024-6.6363 11.17-8.5938 4.2537-1.9675 8.7649-2.9316 13.545-2.9316z" style="fill:#8a96a1"/></g></a><a id="anko_logo" target="_blank" xlink:href="http://anko.no/"><rect x="112.5" y="1132.8" width="829.69" height="712.5" style="fill:#fff"/><g transform="matrix(1.6567,0,0,-1.6567,-126.84,2358)"><path transform="matrix(.8 0 0 -.8 0 2400)" d="m208.77 2094.1v374.93l285.27-346.89 285.28 346.89v-374.93zm285.28 132.8c-50.272 0-91.025 40.753-91.025 91.025 0 50.269 40.753 91.021 91.025 91.021 50.269 0 91.021-40.753 91.021-91.021 0-50.272-40.753-91.025-91.021-91.025z" style="fill:#0f1c7d"/><g transform="translate(0,-137.6)"><path d="m209.05 564.37-20.403-98.602h41.11l2.472 17.617 14.836 0.309 1.547-17.926h40.801l-23.184 98.602zm30.656-23.493 6.125-40.027h-14.219z"/><path d="m296.91 465.77v98.598h32.996l22.489-44.352v44.352h33.769v-98.598h-34.93l-21.121 43.734v-43.734z"/><path d="m401.96 564.37v-98.602h39.996v42.117l16.5-42.117h41.121l-25.492 53.918 23.746 44.684h-37.844l-18.031-38.782v38.782z"/><path d="m548.18 566.77c-8.524-0.094-34.938-0.984-43.731-17.484-4.394-8.25-2.402-21.621-2.402-31.598s-1.535-33.254 5.683-40.777c3.395-3.539 15.973-13.551 40.45-12.676 24.48-0.875 37.058 9.137 40.453 12.676 7.219 7.523 5.683 30.8 5.683 40.777s1.993 23.348-2.406 31.598c-8.793 16.5-35.207 17.39-43.73 17.484m0-17.047c1.519-0.176 6.351 0.375 6.316-5.558-0.105-17.379-0.078-35.782 0-58.469 0.016-4.703-2.601-5.422-6.316-5.422s-6.328 0.719-6.313 5.422c0.078 22.687 0.106 41.09 0 58.469-0.035 5.933 4.797 5.382 6.313 5.558"/></g></g></a><a id="focus_logo" target="_blank" xlink:href="https://www.focus.no/"><rect x="4471.9" y="626.56" width="1448.4" height="590.62" style="fill:#fff"/><g id="focus_indre" transform="matrix(1.5634,0,0,-1.5634,2425.8,2376.7)"><path d="m1374.8 771.09c-2.758 0.781-6.148 2.43-7.531 3.668-3.43 3.059-6.797 10.062-6.797 14.129 0 2.875 0.707 3.347 5.016 3.347 4.316 0 5.015-0.468 5.015-3.375 0-2.781 1.332-5.062 2.969-7.128 2.863-4.192 19.976-3.758 28.719-3.758 25.433 0 25.8 0.043 29.273 3.5 4.328 4.312 4.684 11.863 0.777 16.668-2.66 3.273-3.519 3.386-30.449 4.168-30.168 0.875-34.301 1.836-37.347 8.687-2.899 6.453-3.711 13.879-0.516 20.981 5.394 8.511 9.328 9.468 38.812 9.468 21.481 0 26.528-0.402 30.192-2.402 6.14-3.348 7.918-5.871 8.812-12.519 0.758-5.641 0.684-5.762-3.597-5.762-3.696 0-4.52 0.664-5.317 4.277-1.715 7.778-4.554 8.563-30.969 8.563-21.378 0-24.234-0.285-27.261-2.727-2.656-2.141-3.383-4.121-3.383-9.199 0-3.563 0.836-7.309 1.859-8.328 1.332-1.336 9.602-2.078 29.371-2.649 22.122-0.64 28.426-1.273 32.161-3.242 7.437-3.914 9.39-8.121 8.711-18.746-0.708-11.062-3.958-15.367-13.391-17.734-7.668-1.922-48.234-1.84-55.129 0.113m105.31 0.418c-11.402 4.129-14.124 11.84-13.347 37.785 0.648 21.566 2.414 25.977 12.097 30.242 5.872 2.582 9.032 2.789 36.336 2.371 33.411-0.515 35.254-1.027 40.497-11.257 3.648-7.129 3.648-42.598 0-49.723-5.25-10.246-7.098-10.758-40.219-11.149-23.043-0.269-30.903 0.118-35.364 1.731m63.391 8.644c1.719 1.2 3.793 4.571 4.609 7.489 1.911 6.851 1.911 29.441 0 36.289-2.574 9.222-4.265 9.676-35.718 9.625-29.274-0.047-30.832-0.348-34.196-6.637-2.168-4.051-2.222-37.613-0.07-42.316 0.879-1.918 2.973-4.153 4.656-4.961 1.754-0.848 14.692-1.52 30.325-1.574 22.261-0.079 27.839 0.304 30.394 2.085m40.492 25.633v34.949h67.344v-7.132h-58.746v-22.825h55.879v-7.07l-55.164-0.773-0.403-16.047-0.406-16.047h-8.504zm117.49-3.566v31.383h-35.821v7.132h81.672v-7.132h-35.82v-62.762h-10.031zm83.23-28.172c-0.68 1.766-6.789 16.996-13.574 33.848-6.789 16.847-12.34 31.172-12.34 31.828s2.019 0.992 4.484 0.746c4.434-0.442 4.625-0.805 16.121-30 6.399-16.258 12.012-29.574 12.473-29.602 0.465-0.023 6.164 13.469 12.664 29.985l11.828 30.027 12.961-0.859 11.488-29.598c6.321-16.281 11.887-29.578 12.375-29.551 0.489 0.024 3.723 7.246 7.192 16.047 17.285 43.891 17.246 43.816 22.426 43.816h4.687l-13.918-34.593-13.918-34.59-6.457-0.422-6.461-0.426-11.929 30.778c-6.563 16.929-12.098 30.601-12.301 30.378-0.203-0.218-5.348-13.234-11.434-28.925-6.082-15.692-11.379-29.332-11.765-30.313-0.415-1.051-3.301-1.781-7.036-1.781-5.242 0-6.539 0.551-7.566 3.207m110.41-2.074c0.277 0.726 9.535 16.488 20.566 35.019l20.063 33.696h12.894l20.059-33.731c11.035-18.551 20.277-34.265 20.539-34.922 0.262-0.66-1.84-1.195-4.672-1.195-4.636 0-5.586 0.711-9.57 7.16l-4.43 7.16-28.781-0.386-28.777-0.383-3.762-6.418c-3.281-5.602-4.453-6.477-9.199-6.871-2.992-0.25-5.211 0.14-4.93 0.871m69.762 22.879c-1.442 3.586-21.949 37.324-22.688 37.324-0.738 0-21.242-33.738-22.683-37.324-0.266-0.657 9.945-1.192 22.683-1.192 12.742 0 22.953 0.535 22.688 1.192m43.226 10.933v34.949h34.457c38.602 0 41.52-0.601 45.176-9.32 2.399-5.711 2.688-18.191 0.512-22.23-0.836-1.563-3.578-4.086-6.086-5.61-2.875-1.742-3.676-2.773-2.164-2.777 1.324 0 3.742-1.695 5.375-3.762 2.43-3.078 2.969-5.789 2.969-14.976v-11.219h-8.598v9.363c0 9.051-1.582 14.461-4.871 16.645-0.867 0.578-13.988 1.058-29.16 1.07l-27.582 0.024v-27.102h-10.028zm68.774 3.567c2.148 2.136 2.863 4.734 2.847 10.343-0.011 4.118-0.511 8.25-1.105 9.18-2.363 3.699-9.918 4.727-34.789 4.727h-25.699v-27.102h27.941c26.031 0 28.137 0.195 30.805 2.852zm37.258-3.567v34.949h70.207v-7.132h-60.18v-22.825h57.316v-7.132h-57.316v-25.676h61.613v-7.129h-71.64z" style="fill:#695e59"/><path d="m1469.1 892.12c-26.363 4.43-42.078 15.985-48.101 35.367-2.051 6.59-2.52 13.434-2.52 36.633 0 30.86 1.188 37.496 8.68 48.489 2.562 3.757 2.992 5.289 1.629 5.808-1.02 0.387-10.848 0.528-21.84 0.309l-19.992-0.403-0.375-61.691-0.371-61.691h-22.868l-0.371 61.691-0.375 61.691-30.804 0.813v18.445h31.101l0.836 13.196c1.387 21.812 7.418 33.406 20.922 40.218 9.871 4.981 20.84 6.496 46.984 6.496h23.379v-18.265l-25.433-0.496c-22.465-0.438-26.102-0.844-31.164-3.485-8.45-4.414-11.207-10.172-11.914-24.867l-0.594-12.348 11.984-0.929c6.594-0.508 44.414-0.934 84.047-0.938 78.578-0.01 86.082-0.617 101.71-8.234 9.965-4.856 19.145-14.836 23.34-25.367 3.183-7.989 3.383-10.278 3.383-39.153 0-28.836-0.203-31.172-3.364-39.113-6.668-16.73-21.812-27.598-43.929-31.523-12.473-2.211-81.828-2.696-93.981-0.653zm98.785 21.196c8.676 3.906 13.371 8.855 16.75 17.66 1.989 5.179 2.301 10.836 1.93 34.644-0.508 32.473-1.523 36.125-12.363 44.395-9.231 7.051-16.317 7.851-64.352 7.289-35.64-0.414-43.48-0.879-47.672-2.817-8.363-3.871-13.086-8.414-16.64-16.019-3.18-6.793-3.391-8.887-3.395-33.633 0-14.515 0.641-28.711 1.434-31.551 2.039-7.312 7.054-14.183 12.789-17.515 10.144-5.899 15.91-6.481 60.98-6.16 41.887 0.3 43.176 0.394 50.539 3.707m476.28-21.121c-26.516 3.425-36.856 13.707-38.551 38.328l-0.793 11.488h21.902l0.032-6.774c0.05-10.671 4.105-17.867 12.343-21.906 6.946-3.402 7.137-3.414 56.403-3.398 55.121 0.019 57.398 0.363 63.007 9.527 4.204 6.86 4.09 22.094-0.203 27.524-6.449 8.164-8.285 8.406-69.968 9.293-63 0.902-64.43 1.117-72.997 10.828-5.96 6.754-7.554 14.195-7.003 32.668 0.441 14.777 0.757 16.3 4.379 21.019 9.242 12.051 24.328 15.375 74.253 16.375 53.106 1.063 72.735-1.828 83.2-12.246 5.797-5.769 8.418-13.035 8.429-23.355l0.01-6.778h-21.117l-0.773 5.762c-1.036 7.672-4.438 12.516-10.817 15.398-4.566 2.063-11.43 2.379-51.832 2.379-50.297 0-54.719-0.547-60.156-7.429-2.328-2.95-2.887-5.786-2.887-14.684 0-12.625 2.469-17.312 10.41-19.766 2.547-0.785 27.848-1.722 56.215-2.082 42.129-0.535 53.16-1.086 60.18-3.019 18.367-5.051 25.246-14.231 26.238-35.02 0.746-15.617-1.281-22.914-8.551-30.765-6.98-7.539-16.32-11.34-32.953-13.418-13.75-1.715-85.004-1.68-98.398 0.051zm-383.2 3.42c-15.277 4.188-27.066 14.504-32.816 28.727-3.235 8.004-3.391 9.929-3.36 41.91 0.028 31.914 0.192 33.93 3.434 42.027 6.453 16.117 20.254 25.739 41.965 29.242 11.164 1.805 74.941 1.93 85.664 0.168 26.922-4.421 39.418-16.769 42.355-41.839l0.961-8.2h-21.492l-0.977 7.77c-1.273 10.16-5.582 16.367-14.402 20.758-7.023 3.496-7.898 3.574-45.543 4.008-31.594 0.363-39.754 0.046-46.113-1.797-9.645-2.789-15.34-7.477-19.633-16.153-3.148-6.359-3.336-8.316-3.336-34.558 0-32.035 1.324-37.715 10.77-46.211 9.816-8.824 17.128-10.117 57.289-10.125 39.07-0.01 45.64 1.129 55.3 9.574 5.168 4.516 10.122 17.352 8.735 22.633-0.664 2.519 0.144 2.734 10.344 2.734h11.062l-0.559-8.914c-1.492-23.848-11.836-36.769-33.332-41.637-12.988-2.941-95.683-3.031-106.32-0.117m186.27-0.047c-16.336 4.594-28.879 15.778-32.582 29.059-0.879 3.148-1.469 26.828-1.473 59.16l-0.01 53.906 11.102-0.418 11.105-0.414 0.719-52.777c0.492-36.359 1.234-53.668 2.383-55.633 3.066-5.246 9.773-10.566 16.14-12.801 21.321-7.488 75.414-5.523 92.938 3.379 7.469 3.793 13.976 11.754 15.933 19.5 0.965 3.813 1.559 23.86 1.559 52.606v46.437h22.926v-142.64h-21.785l0.504 12.125c0.281 6.668 0.054 12.125-0.5 12.125-0.555 0-2.09-2.27-3.411-5.039-3.121-6.547-12.101-14.129-20.468-17.278-5.664-2.133-12.629-2.551-47.473-2.851-30.637-0.262-42.527 0.125-47.609 1.554" style="fill:#006bb8"/></g></a><g id="ringen_logo"><path d="m2807.1-11.875c-15.718-2.9925-27.212-10.321-34.088-21.742-6.3662-10.571-7.7137-26.68-3.3437-39.971 3.3-10.034 11.542-19.985 22.529-27.206l5.5125-3.6238-4.0962-4.5012c-7.9738-8.765-11.826-14.692-14.326-22.041-4.0725-11.978-2.6025-26.362 3.6863-36.011 6.1425-9.4288 16.806-15.912 29.928-18.202 6.2249-1.0838 18.53-1.0938 24.688-0.02 18.842 3.2962 31.962 15.098 34.56 31.099 3.4087 21.006-7.1238 38.819-30.81 52.119l-3.2775 1.8462 4.1025 4.3412c8.9737 9.4962 31.386 32.455 31.679 32.455 0.5188 0 3.3838-5.395 5.2063-9.795 2.6362-6.3575 4.4237-14.634 5.1599-23.861l0.6701-8.38h23.428l1.5087 1.5725 1.5038 1.5725-0.5713 7.09c-0.6987 8.6912-2.2362 16.489-4.5612 23.1-2.3438 6.67-7.8363 17.374-11.635 22.661-1.69 2.3538-3.0713 4.4388-3.0713 4.625 0 0.19 3.125 3.5588 6.9475 7.49 3.8237 3.935 9.215 9.4825 11.978 12.329l5.03 5.1712-2.51 5.84h-26.416l-6.625-7.0612-6.6212-7.055-3.5312 2.3438c-8.3351 5.5462-19.228 10.175-29.941 12.729-5.0725 1.2112-7.6612 1.455-17.324 1.6362-7.9538 0.15125-12.559-0.015-15.366-0.5475zm25.591-23.608c2.8125-0.5625 7.4112-1.885 10.224-2.945 5.45-2.055 12.779-5.9025 12.779-6.7038 0-0.425-20.235-21.45-35.425-36.806l-5.195-5.2588-3.97 2.6462c-5.7913 3.8525-12.226 10.571-14.375 15-6.6163 13.648-0.7763 28.858 12.979 33.779 5.83 2.09 13.442 2.1875 22.984 0.28875m-1.3875-87.271c4.6925-3.09 10.176-8.7688 12.061-12.49 3.9888-7.8712 2.915-17.564-2.53-22.779-7.1037-6.8112-25.2-6.6012-32.168 0.36625-3.55 3.55-4.3562 5.865-4.365 12.525-0.012 5.2925 0.1613 6.3325 1.5088 9.2138 2.265 4.8238 4.6875 8.0962 10.331 13.94l5.0788 5.2588 3.1787-1.7912c1.7475-0.98625 4.8538-2.8962 6.9038-4.2438m-216.2 106.69c-0.5425-3.5838 0.6825-37.299 1.7625-48.422 1.5137-15.64 4.9075-36.782 7.89-49.13 0.7525-3.125 1.9237-7.9838 2.6025-10.796 3.0712-12.749 9.5125-32.271 15.645-47.428 9.7262-24.032 20.336-44.224 34.78-66.171 11.841-17.994 20.679-29.449 36.124-46.816 11.381-12.808 12.964-14.761 12.534-15.459-0.1613-0.26375 0.059-0.3425 0.4925-0.17625 0.4787 0.18125 3.7112-2.275 8.0425-6.1138 11.362-10.059 21.924-19.14 25.025-21.522 24.228-18.599 40.2-28.844 64.311-41.255 14.961-7.6962 15.434-8.1938 21.362-22.589 5.0188-12.178 10.151-28.476 11.44-36.352 0.5125-3.125 1.1713-5.7662 1.47-5.8688 0.2925-0.1075 0.5313-1.3862 0.5313-2.8462s0.5087-7.51 1.1287-13.442c0.615-5.9325 1.2838-14.239 1.4838-18.458 0.3525-7.485 0.41-7.7538 2.4275-11.274 1.645-2.8812 2.6075-3.8875 4.76-4.9812 1.485-0.75125 2.6962-1.5862 2.6962-1.85 0-0.25875 2.045-0.91875 4.545-1.455l4.5463-0.98125v-3.5012c0-3.8875 1.22-12.754 2.5774-18.804 5.23-23.252 18.911-45.904 36.792-60.904 16.133-13.54 34.662-21.924 54.99-24.878 7.8812-1.1475 23.209-1.1475 31.094 0 28.125 4.0862 52.896 18.594 70.811 41.46 11.855 15.131 19.696 33.774 22.685 53.921 0.5075 3.4275 1.0012 6.3075 1.0987 6.405 0.093 0.0937 1.8063 0.455 3.8037 0.79625 1.9975 0.3425 4.0338 0.97625 4.5263 1.4062 0.4987 0.435 1.1137 0.59125 1.3725 0.35625 0.2587-0.23375 0.2925-0.11625 0.072 0.26375-0.2488 0.435 0.4012 1.0988 1.7588 1.8025 1.1812 0.615 4.5549 3.55 7.5 6.5188l5.3512 5.405 0.7812 5.5712c0.4301 3.0662 1.0013 12.988 1.265 22.046 0.4438 15.068 1.23 23.764 2.885 31.758 0.605 2.925 6.445 19.672 7.5488 21.635 0.3475 0.625 1.2162 2.2612 1.9287 3.6388 3.1838 6.1612 11.49 13.515 18.022 15.956 2.5438 0.9525 10.542 6.3875 10.542 7.1638 0 0.375 4.155 2.9238 9.2288 5.6588 34.614 18.652 62.416 39.395 90.472 67.51 7.8175 7.8312 16.764 17.309 19.879 21.055 3.12 3.745 6.1425 7.3238 6.7238 7.9538 2.8175 3.0375 15.479 20.459 21.675 29.824 9.2375 13.96 14.916 23.789 22.646 39.19 16.616 33.12 25.835 59.726 33.784 97.485 0.9087 4.3362 1.8212 9.2875 2.0212 11.006 0.2 1.7188 0.7225 5.5512 1.1675 8.52 1.9925 13.468 2.6025 19.185 3.11 29.252 0.4988 9.9862 0.855 29.674 0.6688 37.349l-0.077 3.2675h-40.118l0.235-3.2675c0.4875-6.9425-1.0063-39.15-2.3838-51.264-4.4875-39.518-15.948-77.754-34.399-114.76-2.2513-4.5212-4.7313-9.2438-5.5038-10.489-0.7712-1.25-3.505-5.8538-6.0787-10.224-22.372-38.058-55.586-74.625-91.529-100.78-38.52-28.028-77.539-45.982-125.32-57.656-4.5712-1.1188-8.98-2.0312-9.805-2.0312-0.82 0-1.9387-0.235-2.48-0.5225-1.2062-0.64-18.536-3.1788-29.385-4.3125-35.191-3.6612-73.125-1.625-106.79 5.7325-11.968 2.6125-13.896 3.115-27.265 7.085-13.468 4-19.082 5.9862-31.241 11.045-42.392 17.651-79.442 42.398-111.34 74.375-9.8238 9.8488-17.885 18.301-19.014 19.946-0.8737 1.27-5.215 6.4462-6.9137 8.2475-0.5225 0.55125-1.265 1.6012-1.6413 2.3288-0.38 0.7225-1.04 1.7038-1.4637 2.1725-4.2675 4.6875-14.966 20.352-23.086 33.795-7.1287 11.801-17.451 32.304-22.876 45.439-7.1288 17.266-14.15 39.882-18.164 58.506-1.4262 6.6312-1.9187 9.5362-4.2287 25.015-1.9575 13.13-2.94 27.685-3.0425 44.995l-0.093 16.611h-39.975l-0.41-2.7zm281.28-381.04c2.5687-0.87375 18.838-4.9062 19.931-4.9462 0.3713-0.0138-1.5137-2.3438-4.1837-5.18-2.6763-2.8425-6.7825-7.72-9.1313-10.84-2.3487-3.125-4.4525-5.7562-4.6825-5.845-0.6537-0.25875-1.5237 2.4025-3.6675 11.24-1.0987 4.5275-2.6212 10.24-3.3787 12.691l-1.3863 4.4575 2.07-0.39c1.1375-0.21 3.13-0.7475 4.4288-1.1875m195.62-2.245c0-0.16625-0.63-3.17-1.4013-6.675-1.675-7.6375-3.36-21.978-2.8512-24.302 0.615-2.8025-0.455-1.86-3.12 2.745-3.0963 5.3512-9.4238 13.789-14.4 19.199l-3.6863 4.0138 5.7713 0.99625c3.1737 0.54625 8.5837 1.7238 12.016 2.6125 6.5875 1.7088 7.6713 1.9038 7.6713 1.4112m-141.15-8.4725c4.375-0.43875 11.148-1.1325 15.054-1.5375 14.209-1.47 55.981-0.89375 74.365 1.03l3.1737 0.3275 4.5413-3.6775c14.272-11.548 25.768-28.398 30.968-45.38l0.9813-3.2038-5.4688-0.66875c-3.0075-0.36625-7.6662-1.02-10.356-1.45-7.1-1.1425-22.208-2.4175-36.861-3.12-13.861-0.665-48.906-0.3175-55.38 0.54625-2.1825 0.29375-6.4013 0.68875-9.37 0.87875-9.7762 0.63-23.54 2.0262-25.279 2.5688-0.9325 0.28875-4.2575 0.91375-7.3825 1.3775-8.9699 1.3425-24.302 4.12-25.679 4.6575l-1.255 0.48875 2.275 5.6538c4.6588 11.572 11.342 21.49 20.909 31.006 7.8225 7.7925 13.461 12.046 15.395 11.621 0.7812-0.17625 5-0.67375 9.37-1.1188m-44.301-87.456c3.935-0.83 13.97-2.5288 23.852-4.0375 2.8125-0.43 6.65-1.035 8.52-1.3475 1.875-0.3125 9.0338-0.9625 15.909-1.45 6.87-0.48375 14.028-1.1388 15.902-1.4512 4.805-0.8 51.636-0.8875 65.606-0.12125 11.865 0.64875 34.296 2.9338 42.075 4.2912l4.3013 0.7525-0.7175-4.15c-6.8363-39.292-37.075-70.005-76.05-77.246-8.4513-1.5675-23.398-1.45-31.938 0.25875-38.672 7.725-67.92 37.992-74.869 77.485-0.4587 2.5838-0.83 5.625-0.83 6.7525v2.0562l2.1288-0.47875c1.1725-0.26375 3.9212-0.85375 6.1087-1.3138zm-194.72 479.75-1.5275-1.5912v-162.9l1.5275-1.5912 1.5238-1.5962h20.591l1.5288 1.5962 1.5275 1.5912v163.02l-1.5963 1.5288-1.5925 1.5238h-20.459l-1.5238-1.5925zm235.72 0-1.5237-1.5912v-162.9l1.5237-1.5912 1.5275-1.5962h20.591l1.5237 1.5962 1.5275 1.5912v163.02l-1.5912 1.5288-1.5963 1.5238h-20.455l-1.5275-1.5925zm64.75 0-1.5225-1.5912v-162.9l1.5225-1.5912 1.5288-1.5962h20.591l1.5225 1.5912 1.5238 1.5875 0.1412 35.644 0.1525 35.645 34.56-37.231 34.565-37.236h26.558l1.1475 2.25c0.635 1.2362 1.1475 2.6425 1.1475 3.12 0 0.69375-55.889 61.099-69.795 75.44l-3.1737 3.2712 79.116 79.224-1.1612 2.9838-1.1625 2.9788h-28.061l-37.012-37.169-37.016-37.168v71.284l-1.5913 1.5288-1.5925 1.5238h-20.459l-1.5288-1.5925zm193.12 0-1.5225-1.5912v-141.66h-51.48l-1.5238-1.5925c-1.5274-1.5912-1.5274-1.5962-1.5274-10.62 0-9.0188 0-9.0238 1.5274-10.615l1.5238-1.5962h129.09l1.5275 1.5962c1.5238 1.5912 1.5238 1.5962 1.5238 10.615 0 9.0238 0 9.0288-1.5238 10.62l-1.5275 1.5925h-50.909v141.79l-1.5913 1.5288-1.5925 1.5238h-20.459l-1.5288-1.5925z" style="fill:#fff"/><path d="m2975.2 353.25c-1.25-0.1175-5.8488-0.48875-10.22-0.825-17.475-1.3425-40.82-5.1225-57.939-9.385-45.166-11.235-83.486-27.989-121.27-53.018l-9.9413-6.5875 80.088-0.2925 10.376 4.2775c33.985 14.029 69.116 22.485 105.22 25.332 12.392 0.97625 33.891 1.25 43.169 0.54625 4.5313-0.34625 11.69-0.87875 15.909-1.1862 4.2137-0.3125 8.8137-0.815 10.22-1.1188 1.4062-0.3075 6.1375-1.0538 10.512-1.66 24.038-3.335 53.564-11.801 79.541-22.808l7.9775-3.3838 79.971 0.2925-9.0525 6.0312c-23.214 15.464-47.901 28.369-72.671 37.982-35.815 13.901-64.048 20.504-107.07 25.035-5.66 0.595-49.99 1.215-54.815 0.76625m52.828-92.608c-32.749-3.4575-55.449-14.038-73.935-34.462-7.8225-8.6375-16.3-23.468-20.562-35.972-8.9737-26.312-10.405-60.605-3.7587-90.219 5.205-23.209 16.049-44.082 30.946-59.576 9.9863-10.38 19.736-17.519 31.9-23.359 18.012-8.6475 36.109-12.159 59.165-11.485 17.979 0.5275 31.586 2.9988 43.412 7.8862l4.1163 1.7038v14.288l-0.012 14.288-3.0038 2.09-3.0025 2.085-5.5175-1.6412c-13.632-4.0525-26.084-5.9038-39.58-5.8738-22.379 0.04375-39.941 6.1375-55.694 19.331-14.878 12.456-25.581 32.974-28.93 55.444-2.505 16.778-1.4313 39.721 2.5725 54.951 8.345 31.734 28.106 49.805 59.898 54.77 12.271 1.915 28.066 1.6362 40.61-0.7175l5.1125-0.95625 0.2937-62.754h-44.082l-2.105-2.1538-2.0987-2.1538v-26.704l2.1525-2.1 2.1537-2.1038h74.414l2.105 2.1525 2.1001 2.1538v118.34l-4.1163 1.9725c-7.8175 3.74-23.058 7.6562-37.915 9.7362-6.275 0.87875-31.406 1.5912-36.636 1.04zm-605.3-6.33-2.0987-2.1538v-238l4.3937-4.2875 37.989 0.24c40.18 0.24875 42.598 0.395 54.395 3.2075 29.521 7.0462 48.174 25.958 53.256 54.004 1.1863 6.5475 1.025 25.645-0.2687 32.095-2.8563 14.224-9.2038 26.181-18.769 35.366-7.6962 7.3875-16.29 12.456-27.374 16.142-3.105 1.035-5.7325 1.9288-5.84 1.9825-0.1075 0.0588 14.561 21.762 32.592 48.242l32.789 48.134-1.7725 3.5938-1.7725 3.5888h-35.556l-65.128-98.261h-23.72v94.058l-2.1538 2.105-2.1537 2.0988h-26.704l-2.105-2.1525zm74.669-132.44c19.204-2.6762 31.22-11.114 35.64-25.015 2.5925-8.15 2.6212-19.672 0.082-27.905-2.29-7.4125-7.7838-13.809-15.181-17.671-8.8575-4.6288-15.264-5.5512-41.504-5.9525l-20.59-0.3125v78.125l18.602-0.33125c10.23-0.18125 20.558-0.60625 22.95-0.9375zm122.4 132.44-2.1-2.1538v-238l2.1538-2.1 2.1537-2.1038h26.699l4.2087 4.3062v238l-2.1525 2.105-2.1537 2.0988h-26.704l-2.105-2.1525zm85.205 0-2.1037-2.1538v-238l2.1525-2.1 2.1537-2.1038 14.462 0.02375 14.459 0.02 38.628 61.645c44.834 71.568 56.514 90.44 67.168 108.55 4.2675 7.2512 7.8275 13.115 7.91 13.028 0.089-0.0838-0.088-7.295-0.39-16.025-0.2975-8.7262-0.5475-48.98-0.5513-89.449l-0.015-73.589 2.1525-2.1 2.1588-2.1038h26.699l4.21 4.3062v238l-2.1537 2.105-2.1588 2.0988-28.915-0.0188-42.602-67.969c-43.898-70.034-54.049-86.426-64.991-104.97l-6.3713-10.796 0.3025 4.83c0.1713 2.6562 0.4688 43.002 0.6688 89.658l0.3662 84.83-2.1675 2.2162-2.1637 2.2162h-26.801l-2.105-2.1525zm452.7 0-2.0987-2.1538v-238l2.1525-2.1 2.1537-2.1038h129.51l4.21 4.3062v26.704l-2.1587 2.105-2.1538 2.0988h-98.5v67.594h86.674l2.105 2.1575 2.105 2.1538v26.699l-2.1538 2.105-2.1587 2.1038h-86.571v73.272h104.28l4.2087 4.3062v26.704l-2.1525 2.105-2.1587 2.0988h-135.19l-2.1051-2.1525zm183.48 0-2.105-2.1538v-238l2.1538-2.1 2.1525-2.1038 14.464 0.02375 14.458 0.02 38.624 61.645c44.839 71.568 56.518 90.44 67.172 108.55 4.2675 7.2512 7.8275 13.115 7.91 13.028 0.082-0.0838-0.087-7.295-0.3913-16.025-0.2975-8.7262-0.5462-48.98-0.5562-89.449l-0.013-73.589 2.1537-2.1 2.1538-2.1038h26.704l2.1038 2.1525 2.1 2.1538v238l-2.1525 2.105-2.1538 2.0988-28.921-0.025-42.598-67.969c-44.1-70.06-54.2-86.45-65.2-104.99l-6.3725-10.796 0.3025 4.83c0.1662 2.6562 0.4687 43.002 0.67 89.658l0.365 84.83-2.1675 2.2162-2.1625 2.2162h-26.808l-2.0988-2.1525z" style="fill:#005675"/></g><a id="geodata_logo" target="_blank" xlink:href="http://geodata.no/"><path d="m2715.2 955.6-123.43-61.717-89.189 44.595 212.62 106.31 212.62-106.31-89.186-44.595-123.43 61.717" style="fill:#80c9f0"/><path d="m2715.2 866.41-123.43-61.717-89.189 44.596 89.189 44.593 123.43 61.717 123.43-61.717 89.186-44.593-89.186-44.596-123.43 61.717" style="fill:#5595d6"/><path d="m2838.7 804.7 89.186-44.593-212.61-106.31-212.62 106.31 89.189 44.593 123.43 61.717 123.43-61.717" style="fill:#2c73c3"/><g style="fill:#050606"><path d="m3198.3 885.62c0-2.1936-1.4642-3.6634-3.6661-3.6634h-24.923c-4.0336 0-7.3323-3.2987-7.3323-7.3323v-34.819c0-4.0336 3.2987-7.3323 7.3323-7.3323h71.475c4.0336 0 7.3323 3.2987 7.3323 7.3323v61.579c0 43.988-37.023 80.274-87.236 80.274-50.586 0-82.108-37.021-87.242-81.009-3.6633-30.785-3.6633-71.839 0-102.63 5.1332-43.988 36.656-81.009 87.242-81.009 50.58 0 87.236 34.824 87.236 83.573v0.36468c0 3.6689-3.2987 7.3323-7.3323 7.3323h-36.653c-4.0336 0-7.3323-3.2987-7.3323-7.3323v-0.36468c0-15.029-12.827-31.887-35.918-31.887-22.362 0-33.725 13.198-35.556 29.324-3.6661 30.791-3.6661 71.845 0 102.63 1.8317 16.135 13.195 29.323 35.556 29.323 21.991 0 37.018-12.092 37.018-28.588v-15.764"/><path d="m3339.4 922.65c0 2.1961 1.467 3.6637 3.6662 3.6637h86.874c4.0308 0 7.3295 3.3012 7.3295 7.332v36.65c0 4.033-3.2987 7.3323-7.3295 7.3323h-134.53c-4.0309 0-7.3296-3.2992-7.3296-7.3323v-241.92c0-4.0336 3.2987-7.3323 7.3296-7.3323h133.06c4.0335 0 7.3322 3.2987 7.3322 7.3323v36.65c0 4.0308-3.2987 7.3323-7.3322 7.3323h-85.407c-2.1992 0-3.6662 1.467-3.6662 3.6689v43.983c0 2.2019 1.467 3.6634 3.6662 3.6634h82.473c4.0336 0 7.3296 3.2987 7.3296 7.3323v36.656c0 4.0336-3.296 7.3323-7.3296 7.3323h-82.473c-2.1992 0-3.6662 1.4615-3.6662 3.6634v43.988"/><path d="m3594.1 900.65c3.6634-30.785 3.6634-71.839 0-102.63-1.8344-16.126-13.198-29.324-35.556-29.324-22.362 0-33.722 13.198-35.554 29.324-3.6662 30.791-3.6662 71.845 0 102.63 1.8316 16.135 13.192 29.323 35.554 29.323 22.359 0 33.722-13.189 35.556-29.323zm51.682-102.63c3.6662 30.791 3.6662 71.845 0 102.63-5.1304 43.988-36.656 81.009-87.239 81.009s-82.106-37.021-87.239-81.009c-3.6634-30.785-3.6634-71.839 0-102.63 5.1331-43.988 36.656-81.009 87.239-81.009s82.108 37.021 87.239 81.009"/><path d="m3716.2 744.5c-2.2019 0-3.6661 1.467-3.6661 3.6634v202.34c0 2.1961 1.4642 3.6626 3.6661 3.6626h46.185c39.584 0 54.246-28.589 57.18-49.848 4.3983-30.056 4.3983-79.912 0-109.97-4.0308-26.754-22.359-49.848-57.18-49.848zm46.185-23.458c48.384 0 76.24 33.357 81.738 73.306 4.0336 29.324 4.0336 80.274 0 109.97-6.23 47.284-37.753 73.306-81.738 73.306h-65.98c-4.0309 0-7.3296-3.2992-7.3296-7.3323v-241.92c0-4.0336 3.2987-7.3323 7.3296-7.3323h65.98"/><path d="m3985.3 878.3-33.357-124.63c-0.3647-1.467-0.7293-2.2019-1.4642-2.2019h-0.7349c-0.7294 0-1.0968 0.73488-1.4643 2.2019l-33.357 124.63c-0.7321 2.9313 0.7349 4.0281 2.934 4.0281h64.513c2.1964 0 3.6661-1.0968 2.9312-4.0281zm9.5315 31.89c-1.0996-3.2987-3.6662-5.1304-6.9649-5.1304h-75.508c-3.3015 0-5.8653 1.8317-6.9676 5.1304l-17.96 61.949c-0.7294 3.2979-3.6634 5.492-6.9621 5.492h-9.164c-5.8653 0-8.4291-4.0308-7.3323-7.3323l70.013-243.75c0.7293-3.2987 3.6633-5.5006 6.962-5.5006h18.328c3.2987 0 6.2327 2.2019 6.9649 5.5006l70.01 243.75c0.7349 3.3015-1.467 7.3323-7.3322 7.3323h-9.164c-3.2987 0-6.2272-2.1942-6.9621-5.492l-17.96-61.949"/><path d="m4127.5 748.17v222.13c0 4.033-3.296 7.3323-7.3296 7.3323h-9.1639c-4.0336 0-7.3323-3.2992-7.3323-7.3323v-222.13c0-2.1964-1.4643-3.6634-3.6634-3.6634h-54.252c-4.028 0-7.3295-3.2987-7.3295-7.3323v-8.7938c0-4.0336 3.3015-7.3323 7.3295-7.3323h139.29c4.0309 0 7.3296 3.2987 7.3296 7.3323v8.7938c0 4.0336-3.2987 7.3323-7.3296 7.3323h-53.884c-2.1991 0-3.6661 1.467-3.6661 3.6634"/><path d="m4315.9 878.3-33.354-124.63c-0.3674-1.467-0.7321-2.2019-1.467-2.2019h-0.7349c-0.7321 0-1.0968 0.73488-1.4642 2.2019l-33.357 124.63c-0.7321 2.9313 0.7349 4.0281 2.9341 4.0281h64.512c2.1964 0 3.6662-1.0968 2.9313-4.0281zm9.5314 31.89c-1.1023-3.2987-3.6662-5.1304-6.9649-5.1304h-75.508c-3.3014 0-5.8653 1.8317-6.9676 5.1304l-17.958 61.949c-0.7322 3.2979-3.6662 5.492-6.9649 5.492h-9.164c-5.8653 0-8.4318-4.0308-7.3295-7.3323l70.01-243.75c0.7321-3.2987 3.6634-5.5006 6.9621-5.5006h18.328c3.2987 0 6.2328 2.2019 6.9649 5.5006l70.01 243.75c0.7321 3.3015-1.467 7.3323-7.3323 7.3323h-9.164c-3.2959 0-6.23-2.1942-6.9621-5.492l-17.96-61.949"/></g></a><a id="genus_logo" transform="translate(269.18 -597.58)" target="_blank" xlink:href="https://www.genus.no/"><rect x="1781.3" y="2401.3" width="1939.1" height="542.76" style="fill:#fff"/><path d="m2184.7 2710.1-49.826-86.298h-99.65l-49.824 86.298 49.824 86.301h99.65z" style="fill:none;stroke-linejoin:round;stroke-miterlimit:10;stroke-width:15.152;stroke:#696969"/><path d="m2185 2537.6-49.826-86.298h-99.65l-49.824 86.298 49.824 86.301h99.65z" style="fill:none;stroke-linejoin:round;stroke-miterlimit:10;stroke-width:15.152;stroke:#696969"/><path d="m2035.4 2796.2-49.826-86.298h-99.648l-49.826 86.298 49.826 86.301h99.648z" style="fill:#696969;stroke-linejoin:round;stroke-miterlimit:10;stroke-width:15.152;stroke:#696969"/><path d="m2258.3 2538.4h-73.608l-49.826 86.298 49.826 86.301h73.654" style="fill:#696969;stroke-linejoin:round;stroke-miterlimit:10;stroke-width:15.152;stroke:#696969"/><path d="m2601.4 2760.1c-25.4 13.594-53.7 20.393-84.899 20.393-36.098 0-65.317-11.011-87.66-33.03-22.342-22.022-33.515-51.17-33.515-87.447 0-37.03 12.281-67.421 36.841-91.177 24.562-23.756 55.766-35.634 93.62-35.634 27.262 0 50.175 3.8109 68.744 11.43v40.088c-18.999-11.448-41.609-17.173-67.832-17.173-26.368 0-47.985 8.3894-64.855 25.168-16.867 16.779-25.302 38.497-25.302 65.15 0 27.403 7.1721 48.968 21.519 64.693 14.347 15.723 33.81 23.585 58.387 23.585 16.852 0 31.431-3.1845 43.738-9.5511v-55.706h-51.518v-34.346h92.733v113.56"/><path d="m2786.8 2777.1h-133.95v-240.42h127.08v34.346h-85.864v68.691h78.995v34.346h-78.995v68.691h92.733v34.346"/><path d="m3037.5 2777.1h-46.42l-111.89-176.72c-2.8285-4.4725-5.1721-9.1066-7.0308-13.9h-0.9672c0.9672 5.1519 1.4496 16.153 1.4496 33.005v157.61h-41.215v-240.42h49.104l108.14 172.53c4.5433 7.1545 7.4753 12.074 8.8011 14.758h0.644c-1.2173-6.3691-1.8259-17.155-1.8259-32.361v-154.93h41.215v240.42"/><path d="m3281.4 2679.5c0 67.33-32.164 101-96.488 101-61.607 0-92.412-32.396-92.412-97.188v-146.67h41.215v138.78c0 47.152 18.067 70.729 54.203 70.729 34.846 0 52.268-22.736 52.268-68.209v-141.3h41.215v142.86"/><path d="m3322.6 2766.9v-41.323c3.72 3.7199 8.1571 7.0736 13.309 10.061 5.1519 2.9876 10.617 5.5003 16.395 7.5409 5.7781 2.0405 11.546 3.6214 17.307 4.7503 5.7605 1.1263 11.074 1.6895 15.938 1.6895 16.958 0 29.598-2.9522 37.914-8.8541 8.3187-5.9044 12.478-14.456 12.478-25.653 0-5.6872-1.3865-10.617-4.1594-14.784-2.7729-4.1694-6.6443-7.9777-11.619-11.43-4.9725-3.4522-10.811-6.763-17.521-9.9299-6.7074-3.1643-13.907-6.465-21.6-9.8996-8.2278-4.3285-15.902-8.7202-23.022-13.175-7.1191-4.4549-13.309-9.3819-18.567-14.786-5.2604-5.4019-9.3844-11.493-12.372-18.271-2.9876-6.7808-4.4801-14.731-4.4801-23.855 0-11.233 2.5482-20.991 7.647-29.274 5.0988-8.2808 11.834-15.125 20.206-20.526 8.3717-5.4019 17.887-9.4097 28.55-12.021 10.66-2.6112 21.537-3.9169 32.628-3.9169 25.257 0 43.664 2.8613 55.221 8.5864v39.497c-13.809-11.448-31.573-17.173-53.289-17.173-6.0104 0-11.986 0.591-17.925 1.7703-5.9373 1.1819-11.261 3.1391-15.966 5.8767-4.7048 2.7375-8.5232 6.2428-11.455 10.518-2.9345 4.2755-4.4018 9.4375-4.4018 15.483 0 5.3311 1.1263 9.945 3.3815 13.844 2.2527 3.8992 5.5534 7.46 9.8996 10.68 4.3488 3.2199 9.6597 6.359 15.94 9.4173 6.2782 3.0608 13.531 6.3792 21.759 9.9551 8.4804 4.3286 16.476 8.892 23.989 13.685 7.5131 4.7933 14.125 10.079 19.83 15.857 5.7074 5.7781 10.223 12.2 13.551 19.266 3.326 7.0661 4.9903 15.107 4.9903 24.123 0 12.127-2.4699 22.36-7.4071 30.696-4.9346 8.3363-11.589 15.114-19.961 20.34-8.3717 5.2226-17.996 9.0056-28.873 11.349s-22.378 3.5154-34.507 3.5154c-4.0432 0-9.0056-0.3132-14.892-0.9395-5.8842-0.6263-11.912-1.5304-18.084-2.7097-6.1721-1.1794-12.011-2.6113-17.521-4.2932-5.5104-1.682-9.945-3.5785-13.309-5.6873"/><path d="m3597.1 2658.5c-19.723 0-36.51-6.907-50.362-20.721-13.852-13.814-20.779-30.507-20.779-50.079 0-19.799 6.9651-36.606 20.893-50.42 13.928-13.814 30.638-20.721 50.134-20.721 19.572 0 36.341 6.9247 50.306 20.779 13.966 13.849 20.948 30.525 20.948 50.021 0 19.723-6.9247 36.512-20.777 50.362-13.852 13.852-30.641 20.779-50.364 20.779zm-0.4546-133.87c-17.046 0-31.669 6.1746-43.866 18.524-12.198 12.349-18.297 27.199-18.297 44.548 0 17.223 6.0559 31.989 18.165 44.301 12.109 12.311 26.774 18.468 43.998 18.468 17.35 0 32.199-6.1569 44.548-18.468 12.349-12.311 18.524-27.077 18.524-44.301 0-17.35-6.1923-32.199-18.579-44.548-12.387-12.349-27.219-18.524-44.493-18.524zm22.956 107.01-10.91-23.335c-3.1567-6.7933-6.2125-11.352-9.1672-13.675-2.9547-2.3233-6.2883-3.485-10.001-3.485h-9.0915v40.495h-9.7355v-91.407h25.002c10.102 0 17.875 2.1896 23.317 6.5737 5.4422 4.379 8.1621 10.208 8.1621 17.481 0 13.966-7.9677 22.4-23.903 25.305v0.3788c5.3539 1.0859 10.405 6.6039 15.152 16.554l12.046 25.115zm-39.169-83.945v35.874h16.44c6.162 0 11.094-1.5784 14.794-4.7352 3.6997-3.1567 5.5483-7.5005 5.5483-13.031 0-12.072-7.5257-18.107-22.577-18.107h-14.205"/><path d="m2035.4 2623.8-49.826-86.301h-99.65l-49.824 86.301 49.824 86.298h99.65z" style="fill:none;stroke-linejoin:round;stroke-miterlimit:10;stroke-width:15.152;stroke:#696969"/></a></svg>
